<?xml version="1.0" encoding="utf-8"?>
<!-- Generator: Adobe Illustrator 27.5.0, SVG Export Plug-In . SVG Version: 6.00 Build 0)  -->
<svg version="1.1" xmlns="http://www.w3.org/2000/svg" xmlns:xlink="http://www.w3.org/1999/xlink" x="0px" y="0px"
	 viewBox="0 0 500 500" style="enable-background:new 0 0 500 500;" xml:space="preserve">
<g id="BACKGROUND">
</g>
<g id="OBJECTS">
	<g>
		<defs>
			<path id="SVGID_1_" d="M405.007,395.727C346.91,459.103,252.904,468.651,159.677,457
				c-59.325-7.414-104.384-42.427-125.217-102.579C7.873,277.655,51.661,204.644,91.624,176.995
				c31.961-22.3,72.612-30.437,101.997-56.119c17.102-14.947,29.33-35.002,46.693-49.638C291.39,28.543,366.1,42.741,418.38,76.523
				C530.457,141.492,473.176,316.453,405.007,395.727z"/>
		</defs>
		<clipPath id="SVGID_00000157298676540218684310000001349217370591365806_">
			<use xlink:href="#SVGID_1_"  style="overflow:visible;"/>
		</clipPath>
		<path style="clip-path:url(#SVGID_00000157298676540218684310000001349217370591365806_);fill:#D1E7FF;" d="M405.007,395.727
			c-58.097,63.377-151.436,108.154-236.399,79.148C113.539,451.594,55.293,414.573,34.46,354.421
			C7.873,277.655,51.661,204.644,91.624,176.995c31.961-22.3,72.612-30.437,101.997-56.119
			c17.102-14.947,29.33-35.002,46.693-49.638C291.39,28.543,366.1,42.741,418.38,76.523
			C530.457,141.492,473.176,316.453,405.007,395.727z"/>
		<polygon style="clip-path:url(#SVGID_00000157298676540218684310000001349217370591365806_);fill:#5B70F2;" points="
			465.813,320.804 465.813,331.098 447.908,331.098 447.908,296.243 425.167,296.243 425.167,312.026 408.074,312.026 
			408.074,329.616 396.241,329.616 396.241,318.895 373.5,318.895 373.5,342.572 355.595,342.572 355.595,335.579 336.078,335.579 
			336.078,318.895 318.985,318.895 318.985,305.089 296.244,305.089 296.244,335.579 278.339,335.579 278.339,326.573 
			259.038,326.573 259.038,320.804 232.195,320.804 232.195,331.098 214.29,331.098 214.29,296.243 191.549,296.243 
			191.549,312.026 174.456,312.026 174.456,329.616 162.623,329.616 162.623,318.895 139.882,318.895 139.882,342.572 
			121.977,342.572 121.977,335.579 102.46,335.579 102.46,318.895 85.367,318.895 85.367,305.089 62.626,305.089 62.626,335.579 
			44.721,335.579 44.721,326.573 17.877,326.573 17.877,366.871 38.054,366.871 44.721,366.871 62.626,366.871 64.897,366.871 
			79.719,366.871 85.367,366.871 95.133,366.871 102.46,366.871 115.31,366.871 121.977,366.871 139.882,366.871 142.153,366.871 
			156.976,366.871 162.623,366.871 174.456,366.871 179.716,366.871 191.549,366.871 197.196,366.871 212.019,366.871 
			214.29,366.871 232.195,366.871 238.862,366.871 251.495,366.871 259.038,366.871 271.672,366.871 278.339,366.871 
			296.244,366.871 298.515,366.871 313.337,366.871 318.985,366.871 328.752,366.871 336.078,366.871 348.928,366.871 
			355.595,366.871 373.5,366.871 375.772,366.871 390.594,366.871 396.241,366.871 408.074,366.871 413.335,366.871 
			425.167,366.871 430.815,366.871 445.637,366.871 447.908,366.871 465.813,366.871 472.48,366.871 492.657,366.871 
			492.657,320.804 		"/>
		<path style="clip-path:url(#SVGID_00000157298676540218684310000001349217370591365806_);fill:#FFFFFF;" d="M200.957,258.948
			c0,0.399-0.008,0.797-0.025,1.193c-0.031,0.762-0.642,1.371-1.404,1.371H45.171c-0.703,0-1.312-0.518-1.393-1.216
			c-0.06-0.519-0.107-1.041-0.141-1.568c-1.096-16.99,12.049-31.973,29.043-32.987c4.588-0.274,8.979,0.449,12.971,1.979
			c0.73,0.28,1.531-0.133,1.794-0.87c6.283-17.628,23.124-30.246,42.914-30.246c20.718,0,38.201,13.823,43.731,32.746
			c0.161,0.551,0.635,0.941,1.205,1.002C189.725,231.9,200.957,244.111,200.957,258.948z"/>
		<path style="clip-path:url(#SVGID_00000157298676540218684310000001349217370591365806_);fill:#FFFFFF;" d="M420.623,121.071
			c0,0.232-0.005,0.464-0.014,0.694c-0.018,0.443-0.374,0.797-0.817,0.797h-89.803c-0.409,0-0.763-0.301-0.81-0.707
			c-0.035-0.302-0.062-0.606-0.082-0.912c-0.638-9.884,7.01-18.602,16.897-19.191c2.669-0.159,5.224,0.261,7.547,1.151
			c0.425,0.163,0.891-0.077,1.044-0.506c3.655-10.256,13.453-17.597,24.967-17.597c12.054,0,22.225,8.042,25.442,19.051
			c0.094,0.321,0.369,0.547,0.701,0.583C414.088,105.335,420.623,112.439,420.623,121.071z"/>
		<path style="clip-path:url(#SVGID_00000157298676540218684310000001349217370591365806_);fill:#FFFFFF;" d="M477.609,238.012
			c0,0.232-0.005,0.464-0.014,0.694c-0.018,0.443-0.374,0.797-0.817,0.797h-89.803c-0.409,0-0.763-0.301-0.811-0.707
			c-0.035-0.302-0.062-0.606-0.082-0.912c-0.637-9.884,7.01-18.602,16.897-19.191c2.669-0.159,5.224,0.261,7.546,1.152
			c0.425,0.163,0.891-0.077,1.044-0.506c3.655-10.256,13.453-17.597,24.967-17.597c12.054,0,22.225,8.042,25.442,19.051
			c0.094,0.32,0.369,0.547,0.701,0.583C471.074,222.276,477.609,229.38,477.609,238.012z"/>
		<g style="clip-path:url(#SVGID_00000157298676540218684310000001349217370591365806_);">
			<g>
				<g>
					<rect x="211.882" y="112.663" style="fill:#93B2F7;" width="168.075" height="12.965"/>
					<g>
						<g>
							<g>
								<rect x="279.371" y="125.628" style="fill:#5B70F2;" width="12.627" height="24.884"/>
								<rect x="279.371" y="125.628" style="fill:#5B70F2;" width="12.627" height="3.43"/>
								
									<rect x="291.999" y="125.628" transform="matrix(-1 -1.224647e-16 1.224647e-16 -1 591.9998 276.1403)" style="fill:#5B70F2;" width="8.002" height="24.884"/>
							</g>
							<g>
								<rect x="251.307" y="125.628" style="fill:#5B70F2;" width="12.627" height="24.884"/>
								<rect x="251.307" y="125.628" style="fill:#5B70F2;" width="12.627" height="3.43"/>
								
									<rect x="263.935" y="125.628" transform="matrix(-1 -1.224647e-16 1.224647e-16 -1 535.8714 276.1403)" style="fill:#5B70F2;" width="8.002" height="24.884"/>
							</g>
						</g>
						<g>
							<rect x="221.907" y="125.628" style="fill:#93B2F7;" width="12.627" height="24.884"/>
							<rect x="221.907" y="125.628" style="fill:#7490F5;" width="12.627" height="3.43"/>
							
								<rect x="234.534" y="125.628" transform="matrix(-1 -1.224647e-16 1.224647e-16 -1 477.0705 276.1403)" style="fill:#7490F5;" width="8.002" height="24.884"/>
						</g>
						<g>
							<rect x="264.372" y="125.628" style="fill:#93B2F7;" width="12.627" height="24.884"/>
							<rect x="264.372" y="125.628" style="fill:#7490F5;" width="12.627" height="3.43"/>
							
								<rect x="277" y="125.628" transform="matrix(-1 -1.224647e-16 1.224647e-16 -1 562.0011 276.1403)" style="fill:#7490F5;" width="8.002" height="24.884"/>
						</g>
						<g>
							<rect x="306.837" y="125.628" style="fill:#93B2F7;" width="12.627" height="24.884"/>
							<rect x="306.837" y="125.628" style="fill:#7490F5;" width="12.627" height="3.43"/>
							
								<rect x="319.465" y="125.628" transform="matrix(-1 -1.224647e-16 1.224647e-16 -1 646.9318 276.1403)" style="fill:#7490F5;" width="8.002" height="24.884"/>
						</g>
						<g>
							<rect x="349.303" y="125.628" style="fill:#93B2F7;" width="12.627" height="24.884"/>
							<rect x="349.303" y="125.628" style="fill:#7490F5;" width="12.627" height="3.43"/>
							
								<rect x="361.93" y="125.628" transform="matrix(-1 -1.224647e-16 1.224647e-16 -1 731.8625 276.1403)" style="fill:#7490F5;" width="8.002" height="24.884"/>
						</g>
						<g>
							<g>
								<rect x="408.133" y="125.628" style="fill:#93B2F7;" width="12.628" height="24.884"/>
								<rect x="408.133" y="125.628" style="fill:#7490F5;" width="12.628" height="3.43"/>
								
									<rect x="420.761" y="125.628" transform="matrix(-1 -1.224647e-16 1.224647e-16 -1 849.524 276.1403)" style="fill:#7490F5;" width="8.002" height="24.884"/>
							</g>
							<g>
								<rect x="380.069" y="125.628" style="fill:#93B2F7;" width="12.627" height="24.884"/>
								<rect x="380.069" y="125.628" style="fill:#7490F5;" width="12.627" height="3.43"/>
								
									<rect x="392.697" y="125.628" transform="matrix(-1 -1.224647e-16 1.224647e-16 -1 793.3957 276.1403)" style="fill:#7490F5;" width="8.002" height="24.884"/>
							</g>
						</g>
					</g>
				</g>
				
					<rect x="379.957" y="112.663" transform="matrix(-1 -1.224647e-16 1.224647e-16 -1 812.3288 238.2915)" style="fill:#7490F5;" width="52.415" height="12.965"/>
			</g>
			<g>
				<g>
					<rect x="211.882" y="149.492" style="fill:#93B2F7;" width="168.075" height="12.965"/>
					<g>
						<g>
							<g>
								<rect x="279.371" y="162.456" style="fill:#5B70F2;" width="12.627" height="24.884"/>
								<rect x="279.371" y="162.456" style="fill:#5B70F2;" width="12.627" height="3.43"/>
								
									<rect x="291.999" y="162.456" transform="matrix(-1 -1.224647e-16 1.224647e-16 -1 591.9998 349.7965)" style="fill:#5B70F2;" width="8.002" height="24.884"/>
							</g>
							<g>
								<rect x="251.307" y="162.456" style="fill:#5B70F2;" width="12.627" height="24.884"/>
								<rect x="251.307" y="162.456" style="fill:#5B70F2;" width="12.627" height="3.43"/>
								
									<rect x="263.935" y="162.456" transform="matrix(-1 -1.224647e-16 1.224647e-16 -1 535.8714 349.7965)" style="fill:#5B70F2;" width="8.002" height="24.884"/>
							</g>
						</g>
						<g>
							<rect x="221.907" y="162.456" style="fill:#93B2F7;" width="12.627" height="24.884"/>
							<rect x="221.907" y="162.456" style="fill:#7490F5;" width="12.627" height="3.43"/>
							
								<rect x="234.534" y="162.456" transform="matrix(-1 -1.224647e-16 1.224647e-16 -1 477.0705 349.7965)" style="fill:#7490F5;" width="8.002" height="24.884"/>
						</g>
						<g>
							<rect x="264.372" y="162.456" style="fill:#93B2F7;" width="12.627" height="24.884"/>
							<rect x="264.372" y="162.456" style="fill:#7490F5;" width="12.627" height="3.43"/>
							
								<rect x="277" y="162.456" transform="matrix(-1 -1.224647e-16 1.224647e-16 -1 562.0011 349.7965)" style="fill:#7490F5;" width="8.002" height="24.884"/>
						</g>
						<g>
							<rect x="306.837" y="162.456" style="fill:#93B2F7;" width="12.627" height="24.884"/>
							<rect x="306.837" y="162.456" style="fill:#7490F5;" width="12.627" height="3.43"/>
							
								<rect x="319.465" y="162.456" transform="matrix(-1 -1.224647e-16 1.224647e-16 -1 646.9318 349.7965)" style="fill:#7490F5;" width="8.002" height="24.884"/>
						</g>
						<g>
							<rect x="349.303" y="162.456" style="fill:#93B2F7;" width="12.627" height="24.884"/>
							<rect x="349.303" y="162.456" style="fill:#7490F5;" width="12.627" height="3.43"/>
							
								<rect x="361.93" y="162.456" transform="matrix(-1 -1.224647e-16 1.224647e-16 -1 731.8625 349.7965)" style="fill:#7490F5;" width="8.002" height="24.884"/>
						</g>
						<g>
							<g>
								<rect x="408.133" y="162.456" style="fill:#93B2F7;" width="12.628" height="24.884"/>
								<rect x="408.133" y="162.456" style="fill:#7490F5;" width="12.628" height="3.43"/>
								
									<rect x="420.761" y="162.456" transform="matrix(-1 -1.224647e-16 1.224647e-16 -1 849.524 349.7965)" style="fill:#7490F5;" width="8.002" height="24.884"/>
							</g>
							<g>
								<rect x="380.069" y="162.456" style="fill:#93B2F7;" width="12.627" height="24.884"/>
								<rect x="380.069" y="162.456" style="fill:#7490F5;" width="12.627" height="3.43"/>
								
									<rect x="392.697" y="162.456" transform="matrix(-1 -1.224647e-16 1.224647e-16 -1 793.3957 349.7965)" style="fill:#7490F5;" width="8.002" height="24.884"/>
							</g>
						</g>
					</g>
				</g>
				
					<rect x="379.957" y="149.492" transform="matrix(-1 -1.224647e-16 1.224647e-16 -1 812.3288 311.9476)" style="fill:#7490F5;" width="52.415" height="12.965"/>
			</g>
			<g>
				<g>
					<rect x="211.882" y="186.32" style="fill:#93B2F7;" width="168.075" height="12.965"/>
					<g>
						<g>
							<g>
								<rect x="279.371" y="199.284" style="fill:#5B70F2;" width="12.627" height="24.884"/>
								<rect x="279.371" y="199.284" style="fill:#5B70F2;" width="12.627" height="3.43"/>
								
									<rect x="291.999" y="199.284" transform="matrix(-1 -1.224647e-16 1.224647e-16 -1 591.9998 423.4525)" style="fill:#5B70F2;" width="8.002" height="24.884"/>
							</g>
							<g>
								<rect x="251.307" y="199.284" style="fill:#5B70F2;" width="12.627" height="24.884"/>
								<rect x="251.307" y="199.284" style="fill:#5B70F2;" width="12.627" height="3.43"/>
								
									<rect x="263.935" y="199.284" transform="matrix(-1 -1.224647e-16 1.224647e-16 -1 535.8714 423.4525)" style="fill:#5B70F2;" width="8.002" height="24.884"/>
							</g>
						</g>
						<g>
							<rect x="221.907" y="199.284" style="fill:#93B2F7;" width="12.627" height="24.884"/>
							<rect x="221.907" y="199.284" style="fill:#7490F5;" width="12.627" height="3.43"/>
							
								<rect x="234.534" y="199.284" transform="matrix(-1 -1.224647e-16 1.224647e-16 -1 477.0705 423.4525)" style="fill:#7490F5;" width="8.002" height="24.884"/>
						</g>
						<g>
							<rect x="264.372" y="199.284" style="fill:#93B2F7;" width="12.627" height="24.884"/>
							<rect x="264.372" y="199.284" style="fill:#7490F5;" width="12.627" height="3.43"/>
							
								<rect x="277" y="199.284" transform="matrix(-1 -1.224647e-16 1.224647e-16 -1 562.0011 423.4525)" style="fill:#7490F5;" width="8.002" height="24.884"/>
						</g>
						<g>
							<rect x="306.837" y="199.284" style="fill:#93B2F7;" width="12.627" height="24.884"/>
							<rect x="306.837" y="199.284" style="fill:#7490F5;" width="12.627" height="3.43"/>
							
								<rect x="319.465" y="199.284" transform="matrix(-1 -1.224647e-16 1.224647e-16 -1 646.9318 423.4525)" style="fill:#7490F5;" width="8.002" height="24.884"/>
						</g>
						<g>
							<rect x="349.303" y="199.284" style="fill:#93B2F7;" width="12.627" height="24.884"/>
							<rect x="349.303" y="199.284" style="fill:#7490F5;" width="12.627" height="3.43"/>
							
								<rect x="361.93" y="199.284" transform="matrix(-1 -1.224647e-16 1.224647e-16 -1 731.8625 423.4525)" style="fill:#7490F5;" width="8.002" height="24.884"/>
						</g>
						<g>
							<g>
								<rect x="408.133" y="199.284" style="fill:#93B2F7;" width="12.628" height="24.884"/>
								<rect x="408.133" y="199.284" style="fill:#7490F5;" width="12.628" height="3.43"/>
								
									<rect x="420.761" y="199.284" transform="matrix(-1 -1.224647e-16 1.224647e-16 -1 849.524 423.4525)" style="fill:#7490F5;" width="8.002" height="24.884"/>
							</g>
							<g>
								<rect x="380.069" y="199.284" style="fill:#93B2F7;" width="12.627" height="24.884"/>
								<rect x="380.069" y="199.284" style="fill:#7490F5;" width="12.627" height="3.43"/>
								
									<rect x="392.697" y="199.284" transform="matrix(-1 -1.224647e-16 1.224647e-16 -1 793.3957 423.4525)" style="fill:#7490F5;" width="8.002" height="24.884"/>
							</g>
						</g>
					</g>
				</g>
				
					<rect x="379.957" y="186.32" transform="matrix(-1 -1.224647e-16 1.224647e-16 -1 812.3288 385.6037)" style="fill:#7490F5;" width="52.415" height="12.965"/>
			</g>
			<g>
				<g>
					<rect x="211.882" y="223.148" style="fill:#93B2F7;" width="168.075" height="12.965"/>
					<g>
						<g>
							<g>
								<rect x="279.371" y="236.112" style="fill:#5B70F2;" width="12.627" height="24.884"/>
								<rect x="279.371" y="236.112" style="fill:#5B70F2;" width="12.627" height="3.43"/>
								
									<rect x="291.999" y="236.112" transform="matrix(-1 -1.224647e-16 1.224647e-16 -1 591.9998 497.1086)" style="fill:#5B70F2;" width="8.002" height="24.884"/>
							</g>
							<g>
								<rect x="251.307" y="236.112" style="fill:#5B70F2;" width="12.627" height="24.884"/>
								<rect x="251.307" y="236.112" style="fill:#5B70F2;" width="12.627" height="3.43"/>
								
									<rect x="263.935" y="236.112" transform="matrix(-1 -1.224647e-16 1.224647e-16 -1 535.8714 497.1086)" style="fill:#5B70F2;" width="8.002" height="24.884"/>
							</g>
						</g>
						<g>
							<rect x="221.907" y="236.112" style="fill:#93B2F7;" width="12.627" height="24.884"/>
							<rect x="221.907" y="236.112" style="fill:#7490F5;" width="12.627" height="3.43"/>
							
								<rect x="234.534" y="236.112" transform="matrix(-1 -1.224647e-16 1.224647e-16 -1 477.0705 497.1086)" style="fill:#7490F5;" width="8.002" height="24.884"/>
						</g>
						<g>
							<rect x="264.372" y="236.112" style="fill:#93B2F7;" width="12.627" height="24.884"/>
							<rect x="264.372" y="236.112" style="fill:#7490F5;" width="12.627" height="3.43"/>
							
								<rect x="277" y="236.112" transform="matrix(-1 -1.224647e-16 1.224647e-16 -1 562.0011 497.1086)" style="fill:#7490F5;" width="8.002" height="24.884"/>
						</g>
						<g>
							<rect x="306.837" y="236.112" style="fill:#93B2F7;" width="12.627" height="24.884"/>
							<rect x="306.837" y="236.112" style="fill:#7490F5;" width="12.627" height="3.43"/>
							
								<rect x="319.465" y="236.112" transform="matrix(-1 -1.224647e-16 1.224647e-16 -1 646.9318 497.1086)" style="fill:#7490F5;" width="8.002" height="24.884"/>
						</g>
						<g>
							<rect x="349.303" y="236.112" style="fill:#93B2F7;" width="12.627" height="24.884"/>
							<rect x="349.303" y="236.112" style="fill:#7490F5;" width="12.627" height="3.43"/>
							
								<rect x="361.93" y="236.112" transform="matrix(-1 -1.224647e-16 1.224647e-16 -1 731.8625 497.1086)" style="fill:#7490F5;" width="8.002" height="24.884"/>
						</g>
						<g>
							<g>
								<rect x="408.133" y="236.112" style="fill:#93B2F7;" width="12.628" height="24.884"/>
								<rect x="408.133" y="236.112" style="fill:#7490F5;" width="12.628" height="3.43"/>
								
									<rect x="420.761" y="236.112" transform="matrix(-1 -1.224647e-16 1.224647e-16 -1 849.524 497.1086)" style="fill:#7490F5;" width="8.002" height="24.884"/>
							</g>
							<g>
								<rect x="380.069" y="236.112" style="fill:#93B2F7;" width="12.627" height="24.884"/>
								<rect x="380.069" y="236.112" style="fill:#7490F5;" width="12.627" height="3.43"/>
								
									<rect x="392.697" y="236.112" transform="matrix(-1 -1.224647e-16 1.224647e-16 -1 793.3957 497.1086)" style="fill:#7490F5;" width="8.002" height="24.884"/>
							</g>
						</g>
					</g>
				</g>
				
					<rect x="379.957" y="223.148" transform="matrix(-1 -1.224647e-16 1.224647e-16 -1 812.3288 459.2597)" style="fill:#7490F5;" width="52.415" height="12.965"/>
			</g>
			<g>
				<g>
					<rect x="211.882" y="259.976" style="fill:#93B2F7;" width="168.075" height="12.965"/>
					<g>
						<g>
							<g>
								<rect x="279.371" y="272.94" style="fill:#5B70F2;" width="12.627" height="24.884"/>
								<rect x="279.371" y="272.94" style="fill:#5B70F2;" width="12.627" height="3.43"/>
								
									<rect x="291.999" y="272.94" transform="matrix(-1 -1.224647e-16 1.224647e-16 -1 591.9998 570.7647)" style="fill:#5B70F2;" width="8.002" height="24.884"/>
							</g>
							<g>
								<rect x="251.307" y="272.94" style="fill:#5B70F2;" width="12.627" height="24.884"/>
								<rect x="251.307" y="272.94" style="fill:#5B70F2;" width="12.627" height="3.43"/>
								
									<rect x="263.935" y="272.94" transform="matrix(-1 -1.224647e-16 1.224647e-16 -1 535.8714 570.7647)" style="fill:#5B70F2;" width="8.002" height="24.884"/>
							</g>
						</g>
						<g>
							<rect x="221.907" y="272.94" style="fill:#93B2F7;" width="12.627" height="24.884"/>
							<rect x="221.907" y="272.94" style="fill:#7490F5;" width="12.627" height="3.43"/>
							
								<rect x="234.534" y="272.94" transform="matrix(-1 -1.224647e-16 1.224647e-16 -1 477.0705 570.7647)" style="fill:#7490F5;" width="8.002" height="24.884"/>
						</g>
						<g>
							<rect x="264.372" y="272.94" style="fill:#93B2F7;" width="12.627" height="24.884"/>
							<rect x="264.372" y="272.94" style="fill:#7490F5;" width="12.627" height="3.43"/>
							
								<rect x="277" y="272.94" transform="matrix(-1 -1.224647e-16 1.224647e-16 -1 562.0011 570.7647)" style="fill:#7490F5;" width="8.002" height="24.884"/>
						</g>
						<g>
							<rect x="306.837" y="272.94" style="fill:#93B2F7;" width="12.627" height="24.884"/>
							<rect x="306.837" y="272.94" style="fill:#7490F5;" width="12.627" height="3.43"/>
							
								<rect x="319.465" y="272.94" transform="matrix(-1 -1.224647e-16 1.224647e-16 -1 646.9318 570.7647)" style="fill:#7490F5;" width="8.002" height="24.884"/>
						</g>
						<g>
							<rect x="349.303" y="272.94" style="fill:#93B2F7;" width="12.627" height="24.884"/>
							<rect x="349.303" y="272.94" style="fill:#7490F5;" width="12.627" height="3.43"/>
							
								<rect x="361.93" y="272.94" transform="matrix(-1 -1.224647e-16 1.224647e-16 -1 731.8625 570.7647)" style="fill:#7490F5;" width="8.002" height="24.884"/>
						</g>
						<g>
							<g>
								<rect x="408.133" y="272.94" style="fill:#93B2F7;" width="12.628" height="24.884"/>
								<rect x="408.133" y="272.94" style="fill:#7490F5;" width="12.628" height="3.43"/>
								
									<rect x="420.761" y="272.94" transform="matrix(-1 -1.224647e-16 1.224647e-16 -1 849.524 570.7647)" style="fill:#7490F5;" width="8.002" height="24.884"/>
							</g>
							<g>
								<rect x="380.069" y="272.94" style="fill:#93B2F7;" width="12.627" height="24.884"/>
								<rect x="380.069" y="272.94" style="fill:#7490F5;" width="12.627" height="3.43"/>
								
									<rect x="392.697" y="272.94" transform="matrix(-1 -1.224647e-16 1.224647e-16 -1 793.3957 570.7647)" style="fill:#7490F5;" width="8.002" height="24.884"/>
							</g>
						</g>
					</g>
				</g>
				
					<rect x="379.957" y="259.976" transform="matrix(-1 -1.224647e-16 1.224647e-16 -1 812.3288 532.9159)" style="fill:#7490F5;" width="52.415" height="12.965"/>
			</g>
			<g>
				<g>
					<rect x="211.882" y="296.804" style="fill:#93B2F7;" width="168.075" height="12.965"/>
					<g>
						<g>
							<g>
								<rect x="279.371" y="309.768" style="fill:#5B70F2;" width="12.627" height="24.884"/>
								<rect x="279.371" y="309.768" style="fill:#5B70F2;" width="12.627" height="3.43"/>
								
									<rect x="291.999" y="309.768" transform="matrix(-1 -1.224647e-16 1.224647e-16 -1 591.9998 644.4207)" style="fill:#5B70F2;" width="8.002" height="24.884"/>
							</g>
							<g>
								<rect x="251.307" y="309.768" style="fill:#5B70F2;" width="12.627" height="24.884"/>
								<rect x="251.307" y="309.768" style="fill:#5B70F2;" width="12.627" height="3.43"/>
								
									<rect x="263.935" y="309.768" transform="matrix(-1 -1.224647e-16 1.224647e-16 -1 535.8714 644.4207)" style="fill:#5B70F2;" width="8.002" height="24.884"/>
							</g>
						</g>
						<g>
							<rect x="221.907" y="309.768" style="fill:#93B2F7;" width="12.627" height="24.884"/>
							<rect x="221.907" y="309.768" style="fill:#7490F5;" width="12.627" height="3.43"/>
							
								<rect x="234.534" y="309.768" transform="matrix(-1 -1.224647e-16 1.224647e-16 -1 477.0705 644.4207)" style="fill:#7490F5;" width="8.002" height="24.884"/>
						</g>
						<g>
							<rect x="264.372" y="309.768" style="fill:#93B2F7;" width="12.627" height="24.884"/>
							<rect x="264.372" y="309.768" style="fill:#7490F5;" width="12.627" height="3.43"/>
							
								<rect x="277" y="309.768" transform="matrix(-1 -1.224647e-16 1.224647e-16 -1 562.0011 644.4207)" style="fill:#7490F5;" width="8.002" height="24.884"/>
						</g>
						<g>
							<rect x="306.837" y="309.768" style="fill:#93B2F7;" width="12.627" height="24.884"/>
							<rect x="306.837" y="309.768" style="fill:#7490F5;" width="12.627" height="3.43"/>
							
								<rect x="319.465" y="309.768" transform="matrix(-1 -1.224647e-16 1.224647e-16 -1 646.9318 644.4207)" style="fill:#7490F5;" width="8.002" height="24.884"/>
						</g>
						<g>
							<rect x="349.303" y="309.768" style="fill:#93B2F7;" width="12.627" height="24.884"/>
							<rect x="349.303" y="309.768" style="fill:#7490F5;" width="12.627" height="3.43"/>
							
								<rect x="361.93" y="309.768" transform="matrix(-1 -1.224647e-16 1.224647e-16 -1 731.8625 644.4207)" style="fill:#7490F5;" width="8.002" height="24.884"/>
						</g>
						<g>
							<g>
								<rect x="408.133" y="309.768" style="fill:#93B2F7;" width="12.628" height="24.884"/>
								<rect x="408.133" y="309.768" style="fill:#7490F5;" width="12.628" height="3.43"/>
								
									<rect x="420.761" y="309.768" transform="matrix(-1 -1.224647e-16 1.224647e-16 -1 849.524 644.4207)" style="fill:#7490F5;" width="8.002" height="24.884"/>
							</g>
							<g>
								<rect x="380.069" y="309.768" style="fill:#93B2F7;" width="12.627" height="24.884"/>
								<rect x="380.069" y="309.768" style="fill:#7490F5;" width="12.627" height="3.43"/>
								
									<rect x="392.697" y="309.768" transform="matrix(-1 -1.224647e-16 1.224647e-16 -1 793.3957 644.4207)" style="fill:#7490F5;" width="8.002" height="24.884"/>
							</g>
						</g>
					</g>
				</g>
				
					<rect x="379.957" y="296.804" transform="matrix(-1 -1.224647e-16 1.224647e-16 -1 812.3288 606.5719)" style="fill:#7490F5;" width="52.415" height="12.965"/>
			</g>
			<g>
				<g>
					<rect x="211.882" y="333.632" style="fill:#93B2F7;" width="168.075" height="12.965"/>
					<g>
						<g>
							<g>
								<rect x="279.371" y="346.596" style="fill:#5B70F2;" width="12.627" height="24.884"/>
								<rect x="279.371" y="346.596" style="fill:#5B70F2;" width="12.627" height="3.43"/>
								
									<rect x="291.999" y="346.596" transform="matrix(-1 -1.224647e-16 1.224647e-16 -1 591.9998 718.0769)" style="fill:#5B70F2;" width="8.002" height="24.884"/>
							</g>
							<g>
								<rect x="251.307" y="346.596" style="fill:#5B70F2;" width="12.627" height="24.884"/>
								<rect x="251.307" y="346.596" style="fill:#5B70F2;" width="12.627" height="3.43"/>
								
									<rect x="263.935" y="346.596" transform="matrix(-1 -1.224647e-16 1.224647e-16 -1 535.8714 718.0769)" style="fill:#5B70F2;" width="8.002" height="24.884"/>
							</g>
						</g>
						<g>
							<rect x="221.907" y="346.596" style="fill:#93B2F7;" width="12.627" height="24.884"/>
							<rect x="221.907" y="346.596" style="fill:#7490F5;" width="12.627" height="3.43"/>
							
								<rect x="234.534" y="346.596" transform="matrix(-1 -1.224647e-16 1.224647e-16 -1 477.0705 718.0769)" style="fill:#7490F5;" width="8.002" height="24.884"/>
						</g>
						<g>
							<rect x="264.372" y="346.596" style="fill:#93B2F7;" width="12.627" height="24.884"/>
							<rect x="264.372" y="346.596" style="fill:#7490F5;" width="12.627" height="3.43"/>
							
								<rect x="277" y="346.596" transform="matrix(-1 -1.224647e-16 1.224647e-16 -1 562.0011 718.0769)" style="fill:#7490F5;" width="8.002" height="24.884"/>
						</g>
						<g>
							<rect x="306.837" y="346.596" style="fill:#93B2F7;" width="12.627" height="24.884"/>
							<rect x="306.837" y="346.596" style="fill:#7490F5;" width="12.627" height="3.43"/>
							
								<rect x="319.465" y="346.596" transform="matrix(-1 -1.224647e-16 1.224647e-16 -1 646.9318 718.0769)" style="fill:#7490F5;" width="8.002" height="24.884"/>
						</g>
						<g>
							<rect x="349.303" y="346.596" style="fill:#93B2F7;" width="12.627" height="24.884"/>
							<rect x="349.303" y="346.596" style="fill:#7490F5;" width="12.627" height="3.43"/>
							
								<rect x="361.93" y="346.596" transform="matrix(-1 -1.224647e-16 1.224647e-16 -1 731.8625 718.0769)" style="fill:#7490F5;" width="8.002" height="24.884"/>
						</g>
						<g>
							<g>
								<rect x="408.133" y="346.596" style="fill:#93B2F7;" width="12.628" height="24.884"/>
								<rect x="408.133" y="346.596" style="fill:#7490F5;" width="12.628" height="3.43"/>
								
									<rect x="420.761" y="346.596" transform="matrix(-1 -1.224647e-16 1.224647e-16 -1 849.524 718.0769)" style="fill:#7490F5;" width="8.002" height="24.884"/>
							</g>
							<g>
								<rect x="380.069" y="346.596" style="fill:#93B2F7;" width="12.627" height="24.884"/>
								<rect x="380.069" y="346.596" style="fill:#7490F5;" width="12.627" height="3.43"/>
								
									<rect x="392.697" y="346.596" transform="matrix(-1 -1.224647e-16 1.224647e-16 -1 793.3957 718.0769)" style="fill:#7490F5;" width="8.002" height="24.884"/>
							</g>
						</g>
					</g>
				</g>
				
					<rect x="379.957" y="333.632" transform="matrix(-1 -1.224647e-16 1.224647e-16 -1 812.3288 680.228)" style="fill:#7490F5;" width="52.415" height="12.965"/>
			</g>
		</g>
		<g style="clip-path:url(#SVGID_00000157298676540218684310000001349217370591365806_);">
			<path style="fill:#834500;" d="M425.642,365.13l-145.51,2.67c0,0,15.81-9.43,25.57-13.2c3.95-1.52,10.74-6.77,17.67-12.63
				c10.2-8.59,20.73-18.49,23.13-19.82c4.05-2.23,14.73-2.4,18.59-2.75c3.86-0.36,14.51,8.6,25.35,14.65
				c7.15,3.99,18.27,15.56,26.27,23.42C420.842,361.52,424.142,364.59,425.642,365.13z"/>
			<path style="fill:#9F5015;" d="M416.712,357.47c-8.2-3.24-28.678-16.182-30.008-17.102c-1.86-1.27,2.69,11.402-0.1,10.252
				c-2.8-1.15-11.275-8.012-14.675-10.252c-3.4-2.24-8.968-7.788-8.968-7.788s0.14,14.54-0.28,15.52
				c-0.42,0.98-6.28-10.48-6.28-10.48s-1.54-8.87-5.2-10.4c-3.06-1.29-20.98,10.32-27.83,14.75c10.2-8.59,20.73-18.49,23.13-19.82
				c4.05-2.23,14.73-2.4,18.59-2.75c3.86-0.36,14.51,8.6,25.35,14.65C397.592,338.04,408.712,349.61,416.712,357.47z"/>
		</g>
		
			<rect y="364.915" style="clip-path:url(#SVGID_00000157298676540218684310000001349217370591365806_);fill:#BD6300;" width="500" height="135.085"/>
		<g style="clip-path:url(#SVGID_00000157298676540218684310000001349217370591365806_);">
			<path style="fill:#834500;" d="M373.599,371.009c0,0-1.812-0.074-4.316-0.089c1.791,2.754,2.618,6.159,3.943,9.276
				c5.083,0.34,11.642,0.38,18.025,0.163c2.03-0.069,4.753-0.061,7.846-0.004c0.137-3.183,0.174-6.786,1.699-9.355
				C391.639,370.958,375.127,370.783,373.599,371.009z"/>
			<path style="fill:#834500;" d="M440.11,370.855c-1.091-0.554-2.025-0.793-2.025-0.793s-21.6,0.769-31.247,0.921
				c-2.439,2.713-4.351,6.147-6.11,9.406c14.44,0.335,35.46,1.613,35.46,1.613s0.073-0.018,0.176-0.045
				C436.206,377.915,437.588,374.076,440.11,370.855z"/>
			<path style="fill:#9F5015;" d="M443.448,376.043c0.424-2.71-1.646-4.33-3.337-5.188c-2.523,3.222-3.904,7.061-3.746,11.103
				C437.373,381.693,442.815,380.086,443.448,376.043z"/>
			<path style="fill:#9F5015;" d="M404.25,371.009c-0.951,0.001-2.126-0.002-3.455-0.008c-1.525,2.568-1.562,6.171-1.699,9.355
				c0.534,0.01,1.078,0.021,1.633,0.034c1.759-3.259,3.671-6.693,6.11-9.406C405.834,370.999,404.958,371.008,404.25,371.009z"/>
			<path style="fill:#834500;" d="M360.918,371.179c-0.679,0.057-1.332,0.125-1.946,0.207c0.874,1.99,1.431,3.979,2.036,5.969
				c1.273,0.427,2.518,0.814,3.697,1.424c0.887,0.459,2.614,0.817,4.886,1.087C367.505,376.362,364.248,373.57,360.918,371.179z"/>
			<path style="fill:#9F5015;" d="M355.197,374.245c1.914,1.733,3.893,2.467,5.811,3.11c-0.605-1.989-1.161-3.979-2.036-5.969
				C355.614,371.834,353.468,372.68,355.197,374.245z"/>
			<path style="fill:#9F5015;" d="M369.283,370.919c-2.472-0.015-5.617,0.03-8.365,0.26c3.33,2.391,6.587,5.183,8.674,8.686
				c1.096,0.13,2.308,0.241,3.633,0.33C371.9,377.078,371.073,373.673,369.283,370.919z"/>
		</g>
		
			<rect x="10.815" y="394" style="clip-path:url(#SVGID_00000157298676540218684310000001349217370591365806_);fill:#FFA900;" width="463" height="119.1"/>
		<path style="clip-path:url(#SVGID_00000157298676540218684310000001349217370591365806_);fill:#BD6300;" d="M269.756,429.25
			h215.755c4.142,0,7.5-3.358,7.5-7.5l0,0c0-4.142-3.358-7.5-7.5-7.5H269.756c-4.142,0-7.5,3.358-7.5,7.5l0,0
			C262.256,425.892,265.614,429.25,269.756,429.25z"/>
		<path style="clip-path:url(#SVGID_00000157298676540218684310000001349217370591365806_);fill:#D37C29;" d="M64.949,457h215.755
			c4.142,0,7.5-3.358,7.5-7.5l0,0c0-4.142-3.358-7.5-7.5-7.5H64.949c-4.142,0-7.5,3.358-7.5,7.5l0,0
			C57.449,453.642,60.807,457,64.949,457z"/>
		<path style="clip-path:url(#SVGID_00000157298676540218684310000001349217370591365806_);fill:#D37C29;" d="M309.74,457h7.518
			c4.142,0,7.5-3.358,7.5-7.5l0,0c0-4.142-3.358-7.5-7.5-7.5h-7.518c-4.142,0-7.5,3.358-7.5,7.5l0,0
			C302.24,453.642,305.598,457,309.74,457z"/>
		<path style="clip-path:url(#SVGID_00000157298676540218684310000001349217370591365806_);fill:#BD6300;" d="M237.96,429.25h7.518
			c4.142,0,7.5-3.358,7.5-7.5l0,0c0-4.142-3.358-7.5-7.5-7.5h-7.518c-4.142,0-7.5,3.358-7.5,7.5l0,0
			C230.46,425.892,233.818,429.25,237.96,429.25z"/>
		<g style="clip-path:url(#SVGID_00000157298676540218684310000001349217370591365806_);">
			<g>
				<path style="fill:#BD6300;" d="M419.12,313.84c0,0-6.88,0.78-14.92,0.59c-1.16-0.03-2.34-0.07-3.54-0.15
					c-5.67-0.34-11.5-1.26-15.62-3.33v-0.01c-2.07-1.03-3.71-2.36-4.68-4.05c0,0-0.81-8.09,2.06-8.76c2.88-0.67,4.94,0,4.94,0
					s3.69-4.85,5.34-5.84c1.64-0.99,3.93,0,3.93,0s-0.38-3.92,2.16-4.31c2.54-0.38,7.06,1.87,7.06,1.87l4.11,4.31l4.11-0.33
					l4.85,9.59l0.17,8.76L419.12,313.84z"/>
				<path style="fill:#834500;" d="M411.85,308.84l-8.88,0.31l-2.1,4.86c0,0-0.08,0.1-0.21,0.27c-5.67-0.34-11.5-1.26-15.62-3.33
					v-0.01c-0.54-2.07-2.09-4.61,0-5.78c2.09-1.16,6.96-3.73,6.96-3.73l6.79,3.73l-7.41-5.9c0,0,5.2-4.26,7.41-2.39
					c2.21,1.88,6.34,3.12,6.34,3.12l2.01-3.12l4.71,9.12V308.84z"/>
				<path style="fill:#834500;" d="M419.12,313.84c0,0-6.88,0.78-14.92,0.59c3.6-1.62,7.65-2.93,7.65-2.93s3.93,0.05,7.24,0.68
					L419.12,313.84z"/>
			</g>
			<g>
				<g>
					
						<rect x="335.977" y="272.003" transform="matrix(-0.2152 0.9766 -0.9766 -0.2152 704.0766 -15.8941)" style="fill:#FF7700;" width="44.896" height="5.897"/>
					
						<rect x="351.69" y="292.171" transform="matrix(-0.2153 0.9766 -0.9766 -0.2153 719.619 15.4717)" style="fill:#BB6000;" width="3.806" height="9.404"/>
					
						<rect x="328.564" y="316.615" transform="matrix(-0.2152 0.9766 -0.9766 -0.2152 734.952 46.4234)" style="fill:#FFFFFF;" width="40.518" height="3.801"/>
				</g>
				<path style="fill:#364395;" d="M348.235,337.425c0.846-6.638-5.739-6.226-8.14-6.967l0.857-5.895h-17.056l-3.596,22.613h17.364
					l0.759-5.218C343.285,342.441,347.646,342.048,348.235,337.425z"/>
				<g>
					
						<rect x="343.94" y="180.792" transform="matrix(0.9859 -0.1673 0.1673 0.9859 -25.5535 64.5901)" style="fill:#FF7700;" width="53.065" height="6.252"/>
					
						<rect x="394.614" y="174.493" transform="matrix(0.9859 -0.1674 0.1674 0.9859 -24.4424 68.9082)" style="fill:#BB6000;" width="4.035" height="9.969"/>
					
						<rect x="398.318" y="173.531" transform="matrix(0.9859 -0.1673 0.1673 0.9859 -23.4569 72.7259)" style="fill:#FFFFFF;" width="42.956" height="4.03"/>
				</g>
				<g>
					
						<rect x="417.161" y="220.139" transform="matrix(-0.1026 0.9947 -0.9947 -0.1026 711.3778 -194.5627)" style="fill:#FF7700;" width="52.573" height="6.905"/>
					
						<rect x="438.521" y="244.233" transform="matrix(-0.1026 0.9947 -0.9947 -0.1026 734.41 -163.0482)" style="fill:#BB6000;" width="4.457" height="11.012"/>
					
						<rect x="414.362" y="273.328" transform="matrix(-0.1026 0.9947 -0.9947 -0.1026 757.1533 -131.932)" style="fill:#FFFFFF;" width="47.447" height="4.452"/>
				</g>
				<path style="fill:#FF8E00;" d="M353.593,259.216l14.796,2.466v-3.814c0-3.631-1.337-7.135-3.755-9.844l-6.52-7.302
					L353.593,259.216z"/>
				<path style="fill:#FF8E00;" d="M334.952,222.624l1.914-34.67c0.217-3.934,3.471-7.013,7.411-7.013l0,0
					c3.37,0,6.316,2.27,7.176,5.527l3.473,13.153L334.952,222.624z"/>
				<path style="fill:#FF8E00;" d="M414.067,305.164l8.911-123.306l1.857-0.59c4.986-1.585,8.96-5.386,10.762-10.298l2.594-7.068
					c3.275-9.9,16.603-7.229,16.603,0.635l-2.645,31.273c0.263,2.553-1.172,5.052-3.588,5.918c-3.885,1.393-7.795,4.976-8.707,9.196
					l-17.769,94.24H414.067z"/>
				<path style="fill:#FF7700;" d="M323.896,324.376c0,0,0,1.992,0-16.927c0-14.229-13.331-42.523-19.126-52.962
					c-1.899-3.422-3.865-5.537-7.779-5.537h-28.685c-5.957,0-10.786,4.829-10.786,10.786v47.713l14.348,31.366
					c0,0,39.829,1.245,39.829,0C311.699,337.57,323.896,324.376,323.896,324.376z"/>
				<path style="fill:#364395;" d="M317.118,305.458c0,8.22,0,22.193,0,22.193l-2.392,0.255l-29.657,3.206V261.12
					c0-0.847,0.23-1.644,0.641-2.326c0.789-1.348,2.252-2.244,3.929-2.244h6.568c1.628,0,3.132,0.863,3.946,2.269
					C305.487,268.082,317.118,298.068,317.118,305.458z"/>
				<path style="fill:#4A60DE;" d="M314.726,307.431v20.475l-29.657,3.206V261.12c0-0.847,0.23-1.644,0.641-2.326
					c0.485-0.181,1.003-0.271,1.537-0.271h6.568c1.627,0,3.132,0.863,3.945,2.269c0.542,0.937,1.151,2.096,1.8,3.419
					c0.493,1.003,1.019,2.104,1.562,3.288c0.386,0.839,0.781,1.726,1.184,2.639c2.022,4.595,4.208,9.995,6.165,15.297
					C311.939,294.797,314.726,303.822,314.726,307.431z"/>
				<path style="fill:#D1E7FF;" d="M308.47,285.434l-23.402,23.402v-21.47l17.237-17.229
					C304.328,274.732,306.514,280.133,308.47,285.434z"/>
				<path style="fill:#D1E7FF;" d="M301.122,267.499l-16.053,16.053v-4.85l14.491-14.492
					C300.053,265.214,300.579,266.315,301.122,267.499z"/>
				<g>
					<path style="fill:#FFA900;" d="M257.522,307.445v47.329H242.52c-5.787,0-10.48-4.693-10.48-10.48v-26.369
						c0-5.787,4.693-10.48,10.48-10.48H257.522z"/>
					<path style="fill:#FF8E00;" d="M323.896,324.378v18.889c0,6.354-5.154,11.508-11.508,11.508h-32.805v-30.397H323.896z"/>
					<path style="fill:#FFA900;" d="M285.066,328.307v26.468h-27.544v-47.329h7.792c4.217,0,8.228,1.784,11.064,4.899
						c2.006,2.203,4.291,4.915,6.148,7.636c0.921,1.348,1.595,2.836,2.022,4.398C284.885,325.652,285.066,326.975,285.066,328.307z"
						/>
				</g>
				<path style="fill:#364395;" d="M279.586,261.211v35.477c0,2.014-1.282,3.732-3.074,4.381c-0.493,0.181-1.027,0.279-1.586,0.279
					h-6.576c-2.573,0-4.661-2.088-4.661-4.661v-35.477c0-0.88,0.247-1.702,0.674-2.408c0.814-1.348,2.293-2.252,3.986-2.252h6.576
					C277.498,256.55,279.586,258.638,279.586,261.211z"/>
				<path style="fill:#4A60DE;" d="M277.194,261.293v37.367c0,0.879-0.247,1.701-0.682,2.408c-0.493,0.181-1.027,0.279-1.586,0.279
					h-6.576c-0.189,0-0.37-0.008-0.551-0.033c-2.318-0.271-4.11-2.244-4.11-4.628v-35.477c0-0.88,0.247-1.702,0.674-2.408
					c0.493-0.181,1.036-0.279,1.595-0.279h8.475C275.961,258.523,277.194,259.764,277.194,261.293z"/>
				<path style="fill:#D1E7FF;" d="M277.194,270.45v21.47l-9.395,9.395c-2.318-0.271-4.11-2.244-4.11-4.628v-12.741L277.194,270.45z
					"/>
				<polygon style="fill:#D1E7FF;" points="277.194,261.778 277.194,266.628 263.689,280.133 263.689,275.283 				"/>
				<path style="fill:#364395;" d="M323.896,339.576v3.691c0,6.354-5.154,11.508-11.508,11.508H242.52
					c-5.787,0-10.48-4.693-10.48-10.48v-4.718H323.896z"/>
				<path style="fill:#FFA900;" d="M335.24,217.256l-5.843,109.175c-0.179,3.343,2.483,6.151,5.831,6.151l0,0
					c2.758,0,5.14-1.93,5.712-4.628l21.562-101.7c0.671-3.164,2.845-5.801,5.824-7.062l67.784-27.841
					c2.889-1.224,4.391-4.429,3.481-7.432l0,0c-0.909-2.999-3.93-4.831-7.01-4.252l-77.555,14.989
					C344.01,196.729,335.839,206.063,335.24,217.256z"/>
				<path style="fill:#FFA900;" d="M422.487,299.409c1.922,1.442,2.869,3.837,2.447,6.203c-1.147,6.437-3.456,19.173-4.661,24.294
					c-1.644,6.987-10.275,8.805-18.083,8.805c-7.809,0-17.42-3.874-20.218-10.038c-2.798-6.165-9.425-28.358-9.425-28.358h4.441
					l3.367,6.576c0,0,8.082,2.054,16.909,1.644c6.535-0.304,10.252-0.367,14.583-2.548c0.654-2.804,0.654-3.626,1.432-4.881
					C415.24,297.943,419.512,297.176,422.487,299.409L422.487,299.409z"/>
				<path style="fill:none;stroke:#BD6300;stroke-miterlimit:10;" d="M441.808,171.332c0-1.555,1.26-2.815,2.815-2.815
					s2.815,1.26,2.815,2.815s-1.26,2.815-2.815,2.815S441.808,172.887,441.808,171.332z"/>
				<path style="fill:none;stroke:#BD6300;stroke-miterlimit:10;" d="M432.207,185.505c0-1.099,0.891-1.991,1.991-1.991
					c1.099,0,1.991,0.891,1.991,1.991c0,1.1-0.891,1.991-1.991,1.991C433.099,187.495,432.207,186.604,432.207,185.505z"/>
				<path style="fill:none;stroke:#BD6300;stroke-miterlimit:10;" d="M360.724,255.486c0-1.099,0.891-1.991,1.991-1.991
					s1.991,0.891,1.991,1.991c0,1.099-0.891,1.991-1.991,1.991S360.724,256.585,360.724,255.486z"/>
				<path style="fill:none;stroke:#BD6300;stroke-miterlimit:10;" d="M416.932,303.42c0-1.1,0.891-1.991,1.991-1.991
					s1.991,0.891,1.991,1.991c0,1.099-0.891,1.991-1.991,1.991S416.932,304.519,416.932,303.42z"/>
				<path style="fill:none;stroke:#BD6300;stroke-miterlimit:10;" d="M343.285,209.598c0-1.733,1.405-3.138,3.138-3.138
					s3.138,1.405,3.138,3.138c0,1.733-1.405,3.138-3.138,3.138S343.285,211.332,343.285,209.598z"/>
				<path style="fill:#FFC700;" d="M438.222,298.69c-0.399-0.953-1.005-1.84-1.797-2.569c-0.172-0.158-0.356-0.29-0.56-0.399
					l-13.86-7.426c-1.344-0.72-2.988-0.156-3.672,1.26c-0.684,1.416-0.148,3.148,1.196,3.868v0l13.463,7.213
					c0.096,0.119,0.177,0.243,0.234,0.378c0.086,0.205,0.131,0.431,0.131,0.66c0,0.244-0.051,0.487-0.149,0.703
					c-0.099,0.216-0.237,0.408-0.444,0.579l-13.646,10.884c-1.202,0.959-1.439,2.763-0.529,4.03c0.91,1.267,2.623,1.516,3.825,0.557
					l13.676-10.909l0.032-0.026c0.885-0.727,1.568-1.647,2.019-2.649c0.451-1.003,0.676-2.087,0.676-3.17
					C438.819,300.663,438.622,299.644,438.222,298.69z"/>
				<path style="fill:none;stroke:#BD6300;stroke-miterlimit:10;" d="M419.694,291.067c0-0.673,0.546-1.219,1.219-1.219
					c0.673,0,1.219,0.546,1.219,1.219c0,0.673-0.546,1.219-1.219,1.219C420.24,292.286,419.694,291.741,419.694,291.067z"/>
				<circle style="fill:none;stroke:#BD6300;stroke-miterlimit:10;" cx="346.424" cy="188" r="1.219"/>
				<path style="fill:none;stroke:#BD6300;stroke-miterlimit:10;" d="M434.745,301.429c0-0.797,0.646-1.444,1.444-1.444
					c0.797,0,1.444,0.646,1.444,1.444c0,0.797-0.646,1.444-1.444,1.444C435.392,302.873,434.745,302.227,434.745,301.429z"/>
				<path style="fill:none;stroke:#BD6300;stroke-miterlimit:10;" d="M419.47,315.997c0-0.797,0.646-1.444,1.444-1.444
					c0.797,0,1.444,0.646,1.444,1.444c0,0.797-0.646,1.444-1.444,1.444C420.116,317.441,419.47,316.794,419.47,315.997z"/>
				<path style="fill:#729BF5;" d="M343.388,336.628c0-0.797,0.646-1.444,1.443-1.444c0.797,0,1.444,0.646,1.444,1.444
					c0,0.797-0.646,1.444-1.444,1.444C344.034,338.072,343.388,337.426,343.388,336.628z"/>
				<path style="fill:none;stroke:#434FDA;stroke-width:2;stroke-miterlimit:10;" d="M303.963,258.553h17.878
					c2.014,0,3.647,1.633,3.647,3.647v17.916"/>
				<path style="fill:#434FDA;" d="M323.082,289.259h0.905c2.589,0,4.688-2.099,4.688-4.688v-13.008
					c0-2.589-2.099-4.688-4.688-4.688h-0.905V289.259z"/>
				<g>
					
						<line style="fill:none;stroke:#434FDA;stroke-width:2;stroke-miterlimit:10;" x1="263.317" y1="245.194" x2="299.589" y2="245.194"/>
					
						<line style="fill:none;stroke:#434FDA;stroke-width:2;stroke-miterlimit:10;" x1="270.137" y1="245.194" x2="270.137" y2="248.95"/>
					
						<line style="fill:none;stroke:#434FDA;stroke-width:2;stroke-miterlimit:10;" x1="293.175" y1="245.194" x2="293.175" y2="248.95"/>
				</g>
				<g>
					<path style="fill:#434FDA;" d="M288.551,238.083c0,3.048,2.471,5.519,5.519,5.519v-11.038
						C291.022,232.564,288.551,235.035,288.551,238.083z"/>
					<rect x="294.07" y="232.564" style="fill:#D1E7FF;" width="4.036" height="11.038"/>
				</g>
				<rect x="255.878" y="307.445" style="fill:#FF8E00;" width="1.644" height="32.131"/>
				<rect x="232.04" y="317.925" style="fill:#FF7700;" width="10.275" height="2.128"/>
				<rect x="232.04" y="322.151" style="fill:#FF7700;" width="10.275" height="2.128"/>
				<rect x="232.04" y="326.376" style="fill:#FF7700;" width="10.275" height="2.128"/>
				<rect x="268.207" y="354.775" style="fill:#293789;" width="25.863" height="3.596"/>
				<path style="fill:#293789;" d="M233.992,382.003c-6.062,0-10.994-4.932-10.994-10.994c0-6.062,4.932-10.994,10.994-10.994
					h99.793c6.062,0,10.994,4.932,10.994,10.994c0,6.062-4.932,10.994-10.994,10.994H233.992z"/>
				<path style="fill:#374B8E;" d="M227.879,371.509h0.822c0.003-1.596,1.294-2.887,2.89-2.89c0.801,0.001,1.518,0.322,2.044,0.846
					c0.524,0.526,0.846,1.243,0.847,2.043c0,0.801-0.322,1.518-0.847,2.043c-0.526,0.524-1.243,0.846-2.044,0.846
					c-1.596-0.003-2.887-1.294-2.89-2.89H227.879h-0.822c0,2.504,2.029,4.533,4.534,4.534c2.504-0.001,4.534-2.029,4.535-4.534
					c-0.001-2.505-2.03-4.533-4.535-4.534c-2.504,0-4.533,2.029-4.534,4.534H227.879z"/>
				<path style="fill:#374B8E;" d="M245.796,367.797h0.822c0.001-0.801,0.322-1.518,0.846-2.044
					c0.526-0.524,1.243-0.846,2.043-0.847c0.801,0,1.518,0.322,2.043,0.847c0.524,0.526,0.846,1.243,0.846,2.044
					c-0.003,1.596-1.294,2.887-2.89,2.89c-1.596-0.003-2.887-1.294-2.89-2.89H245.796h-0.822c0.001,2.504,2.029,4.533,4.534,4.534
					c2.504-0.001,4.533-2.029,4.534-4.534c-0.001-2.504-2.029-4.534-4.534-4.534c-2.505,0-4.533,2.03-4.534,4.534H245.796z"/>
				<path style="fill:#374B8E;" d="M258.423,367.797h0.822c0-0.801,0.322-1.518,0.846-2.044c0.526-0.524,1.243-0.846,2.043-0.847
					c0.801,0,1.518,0.322,2.043,0.847c0.524,0.526,0.846,1.243,0.846,2.044c-0.003,1.596-1.294,2.887-2.89,2.89
					c-1.596-0.003-2.887-1.294-2.89-2.89H258.423h-0.822c0,2.504,2.029,4.533,4.534,4.534c2.504-0.001,4.533-2.029,4.534-4.534
					c0-2.504-2.029-4.534-4.534-4.534c-2.505,0-4.533,2.03-4.534,4.534H258.423z"/>
				<path style="fill:#374B8E;" d="M238.603,374.245h0.822c0.003-1.596,1.294-2.887,2.89-2.89c1.596,0.003,2.887,1.294,2.89,2.89
					c-0.003,1.596-1.294,2.887-2.89,2.89c-1.596-0.003-2.887-1.294-2.89-2.89H238.603h-0.822c0,2.504,2.029,4.533,4.534,4.534
					c2.504,0,4.533-2.029,4.534-4.534c-0.001-2.504-2.029-4.533-4.534-4.534c-2.504,0-4.533,2.029-4.534,4.534H238.603z"/>
				<path style="fill:#374B8E;" d="M250.999,374.245h0.822c0.001-0.801,0.322-1.518,0.847-2.043
					c0.526-0.524,1.243-0.846,2.044-0.846c0.8,0,1.518,0.322,2.043,0.846c0.524,0.525,0.846,1.243,0.847,2.043
					c-0.001,0.801-0.322,1.518-0.847,2.043c-0.526,0.524-1.243,0.846-2.043,0.846c-0.801,0-1.518-0.322-2.044-0.846
					c-0.524-0.526-0.846-1.243-0.847-2.043H250.999h-0.822c0.001,2.505,2.03,4.533,4.535,4.534c2.504-0.001,4.533-2.029,4.534-4.534
					c-0.001-2.505-2.03-4.533-4.534-4.534c-2.504,0-4.534,2.029-4.535,4.534H250.999z"/>
				<path style="fill:#374B8E;" d="M263.395,374.245h0.822c0.003-1.596,1.294-2.887,2.89-2.89c1.596,0.003,2.887,1.294,2.89,2.89
					c-0.003,1.596-1.294,2.887-2.89,2.89c-1.596-0.003-2.887-1.294-2.89-2.89H263.395h-0.822c0,2.504,2.029,4.533,4.534,4.534
					c2.504,0,4.533-2.029,4.534-4.534c0-2.504-2.029-4.533-4.534-4.534c-2.504,0-4.533,2.029-4.534,4.534H263.395z"/>
				<path style="fill:#374B8E;" d="M341.07,371.509h0.822c-0.001-2.505-2.03-4.533-4.534-4.534c-2.504,0-4.533,2.029-4.534,4.534
					c0,2.504,2.029,4.533,4.534,4.534c2.504-0.001,4.534-2.029,4.534-4.534H341.07h-0.822c0,0.801-0.322,1.518-0.847,2.043
					c-0.526,0.524-1.243,0.846-2.044,0.846c-1.596-0.003-2.887-1.294-2.89-2.89c0.003-1.596,1.294-2.887,2.89-2.89
					c0.801,0.001,1.518,0.322,2.044,0.846c0.524,0.526,0.846,1.243,0.847,2.043H341.07z"/>
				<path style="fill:#374B8E;" d="M323.154,367.797h0.822c-0.001-2.504-2.03-4.534-4.534-4.534
					c-2.504,0.001-4.534,2.03-4.534,4.534c0,2.505,2.03,4.533,4.534,4.534c2.504-0.001,4.533-2.029,4.534-4.534H323.154h-0.822
					c0,0.801-0.322,1.518-0.847,2.043c-0.526,0.524-1.243,0.846-2.043,0.846c-0.801,0-1.518-0.322-2.044-0.846
					c-0.524-0.526-0.846-1.243-0.847-2.043c0-0.801,0.322-1.518,0.847-2.044c0.526-0.524,1.243-0.846,2.044-0.847
					c0.8,0,1.517,0.322,2.043,0.847c0.524,0.526,0.846,1.243,0.847,2.044H323.154z"/>
				<path style="fill:#374B8E;" d="M310.526,367.797h0.822c-0.001-2.504-2.03-4.534-4.535-4.534c-2.505,0-4.533,2.03-4.534,4.534
					c0,2.504,2.029,4.533,4.534,4.534c2.504-0.001,4.534-2.029,4.535-4.534H310.526h-0.822c0,0.801-0.322,1.518-0.847,2.043
					c-0.526,0.524-1.243,0.846-2.044,0.846c-1.596-0.003-2.887-1.294-2.89-2.89c0-0.801,0.322-1.518,0.846-2.044
					c0.526-0.524,1.243-0.846,2.043-0.847c0.801,0,1.518,0.322,2.044,0.847c0.524,0.526,0.846,1.243,0.847,2.044H310.526z"/>
				<path style="fill:#374B8E;" d="M330.346,374.245h0.822c-0.001-2.505-2.03-4.533-4.534-4.534c-2.504,0-4.534,2.029-4.535,4.534
					c0.001,2.505,2.03,4.533,4.535,4.534c2.504-0.001,4.533-2.029,4.534-4.534H330.346h-0.822c-0.001,0.801-0.322,1.518-0.847,2.043
					c-0.526,0.524-1.243,0.846-2.043,0.846c-0.801,0-1.518-0.322-2.044-0.846c-0.524-0.526-0.846-1.243-0.847-2.043
					c0-0.801,0.322-1.518,0.847-2.043c0.526-0.524,1.243-0.846,2.044-0.846c0.8,0,1.517,0.322,2.043,0.846
					c0.524,0.525,0.846,1.243,0.847,2.043H330.346z"/>
				<path style="fill:#374B8E;" d="M317.95,374.245h0.822c0-2.504-2.029-4.533-4.534-4.534c-2.504,0-4.533,2.029-4.534,4.534
					c0,2.504,2.029,4.533,4.534,4.534c2.504,0,4.533-2.029,4.534-4.534H317.95h-0.822c-0.003,1.596-1.294,2.887-2.89,2.89
					c-1.596-0.003-2.887-1.294-2.89-2.89c0.003-1.596,1.294-2.887,2.89-2.89c1.596,0.003,2.887,1.294,2.89,2.89H317.95z"/>
				<path style="fill:#374B8E;" d="M305.554,374.245h0.822c-0.001-2.505-2.03-4.533-4.534-4.534c-2.504,0-4.533,2.029-4.534,4.534
					c0.001,2.505,2.03,4.533,4.534,4.534c2.504,0,4.534-2.029,4.534-4.534H305.554h-0.822c0,0.801-0.322,1.518-0.847,2.043
					c-0.526,0.524-1.243,0.846-2.044,0.846c-0.8,0-1.518-0.322-2.043-0.846c-0.524-0.526-0.846-1.243-0.847-2.043
					c0-0.801,0.322-1.518,0.847-2.043c0.526-0.524,1.243-0.846,2.043-0.846c0.801,0,1.518,0.322,2.044,0.846
					c0.524,0.526,0.846,1.243,0.847,2.043H305.554z"/>
				<path style="fill:#4A5CAA;" d="M333.786,361.659c5.156,0,9.35,4.194,9.35,9.35c0,5.156-4.194,9.35-9.35,9.35h-99.793
					c-5.156,0-9.35-4.194-9.35-9.35c0-5.156,4.194-9.35,9.35-9.35H333.786 M333.786,358.371h-99.793
					c-6.98,0-12.638,5.658-12.638,12.638c0,6.98,5.658,12.638,12.638,12.638h99.793c6.98,0,12.638-5.658,12.638-12.638
					C346.424,364.029,340.765,358.371,333.786,358.371z"/>
				<rect x="274.335" y="363.803" style="fill:#FFA900;" width="19.674" height="14.412"/>
				<rect x="233.402" y="365.131" style="fill:#FF8E00;" width="3.802" height="12.755"/>
				<rect x="330.574" y="365.131" style="fill:#FF8E00;" width="3.802" height="12.755"/>
				<rect x="240.132" y="367.772" style="fill:#FF8E00;" width="34.203" height="6.473"/>
				<rect x="296.371" y="367.772" style="fill:#FF8E00;" width="34.203" height="6.473"/>
			</g>
			<path style="fill:#FFED00;" d="M235.267,331.887h-3.227v6.185h3.227c1.634,0,2.958-1.324,2.958-2.958v-0.268
				C238.225,333.212,236.901,331.887,235.267,331.887z"/>
		</g>
		<g style="clip-path:url(#SVGID_00000157298676540218684310000001349217370591365806_);">
			<path style="fill:#313384;" d="M120.751,370.062c0,0-2.742,35.538,0,57.038c2.742,21.5,7.22,27.5,7.22,27.5
				s2.716,58.5,4.119,58.5c1.403,0,54.33,0,54.33,0s1.26-136.737,0-136.457C185.16,376.924,120.751,370.062,120.751,370.062z"/>
			<path style="fill:#37418E;" d="M110.129,514.1c14.44,0,29.925,0,29.925,0s7.982-50.781,13.923-90.386
				c-10.83,5.148-25.394,2.807-37.227,4.286C115.139,456.998,112.245,485.354,110.129,514.1z"/>
			<path style="fill:#313384;" d="M160.246,377.643c-1.302,0.281-64.695-6.581-64.695-6.581S87.55,406.6,87.11,428.1
				c-0.439,21.5,3.151,27.5,3.151,27.5s-5.94,58.5-4.537,58.5c0.644,0,12.149,0,24.405,0c2.116-28.746,5.01-57.102,6.621-86.1
				c11.833-1.479,26.396,0.862,37.227-4.286C157.785,398.328,160.754,377.534,160.246,377.643z"/>
		</g>
		<g style="clip-path:url(#SVGID_00000157298676540218684310000001349217370591365806_);">
			<rect x="348.267" y="362.558" style="fill:#FFFFFF;" width="4.62" height="45.764"/>
			<rect x="348.267" y="362.558" style="fill:#D1E7FF;" width="4.62" height="6.351"/>
			<rect x="420.488" y="362.558" style="fill:#FFFFFF;" width="4.62" height="45.764"/>
			<rect x="420.488" y="362.558" style="fill:#D1E7FF;" width="4.62" height="6.351"/>
			<g>
				<g>
					<g>
						<rect x="348.66" y="344.413" style="fill:#D1E7FF;" width="3.835" height="8.943"/>
						<g>
							<circle style="fill:#FFFFFF;" cx="350.577" cy="342.72" r="6.38"/>
							<path style="fill:#FFA900;" d="M355.197,342.72c0,2.552-2.069,4.62-4.62,4.62c-2.552,0-4.62-2.068-4.62-4.62
								c0-2.552,2.069-4.62,4.62-4.62C353.129,338.1,355.197,340.168,355.197,342.72z"/>
						</g>
					</g>
					<g>
						<rect x="420.88" y="344.413" style="fill:#D1E7FF;" width="3.835" height="8.943"/>
						<g>
							<circle style="fill:#FFFFFF;" cx="422.798" cy="342.72" r="6.38"/>
							<path style="fill:#FFA900;" d="M427.418,342.72c0,2.552-2.068,4.62-4.62,4.62c-2.552,0-4.62-2.068-4.62-4.62
								c0-2.552,2.069-4.62,4.62-4.62C425.349,338.1,427.418,340.168,427.418,342.72z"/>
						</g>
					</g>
				</g>
				<g>
					<rect x="332.695" y="350.837" style="fill:#FFFFFF;" width="107.984" height="12.716"/>
					<polygon style="fill:#FF7700;" points="345.238,350.62 338.967,350.62 332.695,363.553 338.967,363.553 					"/>
					<polygon style="fill:#FF7700;" points="358.872,350.62 352.601,350.62 346.33,363.553 352.601,363.553 					"/>
					<polygon style="fill:#FF7700;" points="372.507,350.62 366.236,350.62 359.964,363.553 366.236,363.553 					"/>
					<polygon style="fill:#FF7700;" points="386.141,350.62 379.87,350.62 373.599,363.553 379.87,363.553 					"/>
					<polygon style="fill:#FF7700;" points="399.776,350.62 393.505,350.62 387.234,363.553 393.505,363.553 					"/>
					<polygon style="fill:#FF7700;" points="413.41,350.62 407.139,350.62 400.868,363.553 407.139,363.553 					"/>
					<polygon style="fill:#FF7700;" points="427.045,350.62 420.774,350.62 414.503,363.553 420.774,363.553 					"/>
					<polygon style="fill:#FF7700;" points="440.68,350.62 434.408,350.62 428.137,363.553 434.408,363.553 					"/>
				</g>
			</g>
			<rect x="342.318" y="404.487" style="fill:#D1E7FF;" width="16.519" height="3.835"/>
			<rect x="414.538" y="404.487" style="fill:#D1E7FF;" width="16.519" height="3.835"/>
		</g>
	</g>
	<g>
		<rect x="309.4" y="34.493" style="fill:#BD6300;" width="25.286" height="5.76"/>
		<rect x="306.096" y="40.253" style="fill:#FF9A1D;" width="31.894" height="7.264"/>
		<polygon style="fill:#BD6300;" points="322.043,47.517 306.096,47.517 315.101,55.655 322.043,55.655 328.985,55.655 
			337.99,47.517 		"/>
		<rect x="93.895" y="27.792" style="fill:#729BF5;" width="11.35" height="43.668"/>
		<rect x="106.984" y="27.792" style="fill:#729BF5;" width="11.35" height="43.668"/>
		<rect x="120.072" y="27.792" style="fill:#729BF5;" width="11.35" height="43.668"/>
		<polygon style="fill:#FF8E00;" points="191.282,141.972 184.495,135.185 191.282,128.398 188.842,125.957 182.055,132.744 
			175.268,125.957 172.827,128.398 179.614,135.185 172.827,141.972 175.268,144.412 182.055,137.625 188.842,144.412 		"/>
		<polygon style="fill:#FF8E00;" points="191.282,128.398 184.495,121.611 191.282,114.824 188.842,112.383 182.055,119.17 
			175.268,112.383 172.827,114.824 179.614,121.611 172.827,128.398 175.268,130.838 182.055,124.051 188.842,130.838 		"/>
		<rect x="171.489" y="110.663" style="fill:#FFA900;" width="4.188" height="36.481"/>
		<rect x="188.432" y="110.663" style="fill:#FFA900;" width="4.188" height="36.481"/>
		<rect x="169.889" y="107.203" style="fill:#FFC200;" width="6.675" height="4.45"/>
		<rect x="187.189" y="107.203" style="fill:#FFC200;" width="6.675" height="4.45"/>
		<rect x="176.564" y="107.698" style="fill:#FFA900;" width="10.624" height="3.46"/>
		<polygon style="fill:#FF8E00;" points="191.282,180.077 184.495,173.29 191.282,166.502 188.842,164.063 182.055,170.85 
			175.268,164.062 172.827,166.502 179.614,173.29 172.827,180.077 175.268,182.518 182.055,175.73 188.842,182.518 		"/>
		<polygon style="fill:#FF8E00;" points="191.282,166.502 184.495,159.715 191.282,152.928 188.842,150.488 182.055,157.275 
			175.268,150.488 172.827,152.928 179.614,159.715 172.827,166.502 175.268,168.943 182.055,162.156 188.842,168.943 		"/>
		<rect x="171.489" y="148.768" style="fill:#FFA900;" width="4.188" height="36.48"/>
		<rect x="188.432" y="148.768" style="fill:#FFA900;" width="4.188" height="36.48"/>
		<rect x="169.889" y="145.308" style="fill:#FFC200;" width="6.675" height="4.45"/>
		<rect x="187.189" y="145.308" style="fill:#FFC200;" width="6.675" height="4.45"/>
		<rect x="176.564" y="145.803" style="fill:#FFA900;" width="10.624" height="3.46"/>
		<polygon style="fill:#FF8E00;" points="191.282,218.182 184.495,211.395 191.282,204.608 188.842,202.167 182.055,208.954 
			175.268,202.167 172.827,204.608 179.614,211.395 172.827,218.182 175.268,220.622 182.055,213.835 188.842,220.622 		"/>
		<polygon style="fill:#FF8E00;" points="191.282,204.608 184.495,197.821 191.282,191.034 188.842,188.593 182.055,195.38 
			175.268,188.593 172.827,191.034 179.614,197.821 172.827,204.608 175.268,207.048 182.055,200.261 188.842,207.048 		"/>
		<rect x="171.489" y="186.873" style="fill:#FFA900;" width="4.188" height="36.481"/>
		<rect x="188.432" y="186.873" style="fill:#FFA900;" width="4.188" height="36.481"/>
		<rect x="169.889" y="183.413" style="fill:#FFC200;" width="6.675" height="4.45"/>
		<rect x="187.189" y="183.413" style="fill:#FFC200;" width="6.675" height="4.45"/>
		<rect x="176.564" y="183.908" style="fill:#FFA900;" width="10.624" height="3.46"/>
		<polygon style="fill:#FF8E00;" points="191.282,256.287 184.495,249.5 191.282,242.712 188.842,240.273 182.055,247.06 
			175.268,240.272 172.827,242.712 179.614,249.5 172.827,256.287 175.268,258.727 182.055,251.94 188.842,258.728 		"/>
		<polygon style="fill:#FF8E00;" points="191.282,242.712 184.495,235.925 191.282,229.138 188.842,226.698 182.055,233.485 
			175.268,226.698 172.827,229.138 179.614,235.925 172.827,242.712 175.268,245.153 182.055,238.366 188.842,245.153 		"/>
		<rect x="171.489" y="224.978" style="fill:#FFA900;" width="4.188" height="36.481"/>
		<rect x="188.432" y="224.978" style="fill:#FFA900;" width="4.188" height="36.481"/>
		<rect x="169.889" y="221.518" style="fill:#FFC200;" width="6.675" height="4.45"/>
		<rect x="187.189" y="221.518" style="fill:#FFC200;" width="6.675" height="4.45"/>
		<rect x="176.564" y="222.013" style="fill:#FFA900;" width="10.624" height="3.46"/>
		<polygon style="fill:#FF8E00;" points="191.282,294.392 184.495,287.605 191.282,280.818 188.842,278.377 182.055,285.164 
			175.268,278.377 172.827,280.818 179.614,287.605 172.827,294.392 175.268,296.832 182.055,290.046 188.842,296.832 		"/>
		<polygon style="fill:#FF8E00;" points="191.282,280.818 184.495,274.031 191.282,267.244 188.842,264.803 182.055,271.59 
			175.268,264.803 172.827,267.244 179.614,274.031 172.827,280.818 175.268,283.258 182.055,276.471 188.842,283.258 		"/>
		<rect x="171.489" y="263.083" style="fill:#FFA900;" width="4.188" height="36.481"/>
		<rect x="188.432" y="263.083" style="fill:#FFA900;" width="4.188" height="36.481"/>
		<rect x="169.889" y="259.623" style="fill:#FFC200;" width="6.675" height="4.45"/>
		<rect x="187.189" y="259.623" style="fill:#FFC200;" width="6.675" height="4.45"/>
		<rect x="176.564" y="260.118" style="fill:#FFA900;" width="10.624" height="3.46"/>
		<polygon style="fill:#FF8E00;" points="191.282,332.497 184.495,325.71 191.282,318.923 188.842,316.482 182.055,323.27 
			175.268,316.482 172.827,318.923 179.614,325.71 172.827,332.497 175.268,334.937 182.055,328.15 188.842,334.938 		"/>
		<polygon style="fill:#FF8E00;" points="191.282,318.923 184.495,312.135 191.282,305.348 188.842,302.908 182.055,309.695 
			175.268,302.908 172.827,305.348 179.614,312.135 172.827,318.923 175.268,321.363 182.055,314.576 188.842,321.363 		"/>
		<rect x="171.489" y="301.188" style="fill:#FFA900;" width="4.188" height="36.481"/>
		<rect x="188.432" y="301.188" style="fill:#FFA900;" width="4.188" height="36.481"/>
		<rect x="169.889" y="297.728" style="fill:#FFC200;" width="6.675" height="4.45"/>
		<rect x="187.189" y="297.728" style="fill:#FFC200;" width="6.675" height="4.45"/>
		<rect x="176.564" y="298.223" style="fill:#FFA900;" width="10.624" height="3.46"/>
		<polygon style="fill:#FF8E00;" points="191.282,370.602 184.495,363.815 191.282,357.028 188.842,354.587 182.055,361.375 
			175.268,354.587 172.827,357.028 179.614,363.815 172.827,370.602 175.268,373.043 182.055,366.255 188.842,373.043 		"/>
		<polygon style="fill:#FF8E00;" points="191.282,357.028 184.495,350.241 191.282,343.454 188.842,341.013 182.055,347.8 
			175.268,341.013 172.827,343.454 179.614,350.241 172.827,357.028 175.268,359.469 182.055,352.681 188.842,359.469 		"/>
		<rect x="171.489" y="339.293" style="fill:#FFA900;" width="4.188" height="36.481"/>
		<rect x="188.432" y="339.293" style="fill:#FFA900;" width="4.188" height="36.481"/>
		<rect x="169.889" y="335.833" style="fill:#FFC200;" width="6.675" height="4.45"/>
		<rect x="187.189" y="335.833" style="fill:#FFC200;" width="6.675" height="4.45"/>
		<rect x="176.564" y="336.328" style="fill:#FFA900;" width="10.624" height="3.46"/>
		<rect x="166.715" y="103.344" style="fill:#FFC200;" width="30.192" height="4.354"/>
		<rect x="174.394" y="99.707" style="fill:#FFA900;" width="14.834" height="3.636"/>
		<rect x="172.154" y="96.217" style="fill:#293789;" width="19.801" height="3.49"/>
		<rect x="172.154" y="91.505" style="fill:#293789;" width="19.801" height="3.49"/>
		<rect x="170.245" y="93.774" style="fill:#2B468E;" width="23.618" height="2.443"/>
		<rect x="151.623" y="89.847" style="fill:#FFC200;" width="56.325" height="2.007"/>
		<rect x="168.333" y="53.072" style="fill:#FF9A1D;" width="12.216" height="36.775"/>
		<path style="fill:#FFC200;" d="M207.949,89.847h-27.399V53.072h17.343c2.697,0,5.157,1.501,6.431,3.879
			C208.568,64.873,211.709,79.68,207.949,89.847z"/>
		<path style="fill:#2B468E;" d="M188.432,59.641v24.287c0,1.293,1.048,2.341,2.342,2.341h13.301c1.222,0,2.235-0.938,2.334-2.156
			c0.206-2.54,0.432-6.765-0.03-9.537c-0.51-3.058-1.299-8.609-3.114-13.027c-1.055-2.568-3.548-4.25-6.324-4.25h-6.167
			C189.48,57.3,188.432,58.348,188.432,59.641z"/>
		<path style="fill:#2B468E;" d="M183.047,64.886h2.269c0.548,0,0.993-0.444,0.993-0.992v-5.602c0-0.548-0.444-0.993-0.993-0.993
			h-2.269c-0.548,0-0.993,0.444-0.993,0.993v5.602C182.055,64.442,182.499,64.886,183.047,64.886z"/>
		<path style="fill:#FFC200;" d="M180.549,75.712h-23.778c-2.386,0.001-4.319,1.933-4.319,4.319v9.816h1.396v-9.816
			c0-0.809,0.326-1.535,0.856-2.066c0.531-0.53,1.257-0.855,2.067-0.856h1.614v12.739h1.396V77.108h4.363v12.739h1.396V77.108h4.363
			v12.739h1.396V77.108h9.249V75.712z"/>
		<polyline style="fill:#FFC200;" points="175.663,76.41 175.663,89.847 177.059,89.847 177.059,76.41 		"/>
		<rect x="164.319" y="41.942" style="fill:#FFC200;" width="42.329" height="11.13"/>
		<polygon style="fill:#FFC200;" points="205.601,38.125 204.205,38.125 204.205,44.861 460.56,44.861 444.553,29.057 
			226.963,29.057 204.205,37.139 204.205,38.125 205.601,38.125 206.069,39.44 227.444,31.85 443.407,31.85 453.757,42.068 
			206.998,42.068 206.998,38.125 205.601,38.125 206.069,39.44 		"/>
		<polygon style="fill:#FFC200;" points="165.526,48.805 166.922,48.805 166.922,42.068 88.334,42.068 88.334,57.872 
			144.165,57.872 166.922,49.791 166.922,48.805 165.526,48.805 165.059,47.489 143.683,55.079 91.126,55.079 91.126,44.861 
			164.13,44.861 164.13,48.805 165.526,48.805 165.059,47.489 		"/>
		<polyline style="fill:#FFC200;" points="144.891,55.469 131.343,42.458 129.409,44.472 142.957,57.483 		"/>
		<polyline style="fill:#FFC200;" points="117.794,57.483 131.343,44.472 129.409,42.458 115.86,55.469 		"/>
		<polyline style="fill:#FFC200;" points="131.772,56.476 131.772,43.465 128.98,43.465 128.98,56.476 		"/>
		<polyline style="fill:#FFC200;" points="118.223,56.476 118.223,43.465 115.431,43.465 115.431,56.476 		"/>
		<polyline style="fill:#FFC200;" points="117.794,55.469 104.246,42.458 102.311,44.472 115.86,57.483 		"/>
		<polyline style="fill:#FFC200;" points="90.697,57.483 104.246,44.472 102.311,42.458 88.763,55.469 		"/>
		<polyline style="fill:#FFC200;" points="104.675,56.476 104.675,43.465 101.882,43.465 101.882,56.476 		"/>
		<polyline style="fill:#FFC200;" points="91.126,56.476 91.126,43.465 88.334,43.465 88.334,56.476 		"/>
		<polyline style="fill:#FFC200;" points="155.785,51.601 146.264,42.458 144.33,44.472 153.851,53.615 		"/>
		<polyline style="fill:#FFC200;" points="226.236,31.461 239.785,44.472 241.719,42.458 228.17,29.447 		"/>
		<polyline style="fill:#FFC200;" points="253.333,29.447 239.785,42.458 241.719,44.472 255.267,31.461 		"/>
		<polyline style="fill:#FFC200;" points="239.355,30.454 239.355,43.465 242.148,43.465 242.148,30.454 		"/>
		<polyline style="fill:#FFC200;" points="252.904,30.454 252.904,43.465 255.696,43.465 255.696,30.454 		"/>
		<polyline style="fill:#FFC200;" points="253.333,31.461 266.882,44.472 268.816,42.458 255.267,29.447 		"/>
		<polyline style="fill:#FFC200;" points="280.43,29.447 266.882,42.458 268.816,44.472 282.364,31.461 		"/>
		<polyline style="fill:#FFC200;" points="266.453,30.454 266.453,43.465 269.245,43.465 269.245,30.454 		"/>
		<polyline style="fill:#FFC200;" points="280.001,30.454 280.001,43.465 282.793,43.465 282.793,30.454 		"/>
		<polyline style="fill:#FFC200;" points="280.43,31.461 293.979,44.472 295.913,42.458 282.364,29.447 		"/>
		<polyline style="fill:#FFC200;" points="307.527,29.447 293.979,42.458 295.913,44.472 309.461,31.461 		"/>
		<polyline style="fill:#FFC200;" points="293.55,30.454 293.55,43.465 296.342,43.465 296.342,30.454 		"/>
		<polyline style="fill:#FFC200;" points="307.098,30.454 307.098,43.465 309.89,43.465 309.89,30.454 		"/>
		<polyline style="fill:#FFC200;" points="307.527,31.461 321.076,44.472 323.01,42.458 309.461,29.447 		"/>
		<polyline style="fill:#FFC200;" points="334.624,29.447 321.076,42.458 323.01,44.472 336.558,31.461 		"/>
		<polyline style="fill:#FFC200;" points="320.647,30.454 320.647,43.465 323.439,43.465 323.439,30.454 		"/>
		<polyline style="fill:#FFC200;" points="334.195,30.454 334.195,43.465 336.987,43.465 336.987,30.454 		"/>
		<polyline style="fill:#FFC200;" points="334.624,31.461 348.173,44.472 350.107,42.458 336.558,29.447 		"/>
		<polyline style="fill:#FFC200;" points="361.721,29.447 348.173,42.458 350.107,44.472 363.656,31.461 		"/>
		<polyline style="fill:#FFC200;" points="347.744,30.454 347.744,43.465 350.536,43.465 350.536,30.454 		"/>
		<polyline style="fill:#FFC200;" points="361.292,30.454 361.292,43.465 364.085,43.465 364.085,30.454 		"/>
		<polyline style="fill:#FFC200;" points="361.721,31.461 375.27,44.472 377.204,42.458 363.656,29.447 		"/>
		<polyline style="fill:#FFC200;" points="388.819,29.447 375.27,42.458 377.204,44.472 390.753,31.461 		"/>
		<polyline style="fill:#FFC200;" points="374.841,30.454 374.841,43.465 377.634,43.465 377.634,30.454 		"/>
		<polyline style="fill:#FFC200;" points="388.39,30.454 388.39,43.465 391.182,43.465 391.182,30.454 		"/>
		<polyline style="fill:#FFC200;" points="388.819,31.461 402.367,44.472 404.301,42.458 390.753,29.447 		"/>
		<polyline style="fill:#FFC200;" points="415.916,29.447 402.367,42.458 404.301,44.472 417.85,31.461 		"/>
		<polyline style="fill:#FFC200;" points="401.938,30.454 401.938,43.465 404.73,43.465 404.73,30.454 		"/>
		<polyline style="fill:#FFC200;" points="415.487,30.454 415.487,43.465 418.279,43.465 418.279,30.454 		"/>
		<polyline style="fill:#FFC200;" points="415.916,31.461 429.464,44.472 431.398,42.458 417.85,29.447 		"/>
		<polyline style="fill:#FFC200;" points="443.013,29.447 429.464,42.458 431.398,44.472 444.947,31.461 		"/>
		<polyline style="fill:#FFC200;" points="429.035,30.454 429.035,43.465 431.827,43.465 431.827,30.454 		"/>
		<polyline style="fill:#FFC200;" points="442.584,30.454 442.584,43.465 445.376,43.465 445.376,30.454 		"/>
		<polyline style="fill:#2B468E;" points="316.043,55.959 316.043,195.136 316.741,195.136 316.741,55.959 		"/>
		<polyline style="fill:#2B468E;" points="319.465,55.959 319.465,195.136 320.163,195.136 320.163,55.959 		"/>
		<polyline style="fill:#2B468E;" points="322.887,55.959 322.887,195.136 323.585,195.136 323.585,55.959 		"/>
		<polyline style="fill:#2B468E;" points="326.309,55.959 326.309,195.136 327.007,195.136 327.007,55.959 		"/>
		<path style="fill:#BD6300;" d="M325.262,213.872c-0.001,0.732-0.293,1.383-0.772,1.865c-0.482,0.479-1.132,0.772-1.864,0.772
			c-0.732-0.001-1.383-0.293-1.864-0.772c-0.479-0.481-0.772-1.132-0.772-1.865c0.001-0.732,0.293-1.382,0.772-1.864
			c0.481-0.479,1.132-0.772,1.864-0.772h1.396v-5.771h-2.792v4.374h1.396v-1.396c-2.999,0.001-5.428,2.43-5.429,5.429
			c0.001,2.999,2.43,5.429,5.429,5.429c2.999-0.001,5.428-2.43,5.429-5.429H325.262z"/>
		<polygon style="fill:#FF9A1D;" points="331.38,204.064 327.144,207.554 317.371,207.554 312.706,204.064 312.706,195.136 
			331.38,195.136 		"/>
	</g>
	<g>
		<g>
			<path style="fill:#A94C00;" d="M179.173,166.015l-3.658-12.464c0,0,6.199-0.384,7.63,3.951
				C184.576,161.837,179.173,166.015,179.173,166.015z"/>
			<path style="fill:#FFBBCC;" d="M301.743,211.09c0,0,6.564,10.788,0.544,17.678c-6.02,6.89-20.271,8.087-20.271,8.087
				s-39.89,34.16-52.002,40.869c-9.066,5.023-27.578-3.264-36.3-7.742c-2.919-1.505-4.751-2.575-4.751-2.575l16.808-17.28
				c0.127-0.218,12.71,3.917,12.71,3.917l52.582-29.645c0,0,9.864-9.719,15.34-14.85c5.476-5.113,26.799-15.049,27.089-10.353
				C313.801,203.892,301.743,211.09,301.743,211.09z"/>
			<path style="fill:#E2A0B8;" d="M302.287,228.768c-6.02,6.89-20.271,8.087-20.271,8.087s-39.89,34.16-52.002,40.869
				c-9.066,5.023-27.578-3.264-36.3-7.742l10.108-7.243c0,0,11.088,3.338,16.527,5.713c5.439,2.393,40.452-21.406,47.251-26.338
				c6.799-4.95,10.879-10.045,10.879-10.045s5.784-2.14,7.833-5.839c1.904-3.445,2.919-5.748,3.028-6.02
				c-0.091,0.326-0.598,2.321,0.018,4.605c0.671,2.466,3.645,2.484,3.735,2.484c0,0-3.046,0.254-1.686,2.502
				C292.768,232.068,302.287,228.768,302.287,228.768z"/>
			<g>
				<path style="fill:#3C4099;" d="M215.221,248.059c0,0,0,0-16.321-8.725c-14.608-7.809-27.754-14.794-39.824-12.236
					c18.271,7.65,35.485,17.955,53.296,26.416L215.221,248.059z"/>
				<path style="fill:#313384;" d="M159.076,227.098c-1.416,0.3-2.818,0.724-4.205,1.301c-7.178,4.916-4.277,23.153,9.438,31.908
					c13.715,8.755,34.79,18.615,34.79,18.615l13.274-25.408C194.56,245.053,177.347,234.748,159.076,227.098z"/>
				<path style="fill:#4A60DE;" d="M163.38,222.716c-2.34-1.317-5.147-2.712-6.522-2.446c0,0-22.684-0.987-32.678,3.692
					c-0.619,0.259-1.262,0.552-1.915,0.86c9.103,22.778,23.262,42.214,39.157,61.641C166.098,264.643,166.743,244.16,163.38,222.716
					z"/>
				<path style="fill:#BB6000;" d="M150.543,340.859c-10.879,7.253-30.824,1.813-34.45,16.318
					c-3.246,12.946-5.458,43.854-4.315,56.8c-8.504-1.106-17.497-2.738-27.161-4.877c-0.471-7.996,0.598-33.628,0.163-41.098
					c-0.236-3.898-0.471-7.742-0.689-11.532c-0.254-4.642-0.489-9.211-0.707-13.726c-0.181-3.753-0.344-7.488-0.471-11.187
					c-0.761-20.181-0.834-39.745,0.526-60.868c0.236-3.717,1.269-7.434,2.865-11.06c1.142-2.611,2.575-5.149,4.243-7.615
					c1.034-1.541,2.158-3.064,3.354-4.533c1.414-1.759,2.919-3.445,4.497-5.077c7.597-7.869,16.681-14.197,23.861-17.588
					c2.176,2.611,4.424,5.222,6.691,7.851c-10.081,6.546-17.479,16.083-20.108,26.599
					C97.961,291.903,123.345,322.727,150.543,340.859z"/>
				<path style="fill:#D1E7FF;" d="M88.913,345.972c-1.922-0.979-3.753-2.067-5.53-3.228c-0.181-3.753-0.344-7.488-0.471-11.187
					c1.777,1.596,3.789,2.992,5.983,4.207C88.895,339.136,88.913,342.545,88.913,345.972z"/>
				<path style="fill:#FFFFFF;" d="M88.898,335.766c0.002,3.378,0.008,6.779,0.024,10.214c7.646,3.955,16.598,6.56,28.51,7.789
					c5.129-9.101,19.502-6.999,29.593-11.086C136.253,343.792,106.686,345.643,88.898,335.766z"/>
				<path style="fill:#FF7700;" d="M188.112,249.33c-0.925-3.953-2.647-7.38-4.678-10.281c-2.955-4.225-6.546-7.398-9.283-9.682
					c-0.127-0.109-0.254-0.218-0.399-0.308c-2.212-1.777-4.605-3.064-7.089-4.442c-0.671-0.363-1.886-1.124-3.282-1.904
					c3.354,21.45,2.72,41.939-1.958,63.751c-6.82-23.732-19.936-39.197-32.473-53.788c-10.079,6.537-17.481,16.08-20.109,26.591
					c-10.879,32.637,14.505,63.461,41.703,81.593c-10.879,7.253-30.824,1.813-34.45,16.318c-3.239,12.955-5.451,43.854-4.313,56.809
					c11.547,1.507,22.199,2.032,32.272,1.333c3.463-0.217,6.854-0.598,10.19-1.142c6.836-1.07,13.49-2.774,20.054-5.167
					c2.937-1.052,5.856-2.248,8.794-3.608c2.412-1.106,4.841-2.321,7.271-3.645C187.332,373.888,194.639,277.579,188.112,249.33z"/>
				<path style="fill:#D1E7FF;" d="M148.73,342.5c-0.493,0.057-1.079,0.12-1.705,0.184c-10.09,4.086-24.463,1.984-29.593,11.086
					c6.689,0.69,14.281,0.962,23.138,0.78c18.23-0.375,32.325-7.708,40.922-13.763c-0.059-3.811-0.092-7.646-0.107-11.513
					C171.425,335.306,156.798,341.569,148.73,342.5z"/>
				<path style="fill:#D1E7FF;" d="M184.866,262.747c1.124-10.371,0.29-17.842-1.432-23.698c-2.955-4.225-6.546-7.398-9.283-9.682
					c-0.127-0.109-0.254-0.218-0.399-0.308c2.321,4.751,4.823,10.897,5.657,16.445c1.65,11.151-1.668,70.424-1.16,72.853
					c0.159,0.765-0.057,9.186-0.425,20.335c2.061-0.375,4.063-1.024,6.014-1.859C183.527,306.93,183.558,274.734,184.866,262.747z"
					/>
				<path style="fill:#FFFFFF;" d="M181.386,329.273c0.015,3.868,0.048,7.702,0.107,11.513c6.153-4.334,9.494-8.014,9.494-8.014
					s0.017-2.511,0.101-11.147C189.577,323.763,185.976,326.494,181.386,329.273z"/>
				<path style="fill:#D1E7FF;" d="M98.396,242.404c-1.577,1.632-3.082,3.318-4.497,5.077c-1.197,1.469-2.321,2.992-3.354,4.533
					c2.756-0.675,5.365-1.137,7.857-1.431c1.189-2.834,2.415-5.743,4.095-8.475C101.127,242.136,99.757,242.227,98.396,242.404z"/>
				<path style="fill:#FFFFFF;" d="M102.497,242.107c-1.68,2.732-2.906,5.64-4.095,8.475c5.042-0.596,9.569-0.456,13.612,0.359
					c1.193-2.318,2.616-4.552,4.248-6.675C111.849,242.752,107.166,242.011,102.497,242.107z"/>
				<path style="fill:#D1E7FF;" d="M130.888,253.301c-4.092-4.101-9.151-7.155-14.626-9.034c-1.632,2.123-3.055,4.357-4.248,6.675
					c29.467,5.946,33.837,46.938,33.887,86.678c1.537,1.118,3.086,2.202,4.642,3.239c-1.417,0.945-2.991,1.671-4.659,2.257
					c-0.013,1.669-0.031,3.333-0.055,4.989c3.066-0.021,6.131-0.137,9.197-0.583C155.66,312.379,155.122,276.53,130.888,253.301z"/>
				<path style="fill:#FFFFFF;" d="M145.901,337.62c0.002,1.836-0.004,3.669-0.018,5.496c1.669-0.586,3.242-1.312,4.659-2.257
					C148.987,339.822,147.439,338.738,145.901,337.62z"/>
				<path style="fill:#313384;" d="M180.243,161.736c0,0.635,0.018,1.16-0.199,1.741c0,0.018,0,0.054-0.018,0.073
					c-0.308,0.816-0.598,1.632-0.852,2.466c-0.471,1.451-0.907,2.919-1.469,4.352c-0.997,2.502-2.121,5.041-4.043,6.926
					c0-0.018-1.886-3.318-2.049-3.644c-0.526-1.106-0.671-2.031-0.906-3.191c-0.381-1.759-1.342-3.554-1.995-5.222
					c-1.052-2.684-2.103-5.385-3.137-8.069c-0.018-0.054-0.036-0.091-0.054-0.145c-0.272-0.689-0.508-1.432-0.834-2.103
					c-0.181-0.417-0.508-0.671-0.761-1.052c-0.018-0.036-0.054-0.109-0.091-0.218c-0.326-0.78-1.179-3.264-0.979-3.336
					c3.626-0.109,7.289,0.635,10.589,2.176c1.305,0.58,2.575,1.305,3.753,2.139c0.616,0.453,1.215,0.925,1.723,1.505
					c0.272,0.29,0.508,0.616,0.689,0.979C180.333,158.544,180.225,160.194,180.243,161.736z"/>
				<path style="fill:#FFBBCC;" d="M178.391,187.762c0.077,1.955,0.096,3.888,0.028,5.784c-0.104,2.964-0.421,5.831-1.028,8.497
					c-0.181,0.825-0.393,1.625-0.644,2.401c-2.714,8.749-9.198,14.684-22.84,13.422c-3.809-2.31-6.834-5-7.472-8.766
					c-3.377-14.605-3.987-29.318-1.842-44.155c0.972-8.769,7.93-14.856,15.831-19.468c10.251,3.787,14.489,14.45,16.076,24.828
					C177.31,175.692,178.148,181.779,178.391,187.762z"/>
				<path style="fill:#FFBBCC;" d="M159.648,230.102c-0.46-8.057-1.297-6.14-4.678-12.193c0,0-2.228-7.603-4.074-8.124
					c-1.846-0.521-14.037,11.801-17.963,14.178c-1.726,1.045-1.662,3.095-1.049,5.064l0,0l0,0c0.781,2.511,2.455,4.89,2.455,4.89
					l2.624,0.25c1.717,1.437,3.82,2.953,6.266,4.232c7.062,3.693,11.739,6.436,11.739,6.436S160.108,238.159,159.648,230.102z"/>
				<path style="fill:#E2A0B8;" d="M146.439,209.103c-3.376-14.604-3.992-29.323-1.848-44.158
					c0.976-8.768,7.934-14.851,15.833-19.465c-1.615-0.597-3.374-1.028-5.302-1.255c-22.929-2.699-41.603,18.292-39.12,39.729
					c1.517,9.931,5.769,19.168,9.562,28.557c-0.668,11.388-1.334,15.025-0.358,22.616c2.292,0.077,5.411-0.084,8.762-0.407
					c4.619-6.896,11.574-12.423,17.477-18.505C148.842,214.272,146.926,212.008,146.439,209.103z"/>
				<path style="fill:#E286A5;" d="M132.25,194.187c-0.591-0.46-1.155-0.953-1.686-1.479c-0.172-0.163-0.263-0.3-0.263-0.353v0
					l-0.002-0.021c-0.002-0.041,0.012-0.108,0.063-0.207c0.05-0.098,0.134-0.215,0.226-0.339c0.854-1.161,1.559-2.578,1.498-4.118
					l-0.007-0.122v-0.001c-0.057-0.812-0.378-1.602-0.892-2.227c-0.513-0.623-1.236-1.087-2.089-1.167
					c-0.086-0.008-0.173-0.01-0.258-0.006c-0.491,0.023-0.958,0.213-1.327,0.513c-0.363,0.297-0.653,0.736-0.634,1.27
					c0.006,0.148,0.038,0.298,0.096,0.443l0.855-0.342l-0.031-0.139c-0.009-0.146,0.083-0.342,0.298-0.519
					c0.209-0.174,0.517-0.296,0.782-0.305l0.134,0.003c0.564,0.052,1.073,0.363,1.465,0.836c0.39,0.471,0.643,1.098,0.684,1.705
					v-0.001l0.005,0.099c0.055,1.219-0.529,2.464-1.319,3.533c-0.093,0.127-0.206,0.277-0.301,0.46
					c-0.094,0.182-0.177,0.407-0.167,0.671l0.014,0.135l0,0c0.08,0.429,0.348,0.675,0.524,0.856
					c0.558,0.551,1.149,1.069,1.769,1.551L132.25,194.187L132.25,194.187z"/>
				<path style="fill:#313384;" d="M162.6,136.735c-3.179-2.714-6.772-4.943-10.624-6.566c-1.23-0.518-2.462-0.858-3.749-1.191
					c-0.753-0.195-1.449-0.568-2.207-0.738c-0.736-0.165-1.512-0.146-2.26-0.143c-2.892,0.011-5.783,0.336-8.623,0.871
					c-5.051,0.952-10.248,2.502-14.667,5.191c-4.98,3.031-9.885,10.048-12.01,15.477c-2.125,5.428-0.946,12.458,3.898,15.701
					c-6.579,4.45-8.088,13.921-5.615,21.468c1.376,4.2,3.74,7.989,6.444,11.458c1.37,1.758,2.832,3.442,4.325,5.096
					c0.725,0.803,1.52,1.569,2.205,2.405c0.285,0.348,0.508,0.68,0.825,0.995c1.018,1.012,2.481,1.804,3.693,2.563
					c0.24,0.15,2.67,1.422,2.649,1.54c0,0,2.344-13.277,2.344-13.277c-4.262-3.249-6.578-8.876-5.837-14.183
					c0.127-0.91,0.349-1.836,0.884-2.583c1.527-2.133,5.015-1.832,6.971-0.085c1.956,1.747,2.771,4.406,3.502,6.925
					c1.241-5.93,1.933-19.007,1.854-25.065c2.949-0.58,5.988-0.767,8.966-1.153c5.183-0.672,9.103-4.17,14.111-5.695
					c2.51-0.764,6.252,0.933,8.572-0.3c2.476-1.316,3.683-3.887,3.19-6.675c-0.377-2.13-1.575-4.021-2.883-5.743
					C166.803,140.726,164.801,138.614,162.6,136.735z"/>
				<path style="fill:#313384;" d="M161.283,182.969c0.072,1.721-0.931,3.161-2.241,3.216c-1.309,0.055-2.429-1.296-2.501-3.017
					c-0.072-1.721,0.931-3.161,2.24-3.216C160.091,179.897,161.211,181.248,161.283,182.969z"/>
				<path style="fill:#313384;" d="M177.412,182.294c0.072,1.721-0.931,3.161-2.24,3.216c-1.31,0.055-2.429-1.296-2.501-3.017
					c-0.072-1.721,0.931-3.161,2.24-3.216C176.22,179.222,177.34,180.573,177.412,182.294z"/>
				<path style="fill:#313384;" d="M153.604,175.665c0.116-0.105,0.232-0.208,0.351-0.309c-0.242,0.206,0.139-0.11,0.182-0.144
					c0.245-0.193,0.496-0.378,0.753-0.556c0.513-0.355,1.048-0.679,1.601-0.969c0.138-0.072,0.278-0.142,0.418-0.21
					c-0.294,0.145,0.155-0.07,0.207-0.093c0.286-0.125,0.575-0.242,0.868-0.349c0.586-0.216,1.185-0.392,1.793-0.535
					c0.705-0.166,1.138-1.077,0.893-1.738c-0.277-0.747-0.983-1.07-1.738-0.893c-2.755,0.649-5.267,2.037-7.362,3.927
					c-0.538,0.486-0.452,1.501,0.082,1.952C152.269,176.266,153.03,176.183,153.604,175.665z"/>
				<path style="fill:#313384;" d="M172.325,172.538c0.407-0.053,0.815-0.06,1.224-0.025c-0.123-0.011-0.246-0.023-0.369-0.034
					c0.483,0.047,0.954,0.153,1.41,0.318c-0.112-0.042-0.224-0.083-0.336-0.125c0.209,0.078,0.413,0.168,0.612,0.269
					c0.322,0.165,0.722,0.206,1.069,0.095c0.317-0.102,0.653-0.363,0.798-0.669c0.318-0.667,0.113-1.517-0.574-1.867
					c-1.202-0.613-2.607-0.895-3.95-0.721c-0.371,0.048-0.698,0.161-0.959,0.445c-0.229,0.249-0.393,0.65-0.363,0.993
					c0.031,0.356,0.163,0.722,0.445,0.959C171.598,172.399,171.965,172.584,172.325,172.538z"/>
				<path style="fill:#E286A5;" d="M175.509,200.798c0.315-1.193-12.525,1.323-12.525,1.323
					C166.263,212.654,173.751,207.464,175.509,200.798z"/>
				<path style="fill:#313384;" d="M120.735,225.032c2.773-8.971,5.377-8.41,5.377-8.41s0.476,3.675,3.253,8.41
					c2.777,4.736,25.605,19.802,25.605,19.802s-6.584-1.611-7.513,0c-0.93,1.611-7.747,10.502-7.747,10.502
					s-10.91-10.027-16.025-19.71C118.57,225.944,120.735,225.032,120.735,225.032z"/>
				<path style="fill:#313384;" d="M154.97,244.834c4.908-10.128-0.403-24.267-0.403-24.267l1.242-3.952
					c0,0,6.314,1.238,9.22,11.506c2.906,10.268,3.645,26.151,3.645,26.151l-10.177-9.438H154.97z"/>
				<path style="fill:#313384;" d="M117.063,348.665"/>
				<path style="fill:#FFA900;" d="M184.42,296.411l-11.173,2.772c-1.523,0.378-2.996-0.774-2.996-2.343v-23.832
					c0-1.109,0.756-2.076,1.833-2.343l11.173-2.772c1.523-0.378,2.996,0.774,2.996,2.343v23.832
					C186.253,295.177,185.496,296.144,184.42,296.411z"/>
				<path style="fill:#313384;" d="M179.886,272.974l-3.269,0.888v-8.097c0-0.738,0.494-1.384,1.206-1.577l0,0
					c1.039-0.282,2.063,0.5,2.063,1.577V272.974z"/>
				<polygon style="fill:#313384;" points="182.191,292.311 176.617,294.21 176.617,286.164 182.191,284.481 				"/>
			</g>
			<path style="fill:#9F5015;" d="M271.464,241.252l-27.638,59.382c-0.314,0.676-0.844,1.228-1.506,1.57l-31.514,16.31
				c-1.215,0.629-2.553-0.6-2.031-1.864l4.039-9.773l8.279-20.026l1.636-3.955l3.487-8.435l7.607-18.423
				c0.332-0.803,0.961-1.448,1.757-1.798l33.962-14.95C270.781,238.744,272.035,240.025,271.464,241.252z"/>
			<path style="fill:#FFBBCC;" d="M244.647,289.528c0.58,1.034-0.109,2.303-0.852,3.246c-3.137,4.025-7.071,7.416-11.514,9.972
				c2.375-1.179,4.75-2.321,7.108-3.481c0.798,0.798-0.036,2.121-0.87,2.847c-7.416,6.709-17.026,10.915-26.998,11.822
				c-0.272,0.036-0.544,0.054-0.798,0.073c-0.145,0.018-0.29,0.036-0.435,0.036l-5.965-4.406c-0.109-2.865-1.052-8.087-0.018-10.752
				c1.142-2.937,14.215-13.889,20.616-17.37l-3.499,8.431c-1.034,1.396-1.904,2.847-2.285,4.388
				c0.199-0.145,0.435-0.272,0.653-0.435c4.188-2.72,7.96-6.128,11.115-10.009c2.031-2.502,3.989-5.349,6.763-6.781
				c0.508-0.272,1.052-0.508,1.632-0.671c0.671,1.432-0.073,3.101-0.87,4.46c-1.94,3.391-4.188,6.636-6.672,9.646
				c4.932-3.119,9.882-6.255,14.795-9.374c0.417,2.14-0.87,4.225-2.194,5.929c-1.323,1.704-2.774,3.282-4.333,4.75
				C241.474,290.906,243.033,290.126,244.647,289.528z"/>
			<path style="fill:#FFBBCC;" d="M213.351,312.283c0,0-38.729,25.928-60.633,31.187c-21.903,5.24-26.472-5.439-32.438-14.197
				c-1.795-2.611-3.808-6.038-5.766-9.537c-4.605-8.232-8.885-16.953-8.885-16.953l12.257-34.323c0,0,27.179,45.583,33.072,49.373
				c0.381,0.236,53.344-18.948,53.344-18.948l6.926,10.263L213.351,312.283z"/>
			<path style="fill:#E2A0B8;" d="M213.351,312.283c0,0-38.729,25.928-60.633,31.187c-21.903,5.24-26.472-5.439-32.438-14.197
				c-1.795-2.611-3.808-6.038-5.766-9.537l9.283-6.364c0,0,8.159,19.347,16.663,22.393c8.486,3.064,42.591-12.747,53.253-16.917
				c7.126-2.792,13.853-7.126,17.515-9.7L213.351,312.283z"/>
			<path style="fill:#313384;" d="M93.814,260.029c-9.433,1.282-10.518,19.854-5.32,30.582
				c5.198,10.728,25.611,36.402,25.611,36.402l18.865-10.142c-10.879-18.634-23.113-36.672-29.757-57.036
				C100.006,259.497,96.845,259.617,93.814,260.029z"/>
			<path style="fill:#3C4099;" d="M129.914,278.14c-8.024-12.605-17.555-17.339-26.702-18.305
				c6.644,20.364,18.878,38.401,29.757,57.036l13.186-7.089C146.156,309.782,140.752,295.164,129.914,278.14z"/>
			<path style="fill:#FF8E00;" d="M175.039,152.724c0,0-29.537,7.724-37.895,11.35c-8.359,3.626-32.836,17.189-32.836,17.189
				c-0.544,0.036-4.243-12.221-3.59-23.281c0.145-2.792,0.598-5.53,1.451-7.96c4.17-12.021,16.264-21.903,35.937-25.838
				c22.864-4.569,33.399,18.766,36.155,26.273C174.785,151.872,175.039,152.724,175.039,152.724z"/>
			<path style="fill:#FFA900;" d="M174.259,150.458c-10.462,2.992-20.888,6.147-31.241,9.465c-2.611-3.227-5.222-6.455-7.833-9.7
				c-2.955-3.663-6.582-7.651-11.278-7.615c-2.992,0.018-5.675,1.723-8.177,3.354c-5.367,3.518-10.897,7.18-15.013,12.021
				c0.145-2.792,0.598-5.53,1.451-7.96c4.17-12.021,16.264-21.903,35.937-25.838C160.969,119.616,171.503,142.951,174.259,150.458z"
				/>
			<path style="fill:#FFC700;" d="M184.857,154.765c-7.117-4.617-12.219-6.223-12.219-6.223s-19.556,1.508-34.538,14.413
				C161.62,154.102,184.857,154.765,184.857,154.765z"/>
			<path style="fill:#FF8E00;" d="M173.443,152.488c-2.865,0.109-6.11,0.49-9.61,1.16c-0.725,0.145-1.469,0.29-2.212,0.453
				c-13.345,2.919-52.455,22.374-58.547,25.439c-0.508,0.254-0.852,0.743-0.907,1.306c-0.145,1.342,1.306,2.285,2.484,1.614
				c8.522-4.986,34.795-19.546,58.33-24.75c0.907-0.199,1.777-0.381,2.593-0.544c6.709-1.342,10.861-1.505,13.345-1.033
				c6.165,1.178,2.031,6.31,1.124,7.343c0,0.018,0,0.054-0.018,0.073c-0.308,0.816-0.598,1.632-0.852,2.466
				c1.831-0.907,6.636-3.681,7.071-8.069C186.643,154.138,181.512,152.216,173.443,152.488z"/>
			<path style="fill:#FFA900;" d="M108.387,156.021c0-1.443,0.621-2.812,1.717-3.75c2.142-1.833,6.03-4.868,10.176-6.675
				c6.239-2.72,15.262,7.253,16.19,9.972c0.928,2.72-1.661,2.493-4.22,1.36c-2.558-1.133-8.01-9.413-11.97-8.56
				C116.319,149.222,108.387,156.021,108.387,156.021L108.387,156.021z"/>
			<path style="fill:#D1E7FF;" d="M89.294,370.558c-1.559-0.78-3.046-1.632-4.515-2.557c-0.236-3.898-0.471-7.742-0.689-11.532
				c1.451,1.233,3.119,2.375,4.968,3.427C89.131,363.451,89.203,367.005,89.294,370.558z"/>
			<path style="fill:#FFFFFF;" d="M114.105,367.21c-10.269-1.218-18.757-3.737-25.039-7.313c0.057,3.557,0.131,7.114,0.235,10.666
				c6.581,3.346,14.136,5.705,23.705,7.057C113.205,374.15,113.579,370.68,114.105,367.21z"/>
			<path style="fill:#D1E7FF;" d="M148.73,366.888c-12.932,1.476-24.612,1.509-34.625,0.321c-0.526,3.47-0.9,6.94-1.099,10.41
				c7.706,1.09,16.692,1.542,27.565,1.318c18.867-0.388,33.306-8.228,41.803-14.392c-0.234-3.743-0.429-7.457-0.565-11.14
				C171.843,359.52,156.915,365.954,148.73,366.888z"/>
			<path style="fill:#FFFFFF;" d="M181.808,353.406c0.136,3.684,0.332,7.397,0.565,11.14c5.589-4.054,8.612-7.385,8.612-7.385
				s0.017-2.511,0.101-11.148C189.624,348.085,186.195,350.715,181.808,353.406z"/>
		</g>
		<path style="fill:#E2A0B8;" d="M129.563,314.041"/>
		<path style="fill:#E2A0B8;" d="M244.647,289.528c0.58,1.034-0.109,2.303-0.852,3.246c-3.137,4.025-7.071,7.416-11.514,9.972
			c2.375-1.179,4.75-2.321,7.108-3.481c0.798,0.798-0.036,2.121-0.87,2.847c-7.416,6.709-17.026,10.915-26.998,11.822
			c-0.272,0.036-0.544,0.054-0.798,0.073c1.686-1.088,2.629-1.723,2.629-1.723l-2.122-3.137c1.813-1.269,2.883-2.103,2.883-2.103
			s7.035-9.193,13.037-13.726c4.225-3.191,8.413-11.568,10.516-16.21c0.508-0.272,1.052-0.508,1.632-0.671
			c0.671,1.432-0.073,3.101-0.87,4.46c-1.94,3.391-4.188,6.636-6.672,9.646c4.932-3.119,9.882-6.255,14.795-9.374
			c0.417,2.14-0.87,4.225-2.194,5.929c-1.323,1.704-2.774,3.282-4.333,4.75C241.474,290.906,243.033,290.126,244.647,289.528z"/>
	</g>
</g>
</svg>
