<svg width="115" height="115" viewBox="0 0 115 115" fill="none" xmlns="http://www.w3.org/2000/svg">
<path d="M113.857 68.8308C112.987 73.239 111.606 77.4599 109.77 81.4311C107.859 82.0365 105.646 82.2068 103.357 81.8265C97.2079 80.8068 92.8375 76.1507 93.6321 71.4606C94.4078 66.7686 100.027 63.7964 106.195 64.8161C109.392 65.3496 112.097 66.8613 113.857 68.8308Z" fill="#FF9A61"/>
<path d="M20.9815 71.4622C21.7762 76.1524 17.4058 80.8065 11.257 81.8281C9.138 82.1895 7.09471 82.0571 5.27845 81.5652C3.36759 77.4597 1.94863 73.0892 1.07834 68.5108C2.81892 66.6926 5.41088 65.3323 8.41906 64.8196C14.5868 63.798 20.2058 66.7683 20.9815 71.4622Z" fill="#FF9A61"/>
<path d="M114.992 57.4979C114.992 61.3783 114.614 65.1811 113.857 68.8306C112.097 66.8611 109.392 65.3495 106.195 64.8178C100.027 63.7981 94.4078 66.7685 93.6321 71.4624C92.8375 76.1525 97.2079 80.8066 103.357 81.8283C105.646 82.2085 107.859 82.0383 109.77 81.4329C100.71 101.24 80.7102 114.996 57.496 114.996C34.3198 114.996 14.3598 101.298 5.27851 81.5653C7.09478 82.0572 9.13807 82.1896 11.257 81.8283C17.4058 80.8085 21.7762 76.1525 20.9816 71.4624C20.2059 66.7704 14.5869 63.7981 8.41913 64.8178C5.41094 65.3324 2.81899 66.6909 1.07841 68.509C0.359468 64.9503 0 61.2629 0 57.4979C0 25.7304 25.7304 0 57.496 0C89.2617 0 114.992 25.7304 114.992 57.4979Z" fill="#F7C8BB"/>
<path d="M57.8613 80.1483C52.6452 80.1483 48.4016 74.6617 48.4016 67.9169C48.4016 67.1336 49.0372 66.498 49.8205 66.498C50.6038 66.498 51.2395 67.1336 51.2395 67.9169C51.2395 73.0952 54.2098 77.3104 57.8613 77.3104C61.5127 77.3104 64.483 73.0952 64.483 67.9169C64.483 67.1336 65.1187 66.498 65.902 66.498C66.6853 66.498 67.321 67.1336 67.321 67.9169C67.321 74.6617 63.0773 80.1483 57.8613 80.1483Z" fill="black"/>
<path d="M15.287 40.3364C14.8594 41.7989 14.6191 43.3409 14.6191 44.9414C14.6191 54.0171 21.9769 61.3748 31.0525 61.3748C40.1282 61.3748 47.484 54.0171 47.484 44.9414C47.484 43.3409 47.2437 41.8008 46.8181 40.3364H15.287Z" fill="black"/>
<path d="M99.7697 40.3364C100.197 41.7989 100.438 43.3409 100.438 44.9414C100.438 54.0171 93.0798 61.3748 84.0042 61.3748C74.9286 61.3748 67.5727 54.0171 67.5727 44.9414C67.5727 43.3409 67.813 41.8008 68.2387 40.3364H99.7697Z" fill="black"/>
<path d="M104.795 38.9175H100.833H100.436H68.2385H67.1734H47.8832H46.818H15.2869H14.2218H10.9279C10.1446 38.9175 9.50894 39.5532 9.50894 40.3364C9.50894 41.1197 10.1446 41.7554 10.9279 41.7554H13.5293C13.3344 42.8149 13.2001 43.8782 13.2001 44.9415C13.2001 54.7852 21.2087 62.7938 31.0525 62.7938C39.0592 62.7938 45.8512 57.4926 48.1083 50.2181C49.83 48.014 53.2979 46.6158 57.2539 46.5666C61.4067 46.5685 65.0714 47.9326 66.9596 50.2521C69.2262 57.5115 76.0087 62.7938 84.0022 62.7938C93.846 62.7938 101.855 54.7871 101.855 44.9415C101.855 43.8801 101.72 42.8149 101.525 41.7554H104.795C105.578 41.7554 106.214 41.1197 106.214 40.3364C106.214 39.5532 105.578 38.9175 104.795 38.9175ZM31.0525 59.9559C22.7733 59.9559 16.038 53.2206 16.038 44.9415C16.038 43.8801 16.1553 42.813 16.388 41.7554H45.7169C45.9477 42.813 46.065 43.8801 46.065 44.9415C46.0669 53.2206 39.3316 59.9559 31.0525 59.9559ZM66.2047 45.9385C63.7755 44.476 60.6556 43.6587 57.2199 43.7287C54.0282 43.7665 51.1241 44.5423 48.8575 45.8874C48.8745 45.5734 48.9048 45.2612 48.9048 44.9415C48.9048 43.8801 48.7705 42.8149 48.5756 41.7554H66.4809C66.2861 42.8168 66.1536 43.8801 66.1536 44.9415C66.1536 45.2782 66.1858 45.6074 66.2047 45.9385ZM84.0041 59.9559C75.7268 59.9559 68.9915 53.2206 68.9915 44.9415C68.9915 43.882 69.1088 42.8149 69.3397 41.7554H98.6666C98.8993 42.813 99.0166 43.8801 99.0166 44.9415C99.0166 53.2206 92.2813 59.9559 84.0041 59.9559Z" fill="black"/>
</svg>
