<svg width="115" height="115" viewBox="0 0 115 115" fill="none" xmlns="http://www.w3.org/2000/svg">
<path d="M113.857 68.8289C112.987 73.2372 111.606 77.4562 109.77 81.4293C107.86 82.0347 105.646 82.2049 103.357 81.8266C97.2079 80.8049 92.8375 76.1507 93.6321 71.4587C94.4078 66.7667 100.027 63.7964 106.195 64.818C109.392 65.3478 112.097 66.8613 113.857 68.8289Z" fill="#FF9A61"/>
<path d="M20.9816 71.4587C21.7762 76.1507 17.4058 80.8049 11.257 81.8266C9.13804 82.186 7.09474 82.0536 5.27847 81.5617C3.36762 77.4562 1.94866 73.0858 1.07837 68.5073C2.81895 66.691 5.41091 65.3289 8.4191 64.818C14.5887 63.7964 20.2059 66.7667 20.9816 71.4587Z" fill="#FF9A61"/>
<path d="M114.992 57.4961C114.992 61.3745 114.614 65.1773 113.857 68.8288C112.097 66.8612 109.392 65.3476 106.195 64.8179C100.027 63.7962 94.4078 66.7666 93.6321 71.4586C92.8375 76.1506 97.2079 80.8047 103.357 81.8264C105.646 82.2048 107.859 82.0345 109.77 81.4291C100.71 101.238 80.7102 114.992 57.4961 114.992C34.3198 114.992 14.3598 101.294 5.27851 81.5615C7.09477 82.0534 9.13807 82.1859 11.257 81.8264C17.4059 80.8047 21.7762 76.1506 20.9816 71.4586C20.2059 66.7666 14.5869 63.7962 8.41914 64.8179C5.41095 65.3287 2.81899 66.6909 1.07841 68.5071C0.359468 64.9503 0 61.261 0 57.4961C0 25.7304 25.7304 0 57.4961 0C89.2617 0 114.992 25.7304 114.992 57.4961Z" fill="#F7C8BB"/>
<path d="M51.3245 71.0237C47.6976 71.0237 45.6354 68.4015 45.4746 65.8095C45.3365 63.6092 46.5701 61.9064 48.4715 61.6699C49.249 61.5734 49.9585 62.124 50.055 62.9016C50.1515 63.6792 49.6009 64.3887 48.8234 64.4851C48.2444 64.557 48.3031 65.59 48.3068 65.6335C48.3655 66.5814 49.0674 68.1858 51.3245 68.1858C56.1603 68.1839 56.4252 63.2289 56.4327 63.017C56.4668 62.2356 57.129 61.6359 57.9103 61.6586C58.6936 61.6907 59.3009 62.3529 59.2688 63.1362C59.1552 65.8643 57.3465 71.0237 51.3245 71.0237Z" fill="black"/>
<path d="M64.377 71.0234C58.3531 71.0215 56.5463 65.8641 56.4309 63.1359C56.3987 62.3526 57.006 61.6905 57.7893 61.6583C58.5688 61.6091 59.2309 62.2316 59.2669 63.0129C59.2953 63.5521 59.6717 68.1836 64.377 68.1855C66.6341 68.1855 67.3341 66.5811 67.3947 65.6333C67.3965 65.5897 67.4552 64.5567 66.8782 64.4849C66.1006 64.3884 65.55 63.6789 65.6465 62.9013C65.743 62.1237 66.4619 61.5731 67.2301 61.6696C69.1315 61.908 70.365 63.6108 70.2269 65.8092C70.0661 68.4012 68.0039 71.0234 64.377 71.0234Z" fill="black"/>
<path d="M21.498 57.8462C27.5312 57.8462 32.4221 52.9553 32.4221 46.9221C32.4221 40.8889 27.5312 35.9981 21.498 35.9981C15.4648 35.9981 10.574 40.8889 10.574 46.9221C10.574 52.9553 15.4648 57.8462 21.498 57.8462Z" fill="black"/>
<path d="M32.424 45.5391C32.424 47.8681 30.5339 49.7581 28.205 49.7581C25.876 49.7581 23.9859 47.8681 23.9859 45.5391C23.9859 43.2101 25.876 41.3201 28.205 41.3201C30.5339 41.3201 32.424 43.2101 32.424 45.5391Z" fill="white"/>
<path d="M20.202 57.3069C21.5081 57.3069 22.567 56.2481 22.567 54.942C22.567 53.6359 21.5081 52.5771 20.202 52.5771C18.8959 52.5771 17.8371 53.6359 17.8371 54.942C17.8371 56.2481 18.8959 57.3069 20.202 57.3069Z" fill="white"/>
<path d="M94.2053 57.8462C100.238 57.8462 105.129 52.9553 105.129 46.9221C105.129 40.8889 100.238 35.9981 94.2053 35.9981C88.1721 35.9981 83.2812 40.8889 83.2812 46.9221C83.2812 52.9553 88.1721 57.8462 94.2053 57.8462Z" fill="black"/>
<path d="M105.129 45.5391C105.129 47.8681 103.239 49.7581 100.91 49.7581C98.5813 49.7581 96.6913 47.8681 96.6913 45.5391C96.6913 43.2101 98.5813 41.3201 100.91 41.3201C103.239 41.3201 105.129 43.2101 105.129 45.5391Z" fill="white"/>
<path d="M92.9074 57.3069C94.2135 57.3069 95.2723 56.2481 95.2723 54.942C95.2723 53.6359 94.2135 52.5771 92.9074 52.5771C91.6013 52.5771 90.5425 53.6359 90.5425 54.942C90.5425 56.2481 91.6013 57.3069 92.9074 57.3069Z" fill="white"/>
</svg>
