<svg width="115" height="115" viewBox="0 0 115 115" fill="none" xmlns="http://www.w3.org/2000/svg">
<path d="M113.859 68.8289C112.987 73.2371 111.608 77.4561 109.772 81.4292C107.861 82.0328 105.648 82.2031 103.357 81.8266C97.208 80.8049 92.8395 76.1507 93.6322 71.4587C94.4079 66.7686 100.027 63.7963 106.195 64.818C109.394 65.3477 112.098 66.8613 113.859 68.8289Z" fill="#FF9A61"/>
<path d="M20.9835 71.4567C21.7781 76.1488 17.4058 80.8048 11.257 81.8246C9.13803 82.1822 7.09474 82.0498 5.27848 81.5579C3.36762 77.4523 1.94866 73.0838 1.07837 68.5053C2.81895 66.6891 5.41091 65.325 8.41909 64.816C14.5868 63.7963 20.2078 66.7666 20.9835 71.4567Z" fill="#FF9A61"/>
<path d="M114.994 57.496C114.994 61.3745 114.616 65.1773 113.859 68.8287C112.097 66.8611 109.394 65.3476 106.195 64.8178C100.027 63.7962 94.4097 66.7665 93.6321 71.4586C92.8375 76.1506 97.2079 80.8067 103.357 81.8264C105.648 82.2029 107.861 82.0326 109.772 81.4291C100.71 101.238 80.7121 114.99 57.4961 114.99C34.3198 114.99 14.3617 101.294 5.27851 81.5596C7.09478 82.0515 9.13807 82.184 11.257 81.8264C17.4058 80.8048 21.7781 76.1506 20.9835 71.4586C20.2078 66.7684 14.5869 63.7962 8.41913 64.8178C5.41094 65.3287 2.81899 66.6909 1.07841 68.5071C0.359468 64.9503 0 61.261 0 57.496C0 25.7304 25.7323 0 57.4961 0C89.2636 0 114.994 25.7304 114.994 57.496Z" fill="#846258"/>
<path d="M57.6948 53.2163C72.8682 53.2163 82.1198 65.022 80.0386 72.9114C68.8194 62.7328 47.7621 60.3868 35.4645 72.9114C33.6483 65.0031 43.545 53.2163 57.6948 53.2163Z" fill="white"/>
<path d="M80.0386 72.9112C79.6224 74.6121 78.6576 76.1275 77.1062 77.3005C69.5195 83.0899 66.5491 74.5761 57.7516 74.5761C48.9541 74.5761 44.9242 82.4655 38.2835 77.3005C36.77 76.1067 35.8429 74.5932 35.4645 72.9112C47.7621 60.3866 68.8194 62.7326 80.0386 72.9112Z" fill="white"/>
<path d="M72.0565 81.2116C69.5856 81.2116 67.4856 80.0689 65.4555 78.9621C63.2079 77.738 60.8846 76.4704 57.7572 76.4704C54.5296 76.4704 51.9925 77.6907 49.5405 78.8694C47.3175 79.9383 45.2193 80.9486 42.8279 80.9486C40.8508 80.9486 38.9835 80.2467 37.1237 78.8032C33.5744 76.0466 32.4487 71.4927 34.1193 66.6191C36.6583 59.2102 45.7831 51.3341 57.6948 51.3341C70.5751 51.3341 79.0548 59.0702 81.484 66.2596C83.1792 71.2827 81.9722 75.9766 78.2526 78.8126C76.1336 80.4264 74.1074 81.2116 72.0565 81.2116ZM57.7572 72.6847C61.8495 72.6847 64.8539 74.3211 67.268 75.6398C69.0294 76.599 70.5505 77.4277 72.0565 77.4277C73.2636 77.4277 74.5047 76.9112 75.9596 75.8025C78.3624 73.9692 79.0699 70.9327 77.9007 67.4685C75.8272 61.3311 68.2215 55.118 57.6967 55.118C47.5408 55.118 39.8141 61.6754 37.7008 67.847C37.0329 69.7975 36.3707 73.4263 39.447 75.8139C40.6333 76.7353 41.7098 77.1647 42.8317 77.1647C44.3604 77.1647 46.0026 76.3758 47.904 75.462C50.4695 74.2209 53.665 72.6847 57.7572 72.6847Z" fill="black"/>
<path d="M80.0462 74.3343C79.7056 74.3343 79.3651 74.2132 79.0945 73.9672C68.4126 64.29 48.2824 61.8834 36.4804 73.9105C35.9337 74.4686 35.035 74.48 34.4731 73.9294C33.9131 73.3807 33.9055 72.4821 34.4542 71.9221C47.3837 58.7504 69.3624 61.3196 80.9997 71.8653C81.5805 72.3913 81.6259 73.288 81.0981 73.8707C80.8181 74.1772 80.4321 74.3343 80.0462 74.3343Z" fill="black"/>
<path d="M20.4861 44.6744C18.8912 45.3499 17.773 46.9277 17.773 48.7686C17.773 51.2262 19.7634 53.2166 22.2191 53.2166C24.5859 53.2166 26.5044 51.3643 26.6406 49.0297L20.4861 44.6744Z" fill="black"/>
<path d="M94.5083 44.6746C96.1032 45.35 97.2213 46.9279 97.2213 48.7687C97.2213 51.2264 95.231 53.2167 92.7752 53.2167C90.4084 53.2167 88.49 51.3645 88.3538 49.0298L94.5083 44.6746Z" fill="black"/>
</svg>
