<svg width="115" height="115" viewBox="0 0 115 115" fill="none" xmlns="http://www.w3.org/2000/svg">
<path d="M113.855 68.8288C112.985 73.237 111.603 77.4579 109.768 81.4291C107.857 82.0345 105.644 82.2048 103.355 81.8283C97.2058 80.8047 92.8354 76.1524 93.6301 71.4604C94.4058 66.7665 100.025 63.7962 106.193 64.816C109.392 65.3476 112.095 66.8593 113.855 68.8288Z" fill="#FF9A61"/>
<path d="M20.9816 71.4604C21.7762 76.1524 17.4058 80.8047 11.257 81.8283C9.13803 82.1859 7.09474 82.0534 5.27847 81.5615C3.36762 77.456 1.94866 73.0856 1.07837 68.5071C2.81895 66.689 5.41091 65.3287 8.4191 64.816C14.5868 63.7962 20.2059 66.7665 20.9816 71.4604Z" fill="#FF9A61"/>
<path d="M114.992 57.4961C114.992 61.3764 114.614 65.1792 113.857 68.8288C112.097 66.8593 109.392 65.3476 106.195 64.816C100.027 63.7962 94.4078 66.7666 93.6321 71.4605C92.8375 76.1525 97.2079 80.8048 103.357 81.8283C105.646 82.2048 107.859 82.0345 109.77 81.4291C100.708 101.24 80.7102 114.992 57.4961 114.992C34.3198 114.992 14.3598 101.294 5.27851 81.5615C7.09477 82.0534 9.13807 82.1859 11.257 81.8283C17.4058 80.8048 21.7762 76.1525 20.9816 71.4605C20.2059 66.7666 14.5869 63.7962 8.41913 64.816C5.41095 65.3287 2.81899 66.689 1.07841 68.5072C0.359468 64.9484 0 61.261 0 57.4961C0 25.7285 25.7304 0 57.4961 0C89.2617 0 114.992 25.7285 114.992 57.4961Z" fill="#C8988A"/>
<path d="M72.0998 70.798H43.2477C42.4644 70.798 41.8288 70.1623 41.8288 69.379C41.8288 68.5958 42.4644 67.9601 43.2477 67.9601H72.0998C72.8831 67.9601 73.5187 68.5958 73.5187 69.379C73.5187 70.1623 72.8831 70.798 72.0998 70.798Z" fill="black"/>
<path d="M15.8373 49.1299C17.5817 47.5633 19.3261 46.7498 21.0704 46.1633C22.8148 45.609 24.5592 45.3536 26.3035 45.346C28.0479 45.3422 29.7923 45.6014 31.5366 46.1557C33.281 46.7403 35.0254 47.552 36.7698 49.1299C35.0254 50.704 33.281 51.5213 31.5366 52.104C29.7923 52.6583 28.0479 52.9175 26.3035 52.9137C24.5592 52.9062 22.8148 52.6508 21.0704 52.0926C19.328 51.5099 17.5817 50.6964 15.8373 49.1299Z" fill="black"/>
<path d="M80.5643 49.1299C82.3087 47.5633 84.0531 46.7498 85.7974 46.1633C87.5418 45.609 89.2862 45.3536 91.0305 45.346C92.7749 45.3422 94.5193 45.6014 96.2636 46.1557C98.008 46.7403 99.7524 47.552 101.497 49.1299C99.7524 50.704 98.008 51.5213 96.2636 52.104C94.5193 52.6583 92.7749 52.9175 91.0305 52.9137C89.2862 52.9062 87.5418 52.6508 85.7974 52.0926C84.0531 51.5099 82.3087 50.6964 80.5643 49.1299Z" fill="black"/>
</svg>
