<svg width="115" height="115" viewBox="0 0 115 115" fill="none" xmlns="http://www.w3.org/2000/svg">
<path d="M113.861 68.8289C112.989 73.2372 111.609 77.4562 109.774 81.4293C107.863 82.0347 105.65 82.2049 103.359 81.8266C97.2097 80.8049 92.8394 76.1507 93.634 71.4587C94.4097 66.7667 100.029 63.7964 106.196 64.818C109.394 65.3478 112.099 66.8613 113.861 68.8289Z" fill="#FF9A61"/>
<path d="M20.9855 71.4587C21.7802 76.1507 17.4079 80.8049 11.2591 81.8266C9.14012 82.186 7.09682 82.0536 5.28055 81.5617C3.36969 77.4562 1.95074 73.0858 1.08044 68.5073C2.82103 66.691 5.413 65.3289 8.42118 64.818C14.5889 63.7964 20.2098 66.7667 20.9855 71.4587Z" fill="#FF9A61"/>
<path d="M114.994 57.4961C114.994 61.3745 114.616 65.1773 113.859 68.8288C112.097 66.8612 109.394 65.3476 106.195 64.8179C100.027 63.7962 94.4097 66.7666 93.6321 71.4586C92.8375 76.1506 97.2078 80.8047 103.357 81.8264C105.648 82.2048 107.861 82.0345 109.772 81.4291C100.71 101.238 80.712 114.992 57.496 114.992C34.3198 114.992 14.3617 101.294 5.27847 81.5615C7.09473 82.0534 9.13804 82.1859 11.257 81.8264C17.4058 80.8047 21.7781 76.1506 20.9835 71.4586C20.2078 66.7666 14.5868 63.7962 8.4191 64.8179C5.41091 65.3287 2.81895 66.6909 1.07836 68.5071C0.359425 64.9503 0 61.261 0 57.4961C0 25.7304 25.7322 0 57.496 0C89.2655 0 114.994 25.7304 114.994 57.4961Z" fill="#F7C8BB"/>
<path d="M26.8391 48.131C26.8391 50.5868 24.8469 52.5771 22.3911 52.5771C19.9354 52.5771 17.9451 50.5868 17.9451 48.131C17.9451 45.6772 19.9354 43.685 22.3911 43.685C24.8469 43.685 26.8391 45.6753 26.8391 48.131Z" fill="black"/>
<path d="M97.4064 48.131C97.4064 50.5867 95.4161 52.5771 92.9585 52.5771C90.5046 52.5771 88.5125 50.5867 88.5125 48.131C88.5125 45.6771 90.5046 43.6849 92.9585 43.6849C95.4161 43.6849 97.4064 45.6752 97.4064 48.131Z" fill="black"/>
<path d="M57.6758 75.4866C52.4597 75.4866 48.2161 70 48.2161 63.2552C48.2161 62.472 48.8518 61.8363 49.6351 61.8363C50.4183 61.8363 51.054 62.472 51.054 63.2552C51.054 68.4354 54.0244 72.6487 57.6758 72.6487C61.3292 72.6487 64.2995 68.4335 64.2995 63.2552C64.2995 62.472 64.9352 61.8363 65.7185 61.8363C66.5017 61.8363 67.1374 62.472 67.1374 63.2552C67.1374 70 62.8919 75.4866 57.6758 75.4866Z" fill="black"/>
</svg>
