<svg width="115" height="115" viewBox="0 0 115 115" fill="none" xmlns="http://www.w3.org/2000/svg">
<path d="M113.859 68.829C112.987 73.2372 111.607 77.4562 109.772 81.4293C107.861 82.0328 105.648 82.2031 103.357 81.8266C97.2078 80.8049 92.8374 76.1507 93.632 71.4587C94.4077 66.7686 100.027 63.7964 106.194 64.8181C109.394 65.3478 112.097 66.8613 113.859 68.829Z" fill="#FF9A61"/>
<path d="M20.9836 71.4588C21.7782 76.1508 17.4059 80.805 11.2571 81.8267C9.13817 82.1861 7.09486 82.0518 5.2786 81.5599C3.36774 77.4544 1.94878 73.0859 1.07849 68.5074C2.81908 66.6911 5.41104 65.3271 8.41923 64.8181C14.587 63.7965 20.2079 66.7668 20.9836 71.4588Z" fill="#FF9A61"/>
<path d="M114.994 57.496C114.994 61.3745 114.616 65.1773 113.859 68.8288C112.097 66.8612 109.394 65.3476 106.195 64.8179C100.027 63.7962 94.4097 66.7665 93.6322 71.4586C92.8375 76.1506 97.2079 80.8048 103.357 81.8264C105.648 82.2029 107.861 82.0326 109.772 81.4291C100.71 101.238 80.7121 114.99 57.4961 114.99C34.3198 114.99 14.3617 101.294 5.27853 81.5597C7.09479 82.0516 9.13809 82.184 11.2571 81.8264C17.4059 80.8048 21.7762 76.1506 20.9835 71.4586C20.2078 66.7684 14.5869 63.7962 8.41916 64.8179C5.41097 65.3287 2.819 66.6909 1.07842 68.5071C0.359482 64.9503 0 61.261 0 57.496C0 25.7304 25.7323 0 57.4961 0C89.2637 0 114.994 25.7304 114.994 57.496Z" fill="#F7C8BB"/>
<path d="M26.8371 48.1312C26.8371 50.5869 24.8449 52.5772 22.3911 52.5772C19.9353 52.5772 17.945 50.5869 17.945 48.1312C17.945 45.6773 19.9353 43.6851 22.3911 43.6851C24.8449 43.6851 26.8371 45.6773 26.8371 48.1312Z" fill="black"/>
<path d="M57.6758 75.4848C52.4597 75.4848 48.2161 69.9982 48.2161 63.2535C48.2161 62.4702 48.8518 61.8345 49.635 61.8345C50.4183 61.8345 51.054 62.4702 51.054 63.2535C51.054 68.4317 54.0243 72.6469 57.6758 72.6469C61.3291 72.6469 64.2995 68.4317 64.2995 63.2535C64.2995 62.4702 64.9352 61.8345 65.7184 61.8345C66.5017 61.8345 67.1374 62.4702 67.1374 63.2535C67.1374 69.9982 62.8937 75.4848 57.6758 75.4848Z" fill="black"/>
<path d="M87.629 53.4909C83.8035 53.4909 80.6913 50.2102 80.6913 46.1747C80.6913 45.3915 81.327 44.7558 82.1102 44.7558C82.8935 44.7558 83.5292 45.3915 83.5292 46.1747C83.5292 48.6456 85.3681 50.653 87.629 50.653C89.888 50.653 91.7269 48.6437 91.7269 46.1747C91.7269 45.3915 92.3626 44.7558 93.1459 44.7558C93.9291 44.7558 94.5648 45.3915 94.5648 46.1747C94.5648 50.2102 91.4526 53.4909 87.629 53.4909Z" fill="black"/>
</svg>
