<svg width="115" height="115" viewBox="0 0 115 115" fill="none" xmlns="http://www.w3.org/2000/svg">
<path d="M113.857 68.8289C112.989 73.2371 111.607 77.4561 109.77 81.4292C107.859 82.0328 105.646 82.2031 103.359 81.8266C97.2097 80.8049 92.8375 76.1507 93.6321 71.4587C94.4078 66.7686 100.027 63.7963 106.196 64.818C109.394 65.3477 112.097 66.8613 113.857 68.8289Z" fill="#FF9A61"/>
<path d="M20.9817 71.4567C21.7763 76.1488 17.4059 80.8048 11.2571 81.8246C9.13812 82.1822 7.09483 82.0498 5.27857 81.5579C3.36771 77.4523 1.94875 73.0838 1.07846 68.5053C2.81905 66.6891 5.411 65.325 8.41919 64.816C14.5888 63.7963 20.206 66.7666 20.9817 71.4567Z" fill="#FF9A61"/>
<path d="M114.994 57.496C114.994 61.3745 114.616 65.1773 113.857 68.8287C112.097 66.8611 109.394 65.3476 106.196 64.8178C100.027 63.7962 94.4097 66.7665 93.6321 71.4586C92.8375 76.1506 97.2098 80.8067 103.359 81.8264C105.646 82.2029 107.859 82.0326 109.77 81.4291C100.71 101.238 80.7121 114.99 57.498 114.99C34.3217 114.99 14.3598 101.294 5.27851 81.5596C7.09477 82.0515 9.13807 82.184 11.257 81.8264C17.4058 80.8048 21.7762 76.1506 20.9816 71.4586C20.2059 66.7684 14.5887 63.7962 8.41913 64.8178C5.41095 65.3287 2.81899 66.6909 1.07841 68.5071C0.359468 64.9503 0 61.261 0 57.496C0 25.7304 25.7304 0 57.498 0C89.2617 0 114.994 25.7304 114.994 57.496Z" fill="#FAB9B9"/>
<path d="M32.6114 55.4469C31.8281 55.4469 31.1924 54.8112 31.1924 54.0279C31.1924 51.5571 29.3535 49.5498 27.0945 49.5498C24.8336 49.5498 22.9947 51.559 22.9947 54.0279C22.9947 54.8112 22.359 55.4469 21.5757 55.4469C20.7924 55.4469 20.1568 54.8112 20.1568 54.0279C20.1568 49.9924 23.269 46.7119 27.0945 46.7119C30.9181 46.7119 34.0303 49.9924 34.0303 54.0279C34.0303 54.8112 33.3947 55.4469 32.6114 55.4469Z" fill="black"/>
<path d="M92.8716 55.4468C92.0884 55.4468 91.4527 54.8111 91.4527 54.0279C91.4527 51.557 89.6137 49.5497 87.3547 49.5497C85.0939 49.5497 83.2549 51.5589 83.2549 54.0279C83.2549 54.8111 82.6192 55.4468 81.8359 55.4468C81.0527 55.4468 80.417 54.8111 80.417 54.0279C80.417 49.9924 83.5292 46.7118 87.3547 46.7118C91.1783 46.7118 94.2906 49.9924 94.2906 54.0279C94.2906 54.8111 93.6549 55.4468 92.8716 55.4468Z" fill="black"/>
<path d="M46.801 66.1989C46.6421 67.3189 46.557 68.4768 46.557 69.6649C46.557 78.9619 51.6406 86.4995 57.9086 86.4995C64.1766 86.4995 69.2602 78.9619 69.2602 69.6649C69.2602 68.4768 69.1751 67.3189 69.0162 66.1989H46.801Z" fill="#FF7C5F"/>
<path d="M57.9086 81.0224C57.3864 81.0224 56.9626 80.5986 56.9626 80.0764V79.2421C56.9626 78.7199 57.3864 78.2961 57.9086 78.2961C58.4308 78.2961 58.8546 78.7199 58.8546 79.2421V80.0764C58.8546 80.6005 58.4308 81.0224 57.9086 81.0224Z" fill="black"/>
<path d="M57.9086 76.2943C57.3864 76.2943 56.9626 75.8705 56.9626 75.3483V66.1989C56.9626 65.6767 57.3864 65.2529 57.9086 65.2529C58.4308 65.2529 58.8546 65.6767 58.8546 66.1989V75.3483C58.8546 75.8705 58.4308 76.2943 57.9086 76.2943Z" fill="black"/>
<path d="M73.9901 67.6179H41.8271C41.0438 67.6179 40.4082 66.9822 40.4082 66.1989C40.4082 65.4157 41.0438 64.78 41.8271 64.78H73.9901C74.7734 64.78 75.409 65.4157 75.409 66.1989C75.409 66.9822 74.7734 67.6179 73.9901 67.6179Z" fill="black"/>
</svg>
