<svg width="115" height="115" viewBox="0 0 115 115" fill="none" xmlns="http://www.w3.org/2000/svg">
<path d="M113.859 68.8305C112.987 73.2388 111.606 77.4578 109.772 81.4309C107.861 82.0344 105.648 82.2046 103.357 81.8263C97.2079 80.8065 92.8356 76.1504 93.6302 71.4603C94.4059 66.7702 100.027 63.798 106.195 64.8177C109.392 65.3494 112.097 66.861 113.859 68.8305Z" fill="#FF9A61"/>
<path d="M20.9817 71.4604C21.7764 76.1505 17.406 80.8066 11.2572 81.8263C9.1382 82.1858 7.09492 82.0534 5.27866 81.5615C3.3678 77.456 1.94884 73.0875 1.07855 68.509C2.81914 66.6908 5.41108 65.3286 8.41926 64.8178C14.587 63.7981 20.206 66.7684 20.9817 71.4604Z" fill="#FF9A61"/>
<path d="M114.994 57.4979C114.994 61.3764 114.614 65.1793 113.859 68.8307C112.096 66.8612 109.392 65.3495 106.195 64.8179C100.027 63.7981 94.4078 66.7684 93.6302 71.4605C92.8356 76.1506 97.2079 80.8067 103.357 81.8264C105.648 82.2048 107.861 82.0346 109.772 81.431C100.708 101.238 80.7102 114.992 57.4961 114.992C34.3198 114.992 14.3598 101.296 5.27853 81.5616C7.09479 82.0535 9.13807 82.1859 11.257 81.8264C17.4058 80.8067 21.7762 76.1506 20.9816 71.4605C20.2059 66.7703 14.5869 63.7981 8.41913 64.8179C5.41094 65.3306 2.819 66.6909 1.07842 68.509C0.359482 64.9503 0 61.2629 0 57.4979C0 25.7304 25.7304 0 57.4961 0C89.2636 0 114.994 25.7304 114.994 57.4979Z" fill="#F7C8BB"/>
<path d="M27.5468 57.1084C23.7213 57.1084 20.6091 53.8277 20.6091 49.7922C20.6091 49.009 21.2448 48.3733 22.028 48.3733C22.8113 48.3733 23.447 49.009 23.447 49.7922C23.447 52.2631 25.2859 54.2704 27.5468 54.2704C29.8058 54.2704 31.6447 52.2631 31.6447 49.7922C31.6447 49.009 32.2804 48.3733 33.0637 48.3733C33.847 48.3733 34.4827 49.009 34.4827 49.7922C34.4827 53.8258 31.3704 57.1084 27.5468 57.1084Z" fill="black"/>
<path d="M87.8088 57.1083C83.9852 57.1083 80.8692 53.8277 80.8692 49.7922C80.8692 49.0089 81.5049 48.3732 82.2882 48.3732C83.0714 48.3732 83.7071 49.0089 83.7071 49.7922C83.7071 52.2631 85.548 54.2704 87.8088 54.2704C90.0659 54.2704 91.9068 52.2631 91.9068 49.7922C91.9068 49.0089 92.5425 48.3732 93.3257 48.3732C94.109 48.3732 94.7447 49.0089 94.7447 49.7922C94.7447 53.8258 91.6324 57.1083 87.8088 57.1083Z" fill="black"/>
<path d="M57.7556 74.9961L57.7572 74.9977C58.6325 75.865 59.7467 76.6127 60.8818 76.9529C62.0236 77.295 63.2518 77.2372 64.2214 76.3745L64.2226 76.3734C64.611 76.0255 64.8884 75.629 65.0046 75.1592C65.1207 74.6904 65.0616 74.207 64.8837 73.7112L64.8832 73.7098C64.5471 72.7819 63.8454 71.9658 63.1785 71.3879C62.8412 71.0957 62.4994 70.8527 62.1952 70.6783C62.0433 70.5912 61.8946 70.5176 61.7558 70.4637C61.624 70.4125 61.4709 70.3669 61.3186 70.3609L61.3094 70.3605L61.3002 70.3605C60.7927 70.3593 60.3838 69.9493 60.3838 69.4416C60.3838 68.9416 60.784 68.5347 61.2779 68.5226H61.2779H61.2779H61.2779H61.278H61.278H61.278H61.278H61.278H61.278H61.2781H61.2781H61.2781H61.2781H61.2781H61.2781H61.2781H61.2782H61.2782H61.2782H61.2782H61.2782H61.2782H61.2782H61.2783H61.2783H61.2783H61.2783H61.2783H61.2783H61.2784H61.2784H61.2784H61.2784H61.2784H61.2784H61.2785H61.2785H61.2785H61.2785H61.2785H61.2785H61.2786H61.2786H61.2786H61.2786H61.2786H61.2786H61.2787H61.2787H61.2787H61.2787H61.2787H61.2787H61.2788H61.2788H61.2788H61.2788H61.2788H61.2788H61.2789H61.2789H61.2789H61.2789H61.2789H61.2789H61.279H61.279H61.279H61.279H61.279H61.2791H61.2791H61.2791H61.2791H61.2791H61.2791H61.2792H61.2792H61.2792H61.2792H61.2792H61.2793H61.2793H61.2793H61.2793H61.2793H61.2794H61.2794H61.2794H61.2794H61.2794H61.2795H61.2795H61.2795H61.2795H61.2795H61.2796H61.2796H61.2796H61.2796H61.2796H61.2797H61.2797H61.2797H61.2797H61.2797H61.2798H61.2798H61.2798H61.2798H61.2799H61.2799H61.2799H61.2799H61.2799H61.28H61.28H61.28H61.28H61.2838H61.2838H61.2838H61.2838H61.2838H61.2838H61.2839H61.2839H61.2839H61.2839H61.2839H61.2839H61.2839H61.2839H61.2839H61.2839H61.2839H61.2839H61.284H61.284H61.284H61.284H61.284H61.284H61.284H61.284H61.284H61.2841H61.2841H61.2841H61.2841H61.2841H61.2841H61.2841H61.2841H61.2841H61.2842H61.2842H61.2842H61.2842H61.2842H61.2842H61.2842H61.2842H61.2842H61.2842H61.2842H61.2842H61.2842H61.2843H61.2843H61.2843H61.2843H61.2843H61.2843H61.2843H61.2843H61.2843H61.2843H61.2843H61.2843H61.2844H61.2844H61.2844H61.2844H61.2844H61.2844H61.2844H61.2844H61.2844H61.2844H61.2844H61.2845H61.2845H61.2845H61.2845H61.2845H61.2845H61.2845H61.2845H61.2845H61.2845H61.2846H61.2846H61.2846H61.2846H61.2846H61.2846H61.2846H61.2846H61.2846H61.2847H61.2847H61.2847H61.2847H61.2847H61.2847H61.2847H61.2847H61.2847H61.2848H61.2848H61.2848H61.2848H61.2848H61.2848H61.2848H61.2848H61.2848H61.2849H61.2849H61.2849H61.2849H61.2849H61.2849H61.2849H61.2849H61.285H61.285H61.285H61.285H61.285H61.285H61.285H61.285H61.2851H61.2851H61.2851H61.2851H61.2851H61.2851H61.2851H61.2852H61.2852H61.2852H61.2852H61.2852H61.2852H61.2852H61.2852H61.2853H61.2853H61.2853H61.2853H61.2853H61.2853H61.2853H61.2854H61.2854H61.2854H61.2854H61.2854H61.2854H61.2854H61.2855H61.2855H61.2855H61.2855H61.2855H61.2855H61.2855H61.2856H61.2856H61.2856H61.2856H61.2856H61.2856H61.2856H61.2857H61.2857H61.2857H61.2857H61.2857H61.2857H61.2858H61.2858H61.2858H61.2858H61.2858H61.2858H61.2858H61.2859H61.2859H61.2859H61.2859H61.2859H61.2859H61.286H61.286H61.286H61.286H61.286H61.286H61.2861H61.2861H61.2861H61.2861H61.2861H61.2861H61.2862H61.2862H61.2862H61.2862H61.2862H61.2862H61.2863H61.2863H61.2863H61.2863H61.2863H61.2863H61.2864H61.2864H61.2864H61.2864H61.2864H61.2864H61.2865H61.2865H61.2865H61.2865H61.2865H61.2865H61.2866H61.2866H61.2866H61.2866H61.2866H61.2867H61.2867H61.2867H61.2867H61.2867H61.2867H61.2868H61.2868H61.2868H61.2868H61.2868H61.2869H61.2869H61.2869H61.2869H61.2869H61.2869H61.287H61.287H61.287H61.287H61.287H61.2871H61.2871H61.2871H61.2871H61.2871H61.2871H61.2872H61.2872H61.2872H61.2872H61.2872H61.2873H61.2873H61.2873H61.2873H61.2873H61.2874H61.2874H61.2874H61.2874H61.2874H61.2874H61.2875H61.2875H61.2875H61.2875H61.2875H61.2876H61.2876H61.2876H61.2876H61.2876H61.2877H61.2877H61.2877H61.2877H61.2877H61.2878H61.2878H61.2878H61.2878H61.2878H61.2879H61.2879H61.2879H61.2879H61.2879H61.288H61.288H61.288H61.288H61.288H61.2881H61.2881H61.2881H61.2881H61.2881H61.2882H61.2882H61.2882H61.2882H61.2882H61.2883H61.2883H61.2883H61.2883H61.2883H61.2884H61.2884H61.2884H61.2884H61.2884H61.2885H61.2885H61.2885H61.2885H61.2886H61.2886H61.2886H61.2886H61.2886H61.2887H61.2887H61.2887H61.2887H61.2887H61.2888H61.2888H61.2888H61.2888H61.2888H61.2889H61.2889H61.2889H61.2889H61.2889H61.289H61.289H61.289H61.289H61.2891H61.2891H61.2891H61.2891H61.2891H61.2892H61.2892H61.2892H61.2892H61.2892H61.2893H61.2893H61.2893H61.2893H61.2894H61.2894H61.2894H61.2894H61.2894H61.2895H61.2895H61.2895H61.2895H61.2895H61.2896H61.2896H61.2896H61.2896H61.2897H61.2897H61.2897H61.2897H61.2897H61.2898H61.2898H61.2898H61.2898H61.2899H61.2899H61.2899H61.2899H61.2899H61.29H61.29H61.29H61.29H61.29H61.2901H61.2901H61.2901H61.2901H61.2902H61.2902H61.2902H61.2902H61.2902H61.2903H61.2903H61.2903H61.2903H61.2904H61.2904H61.2904H61.2904H61.2904H61.2905H61.2905H61.2905H61.2905H61.2906H61.2906H61.2906H61.2906H61.2906H61.2907H61.2907H61.2907H61.2907H61.2908H61.2908H61.2908H61.2908H61.2908H61.2909H61.2909H61.2909H61.2909H61.291H61.291H61.291H61.291H61.291H61.2911H61.2911H61.2911H61.2911H61.2912H61.2912H61.2912H61.2912H61.2912H61.2913H61.2913H61.2913H61.2913H61.2913H61.2914H61.2914H61.2914H61.2914H61.2914H61.2914H61.2914H61.2914H61.2914H61.2914H61.2914H61.2915H61.2915H61.2915H61.2915H61.2915H61.2915H61.2915H61.2915H61.2915H61.2915H61.2915H61.2915H61.2916H61.2916H61.2916H61.2916H61.2916H61.2916H61.2916H61.2916H61.2916H61.2916H61.2916H61.2916H61.2917H61.2917H61.2917H61.2917H61.2917H61.2917H61.2917H61.2917H61.2917H61.2917H61.2917H61.2917H61.2918H61.2918H61.2918H61.2918H61.2918H61.2918H61.2918H61.2918H61.2918H61.2919H61.2919H61.2919H61.2919H61.2919H61.2919H61.2919H61.2919H61.2919H61.292H61.292H61.292H61.292H61.292H61.292H61.292H61.292H61.2921H61.2921H61.2921H61.2921H61.2921H61.2921H61.2921H61.2921H61.2921H61.2921H61.2921H61.2921H61.2921H61.2922H61.2922H61.2922H61.2922H61.2922H61.2922H61.2922H61.2922H61.2922H61.2922H61.2922H61.2922H61.2922H61.2923H61.2923H61.2923H61.2923H61.2923H61.2923H61.2923H61.2923H61.2923H61.2923H61.2923H61.2923H61.2924H61.2924H61.2924H61.2924H61.2924H61.2924H61.2924H61.2924H61.2924H61.2924H61.2925H61.2925H61.2925H61.2925H61.2925H61.2925H61.2925H61.2925H61.2925H61.2925H61.2925H61.2926H61.2926H61.2926H61.2926H61.2926H61.2926H61.2926H61.2926H61.2926H61.2927H61.2927H61.2927H61.2927H61.2927H61.2927H61.2927H61.2927H61.2927H61.2928H61.2928H61.2928H61.2928H61.2928H61.2928H61.2928H61.2928H61.2928H61.2929H61.2929H61.2929H61.2929H61.2929H61.2929H61.2929H61.2929H61.293H61.293H61.293H61.293H61.293H61.293H61.293H61.293H61.2931H61.2931H61.2931H61.2931H61.2931H61.2931H61.2931H61.2931H61.2932H61.2932H61.2932H61.2932H61.2932H61.2932H61.2932H61.2933H61.2933H61.2933H61.2933H61.2933H61.2933H61.2933H61.2934H61.2934H61.2934H61.2934H61.2934H61.2934H61.2934H61.2935H61.2935H61.2935H61.2935H61.2935H61.2935H61.2935H61.2936H61.2936H61.2936H61.2936H61.2936H61.2936H61.2937H61.2937H61.2937H61.2937H61.2937H61.2937H61.2937H61.2938H61.2938H61.2938H61.2938H61.2938H61.2938H61.2939H61.2939H61.2939H61.2939H61.2939H61.2939H61.294H61.294H61.294H61.294H61.294H61.2941H61.2941H61.2941H61.2941H61.2941H61.2941H61.2942H61.2942H61.2942H61.2942H61.2942H61.2943H61.2943H61.2943H61.2943H61.2943H61.2943H61.2944H61.2944H61.2944H61.2944H61.2944H61.2945H61.2945H61.2945H61.2945H61.2945H61.2946H61.2946H61.2946H61.2946H61.2946H61.2947H61.2947H61.2947H61.2947H61.2947H61.2948H61.2948H61.2948H61.2948H61.2948H61.2949H61.2949H61.2949H61.2949H61.2949H61.295H61.295H61.295H61.295H61.2951H61.2951H61.2951H61.2951H61.2951H61.2952H61.2952H61.2952H61.2952H61.2952H61.2953H61.2953H61.2953H61.2953H61.2954H61.2954H61.2954H61.2954H61.2954H61.2955H61.2955H61.2955H61.2955H61.2955H61.2956H61.2956H61.2956H61.2956H61.2957H61.2957H61.2957H61.2957H61.2957H61.2958H61.2958H61.2958H61.2958H61.2958H61.2958H61.2959H61.2959H61.2959H61.2959H61.2959H61.296H61.296H61.296H61.296H61.296H61.2961H61.2961H61.2961H61.2961H61.2961H61.2962H61.2962H61.2962H61.2962H61.2962H61.2962H61.2963H61.2963H61.2963H61.2963H61.2963H61.2964H61.2964H61.2964H61.2964H61.2964H61.2964H61.2965H61.2965H61.2965H61.2965H61.2965H61.2965H61.2966H61.2966H61.2966H61.2966H61.2966H61.2966H61.2967H61.2967H61.2967H61.2967H61.2967H61.2967H61.2968H61.2968H61.2968H61.2968H61.2968H61.2968H61.2969H61.2969H61.2969H61.2969H61.2969H61.2969H61.2969H61.297H61.297H61.297H61.297H61.297H61.297H61.2971H61.2971H61.2971H61.2971H61.2971H61.2971H61.2971H61.2972H61.2972H61.2972H61.2972H61.2972H61.2972H61.2972H61.2973H61.2973H61.2973H61.2973H61.2973H61.2973H61.2973H61.2974H61.2974H61.2974H61.2974H61.2974H61.2974H61.2974H61.2975H61.2975H61.2975H61.2975H61.2975H61.2975H61.2975H61.2976H61.2976H61.2976H61.2976H61.2976H61.2976H61.2976H61.2976H61.2977H61.2977H61.2977H61.2977H61.2977H61.2977H61.2977H61.2977H61.2978H61.2978H61.2978H61.2978H61.2978H61.2978H61.2978H61.2979H61.2979H61.2979H61.2979H61.2979H61.2979H61.2979H61.2979H61.298H61.298H61.298H61.298H61.298H61.298H61.298H61.298H61.298H61.2981H61.2981H61.2981H61.2981H61.2981H61.2981H61.2981H61.2981H61.2982H61.2982H61.2982H61.2982H61.2982H61.2982H61.2982H61.2982H61.2983H61.2983H61.2983H61.2983H61.2983H61.2983H61.2983H61.2983H61.2983H61.2984H61.2984H61.2984H61.2984H61.2984H61.2984H61.2984H61.2984H61.2984H61.2985H61.2985H61.2985H61.2985H61.2985H61.2985H61.2985H61.2985H61.2986H61.2986H61.2986H61.2986H61.2986H61.2986H61.2986H61.2986H61.2986H61.2987H61.2987H61.2987H61.2987H61.2987H61.2987H61.2987H61.2987H61.2987H61.2988H61.2988H61.2988H61.2988H61.2988H61.2988H61.2988H61.2988H61.2988H61.2989H61.2989H61.2989H61.2989H61.2989H61.2989H61.2989H61.2989H61.2989H61.299H61.299H61.299H61.299H61.299H61.299H61.299H61.299H61.299H61.2991H61.2991H61.2991H61.2991H61.2991H61.2991H61.2991H61.2991H61.2991H61.2992H61.2992H61.2992H61.2992H61.2992H61.2992H61.2992H61.2992H61.2992H61.2993H61.2993H61.2993H61.2993H61.2993H61.2993H61.2993H61.2993H61.2993H61.2994H61.2994H61.2994H61.2994H61.2994H61.2994H61.2994H61.2994H61.2994H61.2995H61.2995H61.2995H61.2995H61.2995H61.2995H61.2995H61.2995H61.2995H61.2996H61.2996H61.2996H61.2996H61.2996H61.2996H61.2996H61.2996H61.2997H61.2997H61.2997H61.2997H61.2997H61.2997H61.2997H61.2997H61.2997H61.2998H61.2998H61.2998H61.2998H61.2998H61.2998H61.2998H61.2998H61.2999H61.2999H61.2999H61.2999H61.2999H61.2999H61.2999H61.2999H61.3H61.3H61.3H61.3H61.3H61.3H61.3H61.3H61.3001H61.3001H61.3001H61.3001H61.3001H61.3001H61.3001H61.3001H61.3002H61.3002H61.3002H61.3002H61.3002H61.3002H61.3002H61.3002H61.3003H61.3003H61.3003H61.3003H61.3003H61.3003H61.3003H61.3004H61.3004H61.3004H61.3004H61.3004H61.3004H61.3004H61.3004H61.3005H61.3005H61.3005H61.3005H61.3005H61.3005H61.3005H61.3006H61.3006H61.3006H61.3006H61.3006H61.3006H61.3006H61.3007H61.3007H61.3007H61.3007H61.3007H61.3007H61.3007H61.3008H61.3008H61.3008H61.3008H61.3008H61.3008H61.3008H61.3009H61.3009H61.3009H61.3009H61.3009H61.3009H61.301H61.301H61.301H61.301H61.301H61.301H61.301H61.3011H61.3011H61.3011H61.3011H61.3011H61.3011H61.3012H61.3012H61.3012H61.3012H61.3012H61.3012H61.3013H61.3013H61.3013H61.3013H61.3013H61.3013H61.3014H61.3014H61.3014H61.3014H61.3014H61.3014H61.3015H61.3015H61.3015H61.3015H61.3015H61.3015H61.3016H61.3016H61.3016H61.3016H61.3016H61.3016H61.3017H61.3017H61.3017H61.3017H61.3017H61.3018H61.3018H61.3018H61.3018H61.3018H61.3018H61.3019H61.3019H61.3019H61.3019H61.3019H61.302H61.302H61.302H61.302H61.302H61.3021H61.3021H61.3021H61.3021H61.3021H61.3022H61.3022H61.3022H61.3022H61.3022H61.3023H61.3023H61.3023H61.3023H61.3023H61.3024H61.3024H61.3024H61.3024H61.3024H61.3025H61.3025H61.3025H61.3025H61.3026H61.3026H61.3026H61.3026H61.3026H61.3027H61.3027H61.3027H61.3027H61.3027H61.3126L61.3224 68.5222C61.4745 68.5162 61.6275 68.4706 61.759 68.4195C61.8977 68.3657 62.0463 68.2922 62.1983 68.2052C62.5025 68.0309 62.8445 67.788 63.182 67.4957C63.8492 66.9178 64.5513 66.1007 64.8855 65.1701L64.8856 65.17C65.0632 64.6751 65.1236 64.1918 65.0081 63.7228C64.8923 63.2526 64.6144 62.8562 64.2236 62.5089C63.2942 61.6775 62.1248 61.5833 61.0196 61.8818C59.9237 62.1778 58.8408 62.8673 57.9621 63.6942C57.589 64.042 57.0085 64.0233 56.6613 63.6544C56.3133 63.2829 56.331 62.7027 56.701 62.3559L56.7017 62.3552C59.7384 59.4976 63.2247 59.1531 65.4479 61.138C66.8486 62.3892 67.2584 64.1041 66.5776 65.8956C66.1341 67.0529 65.2333 68.205 64.1933 69.0543L63.7196 69.4412L64.1929 69.8285C65.2338 70.6803 66.1341 71.8306 66.5736 72.9869L66.574 72.9878C67.2581 74.7768 66.849 76.49 65.4476 77.7434L65.4475 77.7435C64.5173 78.5761 63.3705 78.9859 62.1333 78.9859C60.3141 78.9859 58.2701 78.0945 56.4617 76.3026C56.1028 75.9443 56.1009 75.362 56.4569 75.0021C56.8147 74.6421 57.3994 74.6399 57.7556 74.9961Z" fill="black" stroke="black"/>
</svg>
