<svg width="115" height="115" viewBox="0 0 115 115" fill="none" xmlns="http://www.w3.org/2000/svg">
<path d="M113.859 68.829C112.987 73.2372 111.607 77.4581 109.772 81.4293C107.861 82.0347 105.648 82.205 103.357 81.8285C97.2078 80.805 92.8374 76.1527 93.632 71.4607C94.4077 66.7686 100.027 63.7964 106.195 64.8181C109.394 65.3478 112.099 66.8614 113.859 68.829Z" fill="#FF9A61"/>
<path d="M20.9835 71.4603C21.7781 76.1523 17.4058 80.8046 11.257 81.8281C9.13807 82.1857 7.09477 82.0532 5.27851 81.5613C3.36765 77.4558 1.94869 73.0855 1.0784 68.507C2.81898 66.6907 5.41094 65.3285 8.41913 64.8177C14.5869 63.7961 20.2078 66.7664 20.9835 71.4603Z" fill="#FF9A61"/>
<path d="M114.994 57.496C114.994 61.3764 114.616 65.1792 113.859 68.8288C112.097 66.8612 109.394 65.3476 106.195 64.8179C100.027 63.7962 94.4097 66.7666 93.6321 71.4605C92.8375 76.1525 97.2079 80.8048 103.357 81.8283C105.648 82.2048 107.861 82.0345 109.772 81.4291C100.71 101.24 80.7121 114.992 57.4961 114.992C34.3198 114.992 14.3617 101.294 5.27851 81.5615C7.09478 82.0534 9.13807 82.1859 11.257 81.8283C17.4059 80.8048 21.7762 76.1525 20.9835 71.4605C20.2078 66.7684 14.5869 63.7962 8.41914 64.8179C5.41095 65.3306 2.81899 66.6909 1.07841 68.5071C0.359468 64.9503 0 61.261 0 57.496C0 25.7304 25.7323 0 57.4961 0C89.2636 0 114.994 25.7304 114.994 57.496Z" fill="#CB806A"/>
<path d="M66.5489 68.282C65.7656 68.282 65.1299 67.6463 65.1299 66.8631C65.1299 63.0319 61.785 59.914 57.6757 59.914C53.5645 59.914 50.2195 63.03 50.2195 66.8631C50.2195 67.6463 49.5838 68.282 48.8006 68.282C48.0173 68.282 47.3816 67.6463 47.3816 66.8631C47.3816 61.4654 51.9999 57.076 57.6757 57.076C63.3515 57.076 67.9678 61.4654 67.9678 66.8631C67.9678 67.6463 67.3321 68.282 66.5489 68.282Z" fill="black"/>
<path d="M31.1886 48.2256H17.945C17.1617 48.2256 16.526 47.5899 16.526 46.8067C16.526 46.0234 17.1617 45.3877 17.945 45.3877H31.1886C31.9718 45.3877 32.6075 46.0234 32.6075 46.8067C32.6075 47.5918 31.9718 48.2256 31.1886 48.2256Z" fill="black"/>
<path d="M97.4083 48.2256H84.1647C83.3815 48.2256 82.7458 47.5899 82.7458 46.8067C82.7458 46.0234 83.3815 45.3877 84.1647 45.3877H97.4083C98.1916 45.3877 98.8273 46.0234 98.8273 46.8067C98.8273 47.5918 98.1916 48.2256 97.4083 48.2256Z" fill="black"/>
</svg>
