<svg width="115" height="115" viewBox="0 0 115 115" fill="none" xmlns="http://www.w3.org/2000/svg">
<path d="M113.859 68.8267C112.987 73.2349 111.607 77.4558 109.772 81.427C107.861 82.0324 105.648 82.2027 103.357 81.8262C97.2078 80.8027 92.8374 76.1504 93.632 71.4584C94.4077 66.7664 100.027 63.7941 106.195 64.8177C109.394 65.3455 112.097 66.861 113.859 68.8267Z" fill="#FF9A61"/>
<path d="M20.9834 71.4585C21.778 76.1505 17.4057 80.8028 11.2569 81.8263C9.13792 82.1839 7.09462 82.0514 5.27836 81.5595C3.3675 77.454 1.94854 73.0836 1.07825 68.5051C2.81883 66.6908 5.4108 65.3267 8.41898 64.8177C14.5867 63.7942 20.2077 66.7646 20.9834 71.4585Z" fill="#FF9A61"/>
<path d="M114.994 57.4942C114.994 61.3745 114.616 65.1773 113.859 68.8269C112.097 66.8612 109.394 65.3457 106.195 64.8179C100.027 63.7943 94.4078 66.7647 93.6321 71.4586C92.8375 76.1506 97.2079 80.8029 103.357 81.8264C105.648 82.2029 107.861 82.0326 109.772 81.4272C100.71 101.238 80.7121 114.994 57.4961 114.994C34.3198 114.994 14.3617 101.296 5.2785 81.5596C7.09476 82.0515 9.13807 82.184 11.257 81.8264C17.4058 80.8029 21.7781 76.1506 20.9835 71.4586C20.2078 66.7666 14.5869 63.7943 8.41913 64.8179C5.41094 65.3287 2.81898 66.6909 1.07839 68.5053C0.359454 64.9503 0 61.2591 0 57.4942C0 25.7304 25.7323 0 57.4961 0C89.2636 0 114.994 25.7304 114.994 57.4942Z" fill="#C8988A"/>
<path d="M43.2496 70.7964C42.6158 70.7964 42.0388 70.3707 41.8761 69.7293C41.6831 68.9688 42.1429 68.195 42.9015 68.0039L71.7536 60.6726C72.5047 60.4796 73.2861 60.9356 73.4772 61.6962C73.672 62.4567 73.2104 63.2305 72.4517 63.4216L43.5997 70.7529C43.4842 70.7832 43.3651 70.7964 43.2496 70.7964Z" fill="black"/>
<path d="M22.2132 54.8644C24.6687 54.8644 26.6593 52.8739 26.6593 50.4184C26.6593 47.9629 24.6687 45.9723 22.2132 45.9723C19.7577 45.9723 17.7672 47.9629 17.7672 50.4184C17.7672 52.8739 19.7577 54.8644 22.2132 54.8644Z" fill="black"/>
<path d="M97.2288 50.4183C97.2288 52.8721 95.2366 54.8643 92.7827 54.8643C90.327 54.8643 88.3367 52.8721 88.3367 50.4183C88.3367 47.9644 90.327 45.9722 92.7827 45.9722C95.2366 45.9722 97.2288 47.9644 97.2288 50.4183Z" fill="black"/>
</svg>
