<svg width="115" height="115" viewBox="0 0 115 115" fill="none" xmlns="http://www.w3.org/2000/svg">
<path d="M113.857 68.8325C112.989 73.2407 111.607 77.4579 109.77 81.4291C107.86 82.0345 105.646 82.2048 103.359 81.8283C97.2098 80.8048 92.8375 76.1525 93.6321 71.4604C94.4078 66.7722 100.029 63.8 106.197 64.8197C109.392 65.3514 112.097 66.863 113.857 68.8325Z" fill="#FF9A61"/>
<path d="M20.9837 71.4585C21.7783 76.1505 17.4079 80.8047 11.2591 81.8263C9.14012 82.1839 7.09682 82.0515 5.28055 81.5596C3.36969 77.4541 1.95074 73.0875 1.08044 68.509C2.82103 66.6908 5.413 65.3267 8.42118 64.8177C14.5889 63.7999 20.208 66.7702 20.9837 71.4585Z" fill="#FF9A61"/>
<path d="M114.994 57.4979C114.994 61.3745 114.614 65.1773 113.855 68.8306C112.096 66.8611 109.392 65.3495 106.195 64.8178C100.027 63.7981 94.4078 66.7684 93.6302 71.4586C92.8356 76.1506 97.2079 80.8048 103.357 81.8264C105.644 82.2029 107.858 82.0326 109.768 81.4272C100.708 101.238 80.7102 114.99 57.4961 114.99C34.3217 114.99 14.3598 101.293 5.27853 81.5597C7.09479 82.0516 9.13809 82.184 11.2571 81.8264C17.4059 80.8029 21.7763 76.1506 20.9816 71.4586C20.2059 66.7703 14.5869 63.7981 8.41916 64.8178C5.41097 65.3287 2.819 66.6909 1.07842 68.509C0.359482 64.9503 0 61.2629 0 57.4979C0 25.7304 25.7304 0 57.4961 0C89.2617 0.00189194 114.994 25.7323 114.994 57.4979Z" fill="#846258"/>
<path d="M65.1169 70.8023H50.5869C49.8036 70.8023 49.1679 70.1666 49.1679 69.3834C49.1679 68.6001 49.8036 67.9644 50.5869 67.9644H65.1169C65.9002 67.9644 66.5359 68.6001 66.5359 69.3834C66.5359 70.1666 65.9002 70.8023 65.1169 70.8023Z" fill="black"/>
<path d="M23.063 61.9252C22.6997 61.9252 22.3364 61.7871 22.0602 61.5089C21.5059 60.9546 21.5059 60.0559 22.0602 59.5016L29.7321 51.8279L22.0602 44.158C21.5059 43.6036 21.5059 42.705 22.0602 42.1506C22.6146 41.5963 23.5132 41.5963 24.0676 42.1506L33.7449 51.826L24.0676 61.5052C23.7895 61.7871 23.4262 61.9252 23.063 61.9252Z" fill="black"/>
<path d="M31.7374 53.2486H20.416C19.6328 53.2486 18.9971 52.6129 18.9971 51.8297C18.9971 51.0464 19.6328 50.4107 20.416 50.4107H31.7374C32.5207 50.4107 33.1564 51.0464 33.1564 51.8297C33.1564 52.6148 32.5207 53.2486 31.7374 53.2486Z" fill="black"/>
<path d="M90.0374 61.9252C89.6723 61.9252 89.309 61.7871 89.0328 61.509L79.3555 51.8298L89.0328 42.1545C89.5872 41.6001 90.4858 41.6001 91.0402 42.1545C91.5945 42.7088 91.5945 43.6074 91.0402 44.1618L83.3683 51.8317L91.0402 59.5054C91.5945 60.0598 91.5945 60.9584 91.0402 61.5128C90.7621 61.7871 90.3988 61.9252 90.0374 61.9252Z" fill="black"/>
<path d="M92.6824 53.2487H81.361C80.5778 53.2487 79.9421 52.613 79.9421 51.8297C79.9421 51.0465 80.5778 50.4108 81.361 50.4108H92.6824C93.4657 50.4108 94.1013 51.0465 94.1013 51.8297C94.1013 52.6149 93.4657 53.2487 92.6824 53.2487Z" fill="black"/>
</svg>
