<svg width="115" height="115" viewBox="0 0 115 115" fill="none" xmlns="http://www.w3.org/2000/svg">
<path d="M113.861 68.8289C112.99 73.239 111.607 77.4561 109.774 81.4273C107.863 82.0327 105.65 82.203 103.36 81.8265C97.2115 80.803 92.8392 76.1507 93.6338 71.4587C94.4095 66.7666 100.03 63.7963 106.198 64.816C109.394 65.3477 112.099 66.8612 113.861 68.8289Z" fill="#FF9A61"/>
<path d="M20.9854 71.4587C21.78 76.1507 17.4097 80.803 11.2609 81.8265C9.14001 82.1841 7.09671 82.0516 5.28234 81.5597C3.37148 77.4542 1.95251 73.0857 1.08032 68.5072C2.82091 66.691 5.41478 65.3269 8.42297 64.816C14.5907 63.7963 20.2097 66.7666 20.9854 71.4587Z" fill="#FF9A61"/>
<path d="M114.996 57.4961C114.996 61.3726 114.616 65.1754 113.859 68.8288C112.097 66.8611 109.394 65.3476 106.196 64.816C100.029 63.7962 94.4097 66.7665 93.6321 71.4586C92.8375 76.1506 97.2097 80.8029 103.359 81.8264C105.648 82.2029 107.861 82.0326 109.772 81.4272C100.71 101.238 80.712 114.99 57.4979 114.99C34.3217 114.99 14.3617 101.293 5.28038 81.5596C7.09475 82.0515 9.13805 82.184 11.2589 81.8264C17.4077 80.8029 21.7762 76.1506 20.9835 71.4586C20.2078 66.7665 14.5887 63.7962 8.421 64.816C5.41282 65.3268 2.81895 66.6909 1.07836 68.5071C0.361317 64.9484 0 61.261 0 57.4961C0 25.7304 25.7323 0 57.4979 0C89.2655 0 114.996 25.7304 114.996 57.4961Z" fill="#846258"/>
<path d="M65.8697 64.8405H50.3029C49.5196 64.8405 48.8839 64.2048 48.8839 63.4216C48.8839 62.6383 49.5196 62.0026 50.3029 62.0026H65.8697C66.653 62.0026 67.2887 62.6383 67.2887 63.4216C67.2887 64.2048 66.653 64.8405 65.8697 64.8405Z" fill="black"/>
<path d="M33.6404 55.6817C33.2772 55.6817 32.9139 55.5436 32.6377 55.2655L19.309 41.9368C18.7547 41.3824 18.7547 40.4837 19.309 39.9294C19.8633 39.3751 20.762 39.3751 21.3164 39.9294L34.645 53.2581C35.1994 53.8124 35.1994 54.7111 34.645 55.2655C34.3669 55.5417 34.0056 55.6817 33.6404 55.6817Z" fill="black"/>
<path d="M20.3134 55.6816C19.9501 55.6816 19.5869 55.5435 19.3107 55.2654C18.7563 54.7111 18.7563 53.8124 19.3107 53.258L32.6393 39.9293C33.1937 39.375 34.0924 39.375 34.6467 39.9293C35.201 40.4837 35.201 41.3823 34.6467 41.9367L21.318 55.2654C21.0379 55.5416 20.6766 55.6816 20.3134 55.6816Z" fill="black"/>
<path d="M94.245 55.6817C93.8817 55.6817 93.5185 55.5436 93.2422 55.2655L79.9135 41.9367C79.3592 41.3824 79.3592 40.4837 79.9135 39.9294C80.4678 39.375 81.3665 39.375 81.9209 39.9294L95.2496 53.2581C95.8039 53.8124 95.8039 54.7111 95.2496 55.2655C94.9696 55.5417 94.6082 55.6817 94.245 55.6817Z" fill="black"/>
<path d="M80.9162 55.6817C80.553 55.6817 80.1897 55.5436 79.9135 55.2655C79.3592 54.7111 79.3592 53.8124 79.9135 53.2581L93.2422 39.9294C93.7966 39.375 94.6953 39.375 95.2496 39.9294C95.8039 40.4837 95.8039 41.3824 95.2496 41.9367L81.9209 55.2655C81.6427 55.5417 81.2795 55.6817 80.9162 55.6817Z" fill="black"/>
</svg>
