<svg width="31" height="31" viewBox="0 0 31 31" fill="none" xmlns="http://www.w3.org/2000/svg">
<path d="M31 15.5C31 24.0604 24.0604 31 15.5 31C6.93959 31 0 24.0604 0 15.5C0 6.93959 6.93959 0 15.5 0C24.0604 0 31 6.93959 31 15.5Z" fill="#846258"/>
<path d="M20.6667 10.85C20.6667 10.85 23.25 10.5906 24.5417 11.1083C25.8333 11.626 29.5869 21.5679 29.1917 22.7321C28.7964 23.8963 26.2061 27.5476 22.7333 29.1917C23.7501 21.7952 23.1914 17.793 20.6667 10.85Z" fill="white"/>
<path d="M10.85 10.9157C10.85 10.9157 8.04137 10.6536 6.63706 11.1767C5.23274 11.6998 1.15181 21.7462 1.58153 22.9226C2.01125 24.099 4.82751 27.7886 8.6031 29.45C7.49764 21.9758 8.10512 17.9315 10.85 10.9157Z" fill="white"/>
<path d="M11.9493 9.5071C11.3667 10.4022 10.7081 10.7038 9.55833 10.9188C8.40858 11.1339 6.71667 11.199 6.71667 11.199" stroke="black" stroke-width="1.5" stroke-linecap="round"/>
<path d="M19.2455 9.48689C19.923 10.2349 20.5987 10.4568 21.7387 10.5704C22.8788 10.6841 24.5245 10.6306 24.5245 10.6306" stroke="black" stroke-width="1.5" stroke-linecap="round"/>
<path d="M15.6396 16.5341C14.6565 18.4819 13.3619 20.4297 11.4616 20.4297C9.56136 20.4297 8.26667 19.0884 8.26667 17.0906C8.26667 14.0297 10.2986 12.9167 12.1989 12.9167C14.0991 12.9167 15.6396 14.5362 15.6396 16.5341Z" fill="black"/>
<path d="M24.2413 17.0906C24.2413 19.0884 22.4551 20.4297 20.5549 20.4297C18.6546 20.4297 16.6227 18.5319 16.6227 16.5341C16.6227 14.5362 18.1631 12.9167 20.0634 12.9167C21.9636 12.9167 24.2413 14.0297 24.2413 17.0906Z" fill="black"/>
<path d="M13.9208 13.4757C13.9208 13.4757 14.9023 14.5862 16.132 14.5883C17.3616 14.5904 18.5888 13.4757 18.5888 13.4757C18.5888 13.4757 18.5099 19.7414 18.5888 19.595C18.6677 19.4485 15.6572 15.6168 13.4294 19.5975L13.9208 13.4757Z" fill="black"/>
</svg>
