<svg width="31" height="31" viewBox="0 0 31 31" fill="none" xmlns="http://www.w3.org/2000/svg">
<ellipse cx="15.9697" cy="15.5" rx="15.0303" ry="15.5" fill="#CB806A"/>
<path d="M5.63637 13.0781H13.1515" stroke="black" stroke-width="1.5" stroke-linecap="round"/>
<ellipse cx="11.2727" cy="14.5312" rx="1.87879" ry="1.9375" fill="black"/>
<path d="M19.2576 13.0781H26.7727" stroke="black" stroke-width="1.5" stroke-linecap="round"/>
<ellipse cx="24.8939" cy="14.5312" rx="1.87879" ry="1.9375" fill="black"/>
<path d="M14.743 26.9862C15.1089 22.2569 18.4635 18.6892 23.0151 18.6892C24.3674 18.6892 25.2321 18.6964 25.8113 18.7806C26.3736 18.8622 26.4421 18.9864 26.466 19.0297L26.4671 19.0315C26.4977 19.0868 26.5374 19.1963 26.5614 19.4179C26.5854 19.6392 26.5894 19.9244 26.58 20.3071C26.5743 20.5383 26.5635 20.8042 26.5515 21.1029C26.5251 21.7556 26.4924 22.5647 26.4924 23.5095C26.4924 23.6888 26.4935 23.8552 26.4955 24.0093C26.3393 23.9985 26.1755 24.008 26.0053 24.0393C25.2429 24.1795 24.3561 24.7553 23.2647 25.8906C20.9472 25.8905 20.6545 25.893 19.9505 26.0629C19.9067 26.0735 19.8605 26.0849 19.8108 26.0971C19.2252 26.2415 18.1517 26.5061 14.743 26.9862Z" stroke="black" stroke-width="1.5"/>
<ellipse cx="2.84058" cy="6.08539" rx="2.84058" ry="6.08539" transform="matrix(0.734875 0.678203 -0.655419 0.755266 26.5792 17.9456)" fill="#CB806A"/>
<ellipse cx="6.69798" cy="3.89919" rx="6.69798" ry="3.89919" transform="matrix(0.986122 0.166025 -0.156365 0.987699 10.6133 20.0572)" fill="#CB806A"/>
<ellipse cx="2.11538" cy="1.936" rx="2.11538" ry="1.936" transform="matrix(0.986122 0.166025 -0.156365 0.987699 15.5046 19.8594)" fill="#CB806A"/>
<ellipse cx="26.0682" cy="18.4062" rx="2.11364" ry="1.9375" fill="#CB806A"/>
<path d="M3.75758 17.6797C3.25929 17.6797 2.78141 17.4118 2.42907 16.9349C2.07673 16.458 1.87879 15.8112 1.87879 15.1367C1.87879 13.4414 3.75758 10.5806 3.75758 10.5806C3.75758 10.5806 5.63636 13.4414 5.63636 15.1367C5.63636 15.8112 5.43842 16.458 5.08608 16.9349C4.73374 17.4118 4.25586 17.6797 3.75758 17.6797Z" fill="white"/>
</svg>
