<svg width="31" height="31" viewBox="0 0 31 31" fill="none" xmlns="http://www.w3.org/2000/svg">
<ellipse cx="15.1205" cy="15.5" rx="15.1205" ry="15.5" fill="#F7C8BB"/>
<ellipse cx="13.3854" cy="23.25" rx="3.96603" ry="4.13333" fill="#FE9294"/>
<path d="M28.7537 20.925C29.4973 20.925 28.7537 22.475 28.0101 23.7667C27.2664 25.0583 25.2834 22.9494 25.2834 20.6667C25.2834 18.3839 27.307 16.5333 29.4973 16.5333C31.6877 16.5333 28.0101 20.925 28.7537 20.925Z" fill="#FE9294"/>
<ellipse cx="16.112" cy="18.8583" rx="2.23089" ry="2.325" fill="black"/>
<ellipse cx="25.2834" cy="17.5667" rx="1.98301" ry="2.06667" fill="black"/>
<path d="M20.8216 20.52L22.1004 22.2167" stroke="black" stroke-width="1.5" stroke-linecap="round"/>
<path d="M22.9518 20.15L22.2415 22.2174" stroke="black" stroke-width="1.5" stroke-linecap="round"/>
<path d="M29.2495 21.1833C28.258 23.25 29.2495 21.9583 28.0245 22.0093C27.7131 21.8594 27.874 20.805 28.3839 19.6543C28.8939 18.5035 29.5552 16.8126 30.051 16.8126C30.5467 16.8126 29.4278 20.8117 29.2495 21.1833Z" fill="#FF9197"/>
<path d="M25.1938 10.0854C25.4871 10.7304 25.6891 11.0239 26.5391 11.5415C27.3891 12.0592 28.3369 12.1521 28.3369 12.1521" stroke="black" stroke-width="1.5" stroke-linecap="round"/>
<path d="M15.6158 10.7153C15.4634 11.8094 14.9911 12.3242 14.0349 12.9062C13.0787 13.4881 11.5654 14.0889 11.5654 14.0889" stroke="black" stroke-width="1.5" stroke-linecap="round"/>
</svg>
