<svg width="115" height="114" viewBox="0 0 115 114" fill="none" xmlns="http://www.w3.org/2000/svg">
<path d="M113.375 68.2354C112.514 72.6056 111.144 76.7882 109.323 80.727C107.429 81.3272 105.234 81.496 102.967 81.1209C96.871 80.108 92.5364 75.494 93.3242 70.8425C94.0932 66.1909 99.6619 63.2462 105.78 64.2591C108.95 64.7842 111.63 66.2847 113.375 68.2354Z" fill="#FF9A61"/>
<path d="M21.3025 70.8425C22.0903 75.494 17.7576 80.108 11.6619 81.1209C9.56117 81.4772 7.53551 81.3459 5.73492 80.8583C3.84054 76.7882 2.43383 72.4555 1.57104 67.9165C3.29661 66.1159 5.8662 64.7655 8.84843 64.2591C14.9629 63.2462 20.5317 66.1909 21.3025 70.8425Z" fill="#FF9A61"/>
<path d="M114.5 57C114.5 60.845 114.127 64.615 113.375 68.2349C111.63 66.2843 108.95 64.7838 105.78 64.2586C99.662 63.2458 94.0951 66.1905 93.3243 70.842C92.5365 75.4936 96.8711 80.1076 102.967 81.1204C105.234 81.4956 107.429 81.3267 109.323 80.7265C100.341 100.364 80.5157 114 57.5019 114C34.5237 114 14.7378 100.421 5.73297 80.8579C7.53357 81.3455 9.55922 81.4768 11.6599 81.1204C17.7557 80.1076 22.0883 75.4936 21.3006 70.842C20.5316 66.1905 14.961 63.2458 8.84649 64.2586C5.86426 64.7651 3.29467 66.1155 1.5691 67.9161C0.856367 64.3899 0.5 60.7325 0.5 57C0.5 25.5084 26.0084 0 57.5019 0C88.9916 0 114.5 25.5084 114.5 57Z" fill="#FAB9B9"/>
<path d="M27.1037 47.7156C27.1037 50.1502 25.1306 52.1233 22.696 52.1233C20.2634 52.1233 18.2883 50.1502 18.2883 47.7156C18.2883 45.2829 20.2615 43.3079 22.696 43.3079C25.1306 43.3079 27.1037 45.2811 27.1037 47.7156Z" fill="black"/>
<path d="M97.0662 47.7159C97.0662 50.1504 95.0912 52.1236 92.6585 52.1236C90.2221 52.1236 88.2508 50.1504 88.2508 47.7159C88.2508 45.2832 90.2221 43.3082 92.6585 43.3082C95.0912 43.3082 97.0662 45.2813 97.0662 47.7159Z" fill="black"/>
<path d="M66.1071 74.0049C64.0008 77.6135 61.0036 79.8755 57.6706 79.8755C54.3508 79.8755 51.3404 77.6135 49.2491 74.0049C50.4682 70.535 53.7881 68.0591 57.6706 68.0591C61.5681 68.0591 64.8824 70.535 66.1071 74.0049Z" fill="#FF7C5F"/>
<path d="M69.1326 58.5665C69.2095 59.4368 69.2714 60.324 69.2714 61.2262C69.2714 66.1628 68.0803 70.6586 66.1053 74.0047C64.8824 70.5348 61.5663 68.059 57.6688 68.059C53.7863 68.059 50.4664 70.5348 49.2473 74.0047C47.2741 70.6568 46.0812 66.1628 46.0812 61.2262C46.0812 60.324 46.1413 59.4368 46.2182 58.5665H69.1326Z" fill="black"/>
</svg>
