<svg width="115" height="115" viewBox="0 0 115 115" fill="none" xmlns="http://www.w3.org/2000/svg">
<path d="M113.859 68.8309C112.989 73.2392 111.607 77.4582 109.772 81.4313C107.861 82.0367 105.648 82.207 103.359 81.8286C97.2097 80.8069 92.8375 76.1527 93.6321 71.4607C94.4078 66.7687 100.029 63.7984 106.196 64.82C109.392 65.3498 112.097 66.8633 113.859 68.8309Z" fill="#FF9A61"/>
<path d="M20.9836 71.4607C21.7782 76.1527 17.4079 80.8069 11.259 81.8286C9.14007 82.1881 7.09677 82.0556 5.28051 81.5637C3.36965 77.4582 1.95069 73.0878 1.0804 68.5093C2.82098 66.693 5.41295 65.3309 8.42114 64.82C14.5889 63.7984 20.2079 66.7687 20.9836 71.4607Z" fill="#FF9A61"/>
<path d="M114.994 57.4961C114.994 61.3745 114.614 65.1773 113.857 68.8288C112.096 66.8612 109.392 65.3476 106.195 64.8179C100.027 63.7962 94.4078 66.7666 93.6302 71.4586C92.8356 76.1506 97.2079 80.8048 103.357 81.8264C105.646 82.2048 107.86 82.0345 109.77 81.4291C100.708 101.238 80.7102 114.992 57.4961 114.992C34.3198 114.992 14.3598 101.294 5.27851 81.5615C7.09478 82.0534 9.13808 82.1859 11.2571 81.8264C17.4059 80.8048 21.7762 76.1506 20.9816 71.4586C20.2059 66.7666 14.5869 63.7962 8.41914 64.8179C5.41096 65.3287 2.81899 66.6909 1.07841 68.5072C0.359468 64.9503 0 61.261 0 57.4961C0 25.7304 25.7304 0 57.4961 0C89.2636 0.00189194 114.994 25.7304 114.994 57.4961Z" fill="#8A584A"/>
<path d="M24.1053 50.0326C25.7002 50.708 26.8183 52.2859 26.8183 54.1267C26.8183 56.5825 24.828 58.5728 22.3723 58.5728C20.0055 58.5728 18.087 56.7187 17.9508 54.3859L24.1053 50.0326Z" fill="black"/>
<path d="M91.2465 50.0327C89.6516 50.7081 88.5334 52.286 88.5334 54.1268C88.5334 56.5826 90.5238 58.5729 92.9795 58.5729C95.3463 58.5729 97.2648 56.7188 97.401 54.3861L91.2465 50.0327Z" fill="black"/>
<path d="M72.1018 71.3053C69.2072 71.3053 67.6577 70.0869 66.4147 69.1107C65.2871 68.2234 64.396 67.5214 62.4813 67.5214C60.5686 67.5214 59.6775 68.2234 58.5499 69.1088C57.3069 70.0869 55.7593 71.3053 52.8627 71.3053C49.968 71.3053 48.4204 70.0869 47.1774 69.1088C46.0498 68.2215 45.1606 67.5214 43.2497 67.5214C42.4665 67.5214 41.8308 66.8858 41.8308 66.1025C41.8308 65.3192 42.4665 64.6835 43.2497 64.6835C46.1444 64.6835 47.6901 65.9001 48.9331 66.8801C50.0607 67.7674 50.9499 68.4674 52.8627 68.4674C54.7755 68.4674 55.6665 67.7655 56.7941 66.8801C58.0371 65.902 59.5848 64.6835 62.4813 64.6835C65.3779 64.6835 66.9274 65.9001 68.1704 66.8801C69.298 67.7674 70.1872 68.4674 72.1018 68.4674C72.8851 68.4674 73.5208 69.1031 73.5208 69.8864C73.5208 70.6696 72.887 71.3053 72.1018 71.3053Z" fill="black"/>
</svg>
