<svg width="115" height="115" viewBox="0 0 115 115" fill="none" xmlns="http://www.w3.org/2000/svg">
<path d="M113.857 68.8289C112.987 73.2371 111.606 77.4562 109.77 81.4292C107.86 82.0347 105.646 82.2049 103.357 81.8265C97.2079 80.8049 92.8375 76.1507 93.6321 71.4587C94.4078 66.7667 100.027 63.7964 106.195 64.818C109.392 65.3478 112.097 66.8613 113.857 68.8289Z" fill="#FF9A61"/>
<path d="M20.9816 71.4587C21.7762 76.1507 17.4058 80.8049 11.257 81.8265C9.13804 82.186 7.09474 82.0536 5.27847 81.5617C3.36762 77.4562 1.94866 73.0858 1.07837 68.5073C2.81895 66.691 5.41091 65.3288 8.4191 64.818C14.5887 63.7964 20.2059 66.7667 20.9816 71.4587Z" fill="#FF9A61"/>
<path d="M114.992 57.4961C114.992 61.3746 114.614 65.1773 113.857 68.8288C112.097 66.8612 109.392 65.3476 106.195 64.8179C100.027 63.7962 94.4078 66.7666 93.6321 71.4586C92.8375 76.1506 97.2079 80.8047 103.357 81.8264C105.646 82.2048 107.859 82.0345 109.77 81.4291C100.71 101.238 80.7102 114.992 57.4961 114.992C34.3198 114.992 14.3598 101.294 5.27851 81.5615C7.09477 82.0534 9.13807 82.1859 11.257 81.8264C17.4059 80.8047 21.7762 76.1506 20.9816 71.4586C20.2059 66.7666 14.5869 63.7962 8.41913 64.8179C5.41095 65.3287 2.81899 66.6909 1.07841 68.5071C0.359468 64.9503 0 61.261 0 57.4961C0 25.7304 25.7304 0 57.4961 0C89.2617 0 114.992 25.7304 114.992 57.4961Z" fill="#CAA69C"/>
<path d="M21.498 57.8462C27.5312 57.8462 32.4221 52.9553 32.4221 46.9221C32.4221 40.8889 27.5312 35.998 21.498 35.998C15.4648 35.998 10.574 40.8889 10.574 46.9221C10.574 52.9553 15.4648 57.8462 21.498 57.8462Z" fill="black"/>
<path d="M32.424 45.5391C32.424 47.8681 30.5339 49.7581 28.205 49.7581C25.876 49.7581 23.9859 47.8681 23.9859 45.5391C23.9859 43.2101 25.876 41.3201 28.205 41.3201C30.5339 41.3201 32.424 43.2101 32.424 45.5391Z" fill="white"/>
<path d="M20.2021 57.3069C21.5082 57.3069 22.567 56.2481 22.567 54.942C22.567 53.6358 21.5082 52.577 20.2021 52.577C18.8959 52.577 17.8371 53.6358 17.8371 54.942C17.8371 56.2481 18.8959 57.3069 20.2021 57.3069Z" fill="white"/>
<path d="M94.2053 57.8462C100.238 57.8462 105.129 52.9553 105.129 46.9221C105.129 40.8889 100.238 35.998 94.2053 35.998C88.1721 35.998 83.2812 40.8889 83.2812 46.9221C83.2812 52.9553 88.1721 57.8462 94.2053 57.8462Z" fill="black"/>
<path d="M105.129 45.5391C105.129 47.8681 103.239 49.7581 100.91 49.7581C98.5813 49.7581 96.6913 47.8681 96.6913 45.5391C96.6913 43.2101 98.5813 41.3201 100.91 41.3201C103.239 41.3201 105.129 43.2101 105.129 45.5391Z" fill="white"/>
<path d="M92.9074 57.3069C94.2135 57.3069 95.2723 56.2481 95.2723 54.942C95.2723 53.6358 94.2135 52.577 92.9074 52.577C91.6013 52.577 90.5425 53.6358 90.5425 54.942C90.5425 56.2481 91.6013 57.3069 92.9074 57.3069Z" fill="white"/>
<path d="M74.1914 57C74.6492 58.8598 74.8933 60.8009 74.8933 62.8404C74.8933 63.2983 74.8782 63.7542 74.8592 64.2102H74.8441C52.769 61.5179 42.0492 64.2102 42.0492 64.2102H42.0341C42.0151 63.7542 42 63.2983 42 62.8404C42 60.8009 42.2441 58.8598 42.7019 57H74.1914Z" fill="white"/>
<path d="M58.4503 73.2025C63.2124 73.2025 67.3084 75.1758 69.2174 78.0648C66.3284 81.1165 62.5577 82.9593 58.4503 82.9593C54.3221 82.9593 50.5685 81.1165 47.6795 78.0648C49.5885 75.1758 53.6864 73.2025 58.4503 73.2025Z" fill="#FF7C5F"/>
<path d="M74.846 64.2123H74.8612C74.5547 69.7424 72.43 74.6558 69.2193 78.0651C67.3085 75.178 63.2144 73.2028 58.4523 73.2028C53.6884 73.2028 49.5905 75.1761 47.6815 78.0651C44.4709 74.6558 42.35 69.7443 42.0397 64.2123H42.0549C42.0511 64.2123 52.7708 61.5201 74.846 64.2123Z" fill="black"/>
</svg>
