<svg width="115" height="115" viewBox="0 0 115 115" fill="none" xmlns="http://www.w3.org/2000/svg">
<path d="M113.857 68.8285C112.989 73.2367 111.606 77.4576 109.77 81.4288C107.86 82.0343 105.646 82.2045 103.359 81.8261C97.2098 80.8045 92.8394 76.1503 93.6321 71.4602C94.4078 66.7682 100.029 63.796 106.196 64.8195C109.394 65.3474 112.097 66.8609 113.857 68.8285Z" fill="#FF9A61"/>
<path d="M20.9817 71.4584C21.7763 76.1485 17.4078 80.8027 11.259 81.8243C9.13812 82.1838 7.09482 82.0513 5.28045 81.5594C3.36959 77.4539 1.95068 73.0836 1.07849 68.5051C2.81908 66.6907 5.41289 65.3266 8.42108 64.8177C14.5888 63.7941 20.206 66.7664 20.9817 71.4584Z" fill="#FF9A61"/>
<path d="M114.996 57.4942C114.996 61.3746 114.616 65.1773 113.857 68.8269C112.097 66.8612 109.394 65.3457 106.196 64.8179C100.029 63.7943 94.4097 66.7647 93.6321 71.4586C92.8375 76.1487 97.2097 80.8029 103.359 81.8245C105.646 82.2029 107.859 82.0326 109.77 81.4272C100.71 101.236 80.712 114.99 57.4979 114.99C34.3217 114.99 14.3598 101.293 5.28038 81.5596C7.09475 82.0515 9.13805 82.184 11.2589 81.8245C17.4077 80.8029 21.7762 76.1487 20.9816 71.4586C20.2059 66.7666 14.5887 63.7943 8.421 64.8179C5.41282 65.3287 2.819 66.6909 1.07842 68.5053C0.361374 64.9503 0 61.2591 0 57.4942C0 25.7285 25.7304 0 57.4979 0C89.2617 0 114.996 25.7304 114.996 57.4942Z" fill="#C8988A"/>
<path d="M27.5486 57.1061C23.7212 57.1061 20.609 53.8235 20.609 49.7899C20.609 49.0067 21.2447 48.371 22.028 48.371C22.8112 48.371 23.4469 49.0067 23.4469 49.7899C23.4469 52.2589 25.2878 54.2682 27.5486 54.2682C29.8057 54.2682 31.6466 52.2589 31.6466 49.7899C31.6466 49.0067 32.2822 48.371 33.0655 48.371C33.8488 48.371 34.4845 49.0067 34.4845 49.7899C34.4845 53.8235 31.3723 57.1061 27.5486 57.1061Z" fill="black"/>
<path d="M87.8087 57.1062C83.9813 57.1062 80.8691 53.8237 80.8691 49.79C80.8691 49.0068 81.5048 48.3711 82.288 48.3711C83.0713 48.3711 83.707 49.0068 83.707 49.79C83.707 52.259 85.5478 54.2683 87.8087 54.2683C90.0658 54.2683 91.9067 52.259 91.9067 49.79C91.9067 49.0068 92.5424 48.3711 93.3256 48.3711C94.1089 48.3711 94.7446 49.0068 94.7446 49.79C94.7446 53.8237 91.6342 57.1062 87.8087 57.1062Z" fill="black"/>
<path d="M57.8518 70.7981C60.3073 70.7981 62.2978 68.8076 62.2978 66.3521C62.2978 63.8966 60.3073 61.906 57.8518 61.906C55.3963 61.906 53.4057 63.8966 53.4057 66.3521C53.4057 68.8076 55.3963 70.7981 57.8518 70.7981Z" fill="black"/>
</svg>
