<svg width="115" height="115" viewBox="0 0 115 115" fill="none" xmlns="http://www.w3.org/2000/svg">
<path d="M113.857 68.8292C112.989 73.2374 111.607 77.4565 109.77 81.4295C107.859 82.0349 105.646 82.2052 103.359 81.8268C97.2098 80.8052 92.8375 76.151 93.6321 71.459C94.4078 66.767 100.029 63.7967 106.196 64.8183C109.394 65.348 112.099 66.8616 113.857 68.8292Z" fill="#FF9A61"/>
<path d="M20.9836 71.459C21.7782 76.151 17.4097 80.8052 11.2609 81.8268C9.14007 82.1863 7.09677 82.0539 5.2824 81.562C3.37154 77.4565 1.95257 73.0861 1.08038 68.5076C2.82097 66.6913 5.41484 65.3291 8.42303 64.8183C14.5908 63.7967 20.206 66.767 20.9836 71.459Z" fill="#FF9A61"/>
<path d="M114.996 57.4961C114.996 61.3745 114.616 65.1773 113.857 68.8288C112.097 66.8612 109.394 65.3476 106.197 64.8179C100.029 63.7962 94.4097 66.7666 93.6321 71.4586C92.8375 76.1506 97.2098 80.8048 103.359 81.8264C105.646 82.2048 107.859 82.0345 109.77 81.4291C100.71 101.238 80.712 114.992 57.4979 114.992C34.3217 114.992 14.3598 101.294 5.28038 81.5615C7.09475 82.0535 9.13805 82.1859 11.2589 81.8264C17.4077 80.8048 21.7762 76.1506 20.9816 71.4586C20.2059 66.7666 14.5887 63.7962 8.421 64.8179C5.41282 65.3287 2.819 66.6909 1.07842 68.5071C0.361374 64.9503 0 61.261 0 57.4961C0 25.7304 25.7304 0 57.4979 0C89.2617 0 114.996 25.7304 114.996 57.4961Z" fill="#FAB9B9"/>
<path d="M73.4205 57.0513C73.8784 58.911 74.1224 60.8522 74.1224 62.8917C74.1224 63.3495 74.1073 63.8055 74.0884 64.2614H74.0732C51.9981 61.5692 41.2783 64.2614 41.2783 64.2614H41.2632C41.2443 63.8055 41.2291 63.3495 41.2291 62.8917C41.2291 60.8522 41.4732 58.911 41.931 57.0513H73.4205Z" fill="white"/>
<path d="M57.6794 73.2537C62.4414 73.2537 66.5375 75.227 68.4465 78.116C65.5575 81.1677 61.7868 83.0105 57.6794 83.0105C53.5512 83.0105 49.7976 81.1677 46.9086 78.116C48.8176 75.227 52.9155 73.2537 57.6794 73.2537Z" fill="#FF7C5F"/>
<path d="M74.0751 64.2636H74.0903C73.7838 69.7937 71.6591 74.7071 68.4485 78.1164C66.5376 75.2293 62.4435 73.2541 57.6815 73.2541C52.9176 73.2541 48.8196 75.2274 46.9106 78.1164C43.7 74.7071 41.5791 69.7956 41.2689 64.2636H41.284C41.2802 64.2636 51.9999 61.5713 74.0751 64.2636Z" fill="black"/>
<path d="M32.6114 55.4472C31.8282 55.4472 31.1925 54.8115 31.1925 54.0282C31.1925 51.5592 29.3535 49.55 27.0945 49.55C24.8355 49.55 22.9966 51.5592 22.9966 54.0282C22.9966 54.8115 22.3609 55.4472 21.5776 55.4472C20.7944 55.4472 20.1587 54.8115 20.1587 54.0282C20.1587 49.9946 23.2709 46.7121 27.0945 46.7121C30.92 46.7121 34.0304 49.9946 34.0304 54.0282C34.0304 54.8115 33.3947 55.4472 32.6114 55.4472Z" fill="black"/>
<path d="M92.8736 55.4474C92.0903 55.4474 91.4546 54.8117 91.4546 54.0284C91.4546 51.5594 89.6157 49.5502 87.3567 49.5502C85.0977 49.5502 83.2587 51.5594 83.2587 54.0284C83.2587 54.8117 82.6231 55.4474 81.8398 55.4474C81.0565 55.4474 80.4208 54.8117 80.4208 54.0284C80.4208 49.9948 83.5331 46.7123 87.3567 46.7123C91.1822 46.7123 94.2925 49.9948 94.2925 54.0284C94.2925 54.8117 93.6569 55.4474 92.8736 55.4474Z" fill="black"/>
</svg>
