<svg width="115" height="115" viewBox="0 0 115 115" fill="none" xmlns="http://www.w3.org/2000/svg">
<path d="M113.857 68.8287C112.987 73.2369 111.606 77.4597 109.77 81.4309C107.859 82.0363 105.646 82.2065 103.357 81.8301C97.2078 80.8065 92.8375 76.1542 93.6321 71.4603C94.4078 66.7683 100.027 63.7961 106.195 64.8196C109.392 65.3475 112.097 66.861 113.857 68.8287Z" fill="#FF9A61"/>
<path d="M20.9815 71.4585C21.7761 76.1524 17.4057 80.8047 11.2569 81.8282C9.13797 82.1858 7.09468 82.0534 5.27842 81.5615C3.36756 77.4559 1.9486 73.0818 1.07831 68.5052C2.81889 66.6908 5.41085 65.3267 8.41903 64.8178C14.5868 63.7942 20.2058 66.7665 20.9815 71.4585Z" fill="#FF9A61"/>
<path d="M114.992 57.4942C114.992 61.3746 114.614 65.1773 113.857 68.8269C112.097 66.8612 109.392 65.3457 106.195 64.8179C100.027 63.7943 94.4078 66.7647 93.6321 71.4586C92.8375 76.1525 97.2079 80.8048 103.357 81.8283C105.646 82.2048 107.86 82.0345 109.77 81.4291C100.708 101.24 80.7102 114.992 57.4961 114.992C34.3198 114.992 14.3598 101.294 5.27851 81.5615C7.09478 82.0534 9.13807 82.1859 11.257 81.8283C17.4058 80.8048 21.7762 76.1525 20.9816 71.4586C20.2059 66.7666 14.5869 63.7943 8.41913 64.8179C5.41094 65.3287 2.81899 66.6909 1.07841 68.5053C0.359468 64.9503 0 61.2591 0 57.4942C0 25.7304 25.7304 0 57.4961 0C89.2617 0 114.992 25.7304 114.992 57.4942Z" fill="#FAB9B9"/>
<path d="M25.4049 52.74C33.8561 51.0921 39.2841 42.8451 35.3205 38.4104C31.4099 34.0344 25.4049 39.0026 25.4049 41.6078C25.4049 39.0026 19.3998 34.0344 15.4892 38.4104C11.5237 42.8433 16.9517 51.0921 25.4049 52.74Z" fill="#FC381E"/>
<path d="M90.5426 52.74C98.9939 51.0921 104.422 42.8451 100.458 38.4104C96.5476 34.0344 90.5426 39.0026 90.5426 41.6078C90.5426 39.0026 84.5376 34.0344 80.6269 38.4104C76.6614 42.8433 82.0913 51.0921 90.5426 52.74Z" fill="#FC381E"/>
<path d="M58.2774 68.9933C66.9103 68.9933 74.0448 63.0697 70.1966 59.5336C67.9736 57.4941 48.5812 57.4941 46.3581 59.5336C42.5099 63.0715 50.2366 68.9933 58.2774 68.9933Z" fill="black"/>
</svg>
