<svg width="115" height="115" viewBox="0 0 115 115" fill="none" xmlns="http://www.w3.org/2000/svg">
<path d="M113.857 68.8267C112.988 73.2349 111.607 77.4558 109.77 81.427C107.859 82.0324 105.646 82.2027 103.358 81.8262C97.2096 80.8027 92.8373 76.1504 93.632 71.4565C94.4076 66.7645 100.027 63.7922 106.196 64.8158C109.394 65.3455 112.099 66.861 113.857 68.8267Z" fill="#FF9A61"/>
<path d="M20.9814 71.4585C21.776 76.1524 17.4056 80.8047 11.2568 81.8283C9.13786 82.1859 7.09456 82.0534 5.2783 81.5615C3.36744 77.456 1.94848 73.0856 1.07819 68.5071C2.81877 66.6927 5.41074 65.3287 8.41892 64.8198C14.5904 63.7943 20.2057 66.7646 20.9814 71.4585Z" fill="#FF9A61"/>
<path d="M114.994 57.4942C114.994 61.3746 114.616 65.1773 113.857 68.8269C112.097 66.8612 109.394 65.3457 106.196 64.8179C100.027 63.7943 94.4097 66.7647 93.6321 71.4586C92.8375 76.1525 97.2097 80.8048 103.359 81.8283C105.646 82.2048 107.859 82.0345 109.77 81.4291C100.71 101.24 80.712 114.992 57.4979 114.992C34.3217 114.992 14.3598 101.295 5.27847 81.5616C7.09473 82.0535 9.13804 82.1859 11.257 81.8283C17.4058 80.8048 21.7762 76.1525 20.9816 71.4586C20.2059 66.7665 14.5887 63.7943 8.4191 64.8179C5.41091 65.3287 2.81895 66.6909 1.07836 68.5053C0.359425 64.9503 0 61.2591 0 57.4942C0 25.7304 25.7304 0 57.4979 0C89.2617 0.00189194 114.994 25.7304 114.994 57.4942Z" fill="#CB806A"/>
<path d="M57.477 59.1212C63.8301 59.1212 69.0841 65.0467 66.2518 68.5809C64.6153 70.6223 50.3387 70.6223 48.7041 68.5809C45.87 65.0448 51.559 59.1212 57.477 59.1212Z" fill="black"/>
<path d="M23.9271 46.1025C25.522 46.778 26.6402 48.3558 26.6402 50.1967C26.6402 52.6524 24.6499 54.6428 22.1941 54.6428C19.8273 54.6428 17.9089 52.7905 17.7726 50.4559L23.9271 46.1025Z" fill="black"/>
<path d="M91.0664 46.1025C89.4715 46.778 88.3533 48.3558 88.3533 50.1967C88.3533 52.6524 90.3437 54.6428 92.7994 54.6428C95.1662 54.6428 97.0847 52.7905 97.2209 50.4559L91.0664 46.1025Z" fill="black"/>
</svg>
