<svg width="116" height="115" viewBox="0 0 116 115" fill="none" xmlns="http://www.w3.org/2000/svg">
<path d="M114.357 68.8291C113.485 73.2355 112.106 77.4564 110.27 81.4276C108.36 82.033 106.146 82.2033 103.855 81.8268C97.706 80.8032 93.3357 76.151 94.1303 71.4589C94.906 66.7669 100.525 63.7966 106.693 64.8182C109.892 65.348 112.596 66.8615 114.357 68.8291Z" fill="#FF9A61"/>
<path d="M21.4817 71.4589C22.2764 76.151 17.9041 80.8032 11.7553 81.8268C9.63821 82.1844 7.59491 82.0519 5.77676 81.56C3.8659 77.4545 2.44695 73.0841 1.57855 68.5075C3.31914 66.6913 5.9092 65.3272 8.91738 64.8182C15.0851 63.7966 20.706 66.7669 21.4817 71.4589Z" fill="#FF9A61"/>
<path d="M115.492 57.4961C115.492 61.3745 115.114 65.1773 114.357 68.8288C112.596 66.8612 109.892 65.3476 106.693 64.8179C100.525 63.7962 94.9059 66.7666 94.1302 71.4586C93.3356 76.1506 97.706 80.8029 103.855 81.8264C106.146 82.2029 108.36 82.0326 110.27 81.4272C101.208 101.238 81.2102 114.99 57.9942 114.99C34.8179 114.99 14.8598 101.293 5.77662 81.5596C7.59478 82.0516 9.63808 82.184 11.7552 81.8264C17.904 80.8029 22.2762 76.1506 21.4816 71.4586C20.7059 66.7666 15.085 63.7962 8.91725 64.8179C5.90907 65.3287 3.319 66.6909 1.57842 68.5071C0.857591 64.9503 0.5 61.261 0.5 57.4961C0.5 25.7304 26.2304 0 57.9942 0C89.7617 0 115.492 25.7304 115.492 57.4961Z" fill="#C8988A"/>
<path d="M22.8892 52.5769C25.3447 52.5769 27.3353 50.5863 27.3353 48.1308C27.3353 45.6753 25.3447 43.6847 22.8892 43.6847C20.4338 43.6847 18.4432 45.6753 18.4432 48.1308C18.4432 50.5863 20.4338 52.5769 22.8892 52.5769Z" fill="black"/>
<path d="M97.9045 48.1308C97.9045 50.5865 95.9142 52.5769 93.4566 52.5769C91.0027 52.5769 89.0106 50.5865 89.0106 48.1308C89.0106 45.6769 91.0027 43.6847 93.4566 43.6847C95.9142 43.6847 97.9045 45.6769 97.9045 48.1308Z" fill="black"/>
<path d="M65.0096 68.3499C64.6463 68.3499 64.283 68.2118 64.0068 67.9337L50.6781 54.6049C50.1237 54.0506 50.1237 53.1519 50.6781 52.5976C51.2324 52.0433 52.1311 52.0433 52.6854 52.5976L66.0142 65.9263C66.5685 66.4807 66.5685 67.3793 66.0142 67.9337C65.7361 68.2118 65.3728 68.3499 65.0096 68.3499Z" fill="black"/>
<path d="M51.6808 68.3499C51.3176 68.3499 50.9543 68.2118 50.6781 67.9337C50.1237 67.3793 50.1237 66.4807 50.6781 65.9263L64.0068 52.5976C64.5612 52.0433 65.4598 52.0433 66.0142 52.5976C66.5685 53.1519 66.5685 54.0506 66.0142 54.6049L52.6854 67.9337C52.4073 68.2118 52.0441 68.3499 51.6808 68.3499Z" fill="black"/>
</svg>
