<svg width="115" height="115" viewBox="0 0 115 115" fill="none" xmlns="http://www.w3.org/2000/svg">
<path d="M113.524 68.561C112.654 72.9522 111.279 77.1568 109.449 81.1127C107.544 81.7157 105.337 81.8854 103.052 81.5103C96.9216 80.4907 92.5641 75.8564 93.3564 71.1825C94.1298 66.5086 99.7323 63.5479 105.882 64.5675C109.072 65.0933 111.767 66.6029 113.524 68.561Z" fill="#FF9A61"/>
<path d="M20.9198 71.181C21.7121 75.8549 17.3546 80.4892 11.2239 81.5088C9.11116 81.865 7.07388 81.7331 5.26296 81.2431C3.35773 77.1534 1.94296 72.7999 1.07523 68.2391C2.81069 66.4317 5.39501 65.0729 8.39434 64.566C14.5439 63.5483 20.1464 66.5071 20.9198 71.181Z" fill="#FF9A61"/>
<path d="M114.655 57.2721C114.655 61.1375 114.278 64.9237 113.524 68.561C111.767 66.6029 109.072 65.0933 105.882 64.5675C99.7323 63.5479 94.1317 66.5068 93.3564 71.1826C92.5641 75.8565 96.9216 80.4908 103.052 81.5104C105.337 81.8854 107.544 81.7158 109.449 81.1127C100.413 100.847 80.4744 114.546 57.3268 114.546C34.2187 114.546 14.3175 100.901 5.26297 81.2446C7.07388 81.7346 9.11116 81.8666 11.2239 81.5104C17.3546 80.4908 21.7121 75.8565 20.9198 71.1826C20.1464 66.5087 14.5439 63.5479 8.39434 64.5675C5.39501 65.0764 2.81069 66.4333 1.07523 68.2407C0.35841 64.6994 0 61.0225 0 57.2721C0 25.631 25.6546 0 57.3268 0C89.0008 0 114.655 25.631 114.655 57.2721Z" fill="#FAB9B9"/>
<path d="M26.7563 47.9429C26.7563 50.3873 24.7718 52.3718 22.3233 52.3718C19.8767 52.3718 17.8903 50.3873 17.8903 47.9429C17.8903 45.4967 19.8748 43.514 22.3233 43.514C24.7718 43.5159 26.7563 45.4986 26.7563 47.9429Z" fill="black"/>
<path d="M97.1199 47.9431C97.1199 50.3875 95.1354 52.372 92.685 52.372C90.2384 52.372 88.252 50.3875 88.252 47.9431C88.252 45.4969 90.2384 43.5143 92.685 43.5143C95.1354 43.5161 97.1199 45.4988 97.1199 47.9431Z" fill="black"/>
<path d="M57.5041 75.1933C52.3034 75.1933 48.0723 69.7278 48.0723 63.0091C48.0723 62.2289 48.7061 61.5956 49.487 61.5956C50.268 61.5956 50.9018 62.2289 50.9018 63.0091C50.9018 68.1674 53.8634 72.3663 57.5041 72.3663C61.1467 72.3663 64.1102 68.1674 64.1102 63.0091C64.1102 62.2289 64.744 61.5956 65.5249 61.5956C66.3059 61.5956 66.9397 62.2289 66.9397 63.0091C66.9397 69.7278 62.7048 75.1933 57.5041 75.1933Z" fill="black"/>
</svg>
