<svg width="115" height="115" viewBox="0 0 115 115" fill="none" xmlns="http://www.w3.org/2000/svg">
<path d="M6.73916 6.10352e-05C4.2418 4.84343 7.45998 13.7355 20.3403 13.6409C16.3502 17.0105 12.8312 20.9268 9.87979 25.2593C-9.38016 11.9193 6.73916 6.10352e-05 6.73916 6.10352e-05Z" fill="black"/>
<path d="M108.132 6.10352e-05C110.629 4.84343 107.411 13.7355 94.5307 13.6409C98.5208 17.0105 102.04 20.9268 104.991 25.2593C124.249 11.9193 108.132 6.10352e-05 108.132 6.10352e-05Z" fill="black"/>
<path d="M113.859 68.8382C112.99 73.2464 111.609 77.4673 109.772 81.4385C107.861 82.0439 105.648 82.2142 103.36 81.8339C97.2116 80.8141 92.8393 76.1581 93.6339 71.468C94.4096 66.7759 100.027 63.8056 106.198 64.8254C109.396 65.357 112.099 66.8687 113.859 68.8382Z" fill="#FF9A61"/>
<path d="M20.9836 71.468C21.7782 76.1581 17.4059 80.8142 11.2571 81.8339C9.14004 82.1953 7.09674 82.0628 5.27859 81.5709C3.36773 77.4654 1.94878 73.095 1.08038 68.5165C2.82097 66.6984 5.41103 65.3362 8.41921 64.8254C14.5869 63.8056 20.2079 66.7759 20.9836 71.468Z" fill="#FF9A61"/>
<path d="M114.992 57.5054C114.992 61.3838 114.616 65.1866 113.857 68.8381C112.097 66.8686 109.394 65.3569 106.197 64.8253C100.025 63.8055 94.4097 66.7759 93.6322 71.4679C92.8375 76.158 97.2098 80.8141 103.359 81.8338C105.646 82.2141 107.86 82.0438 109.77 81.4384C100.71 101.245 80.7121 115.001 57.498 115.001C34.3179 115.001 14.3598 101.304 5.27662 81.5708C7.09478 82.0627 9.13808 82.1952 11.2552 81.8338C17.404 80.8141 21.7762 76.158 20.9816 71.4679C20.2059 66.7759 14.585 63.8055 8.41725 64.8253C5.40907 65.338 2.819 66.6983 1.07842 68.5165C0.357591 64.9577 0 61.2703 0 57.5054C0 25.7378 25.7304 0.0092926 57.498 0.0092926C89.2637 0.0092926 114.992 25.7378 114.992 57.5054Z" fill="#FAB9B9"/>
<path d="M66.1801 74.6579C64.0554 78.298 61.0321 80.5778 57.6701 80.5778C54.3214 80.5778 51.2849 78.298 49.1716 74.6579C50.4051 71.1578 53.7538 68.6604 57.6701 68.6604C61.6016 68.6604 64.9447 71.1578 66.1801 74.6579Z" fill="#FF7C5F"/>
<path d="M69.2317 59.0835C69.3093 59.9632 69.3717 60.8581 69.3717 61.7663C69.3717 66.7477 68.1703 71.2808 66.1781 74.6579C64.9445 71.1578 61.5996 68.6605 57.6681 68.6605C53.7518 68.6605 50.4031 71.156 49.1695 74.6579C47.1811 71.2808 45.9816 66.7459 45.9816 61.7663C45.9816 60.8562 46.0403 59.9632 46.1178 59.0835H69.2317Z" fill="black"/>
<path d="M20.4841 51.8598C18.8911 52.5333 17.7711 54.1131 17.7711 55.954C17.7711 58.4078 19.7633 60.4 22.2172 60.4C24.5859 60.4 26.5043 58.5459 26.6406 56.2132L20.4841 51.8598Z" fill="black"/>
<path d="M94.5101 51.8598C96.1031 52.5333 97.2232 54.1131 97.2232 55.9539C97.2232 58.4078 95.2309 60.4 92.7771 60.4C90.4084 60.4 88.49 58.5459 88.3538 56.2131L94.5101 51.8598Z" fill="black"/>
<path d="M30.8688 54.9628C24.6879 54.9628 19.2656 49.9075 19.2656 44.1466C19.2656 43.3633 19.9013 42.7276 20.6845 42.7276C21.4678 42.7276 22.1035 43.3633 22.1035 44.1466C22.1035 47.9115 25.8514 52.1249 30.8688 52.1249C31.6521 52.1249 32.2878 52.7605 32.2878 53.5438C32.2878 54.3271 31.6521 54.9628 30.8688 54.9628Z" fill="black"/>
<path d="M84.3447 54.9628C83.5614 54.9628 82.9257 54.3271 82.9257 53.5438C82.9257 52.7605 83.5614 52.1249 84.3447 52.1249C89.3602 52.1249 93.11 47.9115 93.11 44.1466C93.11 43.3633 93.7457 42.7276 94.529 42.7276C95.3122 42.7276 95.9479 43.3633 95.9479 44.1466C95.9479 49.9075 90.5256 54.9628 84.3447 54.9628Z" fill="black"/>
</svg>
