<svg width="115" height="115" viewBox="0 0 115 115" fill="none" xmlns="http://www.w3.org/2000/svg">
<path d="M113.859 68.8288C112.99 73.2371 111.609 77.4561 109.772 81.4292C107.861 82.0346 105.648 82.2048 103.36 81.8265C97.2114 80.8048 92.8392 76.1506 93.6338 71.4605C94.4095 66.7685 100.029 63.7963 106.198 64.8179C109.394 65.3477 112.099 66.8612 113.859 68.8288Z" fill="#FF9A61"/>
<path d="M20.9835 71.4606C21.7782 76.1507 17.4077 80.8049 11.2589 81.8265C9.13997 82.186 7.09666 82.0536 5.2804 81.5617C3.36954 77.4562 1.95058 73.0858 1.08029 68.5073C2.82088 66.6911 5.41284 65.3288 8.42103 64.818C14.5906 63.7964 20.2078 66.7667 20.9835 71.4606Z" fill="#FF9A61"/>
<path d="M114.994 57.4961C114.994 61.3765 114.616 65.1792 113.857 68.8288C112.097 66.8612 109.394 65.3476 106.197 64.8179C100.027 63.7962 94.4097 66.7666 93.6321 71.4605C92.8375 76.1506 97.2098 80.8048 103.359 81.8264C105.646 82.2048 107.859 82.0345 109.77 81.4291C100.71 101.238 80.712 114.992 57.4979 114.992C34.3217 114.992 14.3598 101.295 5.27853 81.5616C7.09479 82.0535 9.13809 82.1859 11.2571 81.8264C17.4059 80.8048 21.7762 76.1506 20.9816 71.4605C20.2059 66.7685 14.5888 63.7962 8.41916 64.8179C5.41097 65.3306 2.819 66.6909 1.07842 68.5072C0.359482 64.9503 0 61.261 0 57.4961C0 25.7304 25.7304 0 57.4979 0C89.2636 0 114.994 25.7304 114.994 57.4961Z" fill="#D8A89A"/>
<path d="M21.4999 57.8462C27.5331 57.8462 32.4239 52.9553 32.4239 46.9221C32.4239 40.8889 27.5331 35.998 21.4999 35.998C15.4667 35.998 10.5758 40.8889 10.5758 46.9221C10.5758 52.9553 15.4667 57.8462 21.4999 57.8462Z" fill="black"/>
<path d="M32.4258 45.539C32.4258 47.8699 30.5358 49.7581 28.2068 49.7581C25.8759 49.7581 23.9877 47.8699 23.9877 45.539C23.9877 43.212 25.8759 41.3219 28.2068 41.3219C30.5358 41.32 32.4258 43.2101 32.4258 45.539Z" fill="white"/>
<path d="M105.129 46.9221C105.129 52.9536 100.239 57.8462 94.2073 57.8462C88.1739 57.8462 83.2813 52.9536 83.2813 46.9221C83.2813 40.8887 88.1739 35.998 94.2073 35.998C100.239 35.998 105.129 40.8906 105.129 46.9221Z" fill="black"/>
<path d="M105.129 45.539C105.129 47.8699 103.241 49.7581 100.912 49.7581C98.5815 49.7581 96.6933 47.8699 96.6933 45.539C96.6933 43.212 98.5815 41.3219 100.912 41.3219C103.241 41.32 105.129 43.2101 105.129 45.539Z" fill="white"/>
<path d="M57.4733 59.1212C66.1063 59.1212 73.2408 65.0449 69.3926 68.5809C67.1696 70.6204 47.7772 70.6204 45.5541 68.5809C41.7059 65.0449 49.4326 59.1212 57.4733 59.1212Z" fill="black"/>
</svg>
