<svg width="115" height="115" viewBox="0 0 115 115" fill="none" xmlns="http://www.w3.org/2000/svg">
<path d="M113.861 68.829C112.988 73.2373 111.609 77.4563 109.774 81.4294C107.863 82.0348 105.65 82.2051 103.359 81.8267C97.2097 80.805 92.8412 76.1509 93.634 71.4588C94.4097 66.7668 100.029 63.7965 106.196 64.8181C109.394 65.3479 112.099 66.8614 113.861 68.829Z" fill="#FF9A61"/>
<path d="M20.9835 71.4588C21.7782 76.1509 17.4078 80.805 11.259 81.8267C9.14 82.1861 7.09669 82.0537 5.28043 81.5618C3.36957 77.4563 1.95061 73.0859 1.08032 68.5074C2.82091 66.6912 5.41287 65.329 8.42106 64.8181C14.5888 63.7965 20.2078 66.7668 20.9835 71.4588Z" fill="#FF9A61"/>
<path d="M114.994 57.4961C114.994 61.3745 114.616 65.1773 113.859 68.8288C112.097 66.8612 109.394 65.3476 106.195 64.8179C100.027 63.7962 94.4097 66.7666 93.6321 71.4586C92.8375 76.1506 97.2079 80.8048 103.357 81.8264C105.648 82.2048 107.861 82.0345 109.772 81.4291C100.71 101.238 80.7121 114.992 57.4961 114.992C34.3217 114.992 14.3617 101.294 5.2785 81.5615C7.09476 82.0534 9.13807 82.1859 11.257 81.8264C17.4058 80.8048 21.7762 76.1506 20.9816 71.4586C20.2059 66.7666 14.5869 63.7962 8.41913 64.8179C5.41094 65.3287 2.81898 66.6909 1.07839 68.5072C0.359454 64.9503 0 61.261 0 57.4961C0 25.7304 25.7304 0 57.4961 0C89.2655 0 114.994 25.7304 114.994 57.4961Z" fill="#C8988A"/>
<path d="M27.5486 57.1062C23.7231 57.1062 20.6108 53.8237 20.6108 49.79C20.6108 49.0068 21.2465 48.3711 22.0298 48.3711C22.8131 48.3711 23.4488 49.0068 23.4488 49.79C23.4488 52.259 25.2877 54.2683 27.5486 54.2683C29.8076 54.2683 31.6465 52.259 31.6465 49.79C31.6465 49.0068 32.2822 48.3711 33.0655 48.3711C33.8488 48.3711 34.4845 49.0068 34.4845 49.79C34.4845 53.8256 31.3722 57.1062 27.5486 57.1062Z" fill="black"/>
<path d="M87.8087 57.1062C83.9851 57.1062 80.8709 53.8237 80.8709 49.79C80.8709 49.0068 81.5066 48.3711 82.2899 48.3711C83.0731 48.3711 83.7088 49.0068 83.7088 49.79C83.7088 52.259 85.5478 54.2683 87.8087 54.2683C90.0676 54.2683 91.9066 52.259 91.9066 49.79C91.9066 49.0068 92.5423 48.3711 93.3256 48.3711C94.1088 48.3711 94.7445 49.0068 94.7445 49.79C94.7445 53.8256 91.6342 57.1062 87.8087 57.1062Z" fill="black"/>
<path d="M72.1036 70.8H43.2515C42.4683 70.8 41.8326 70.1643 41.8326 69.3811C41.8326 68.5978 42.4683 67.9621 43.2515 67.9621H72.1036C72.8869 67.9621 73.5226 68.5978 73.5226 69.3811C73.5226 70.1643 72.8869 70.8 72.1036 70.8Z" fill="black"/>
</svg>
