<svg width="115" height="115" viewBox="0 0 115 115" fill="none" xmlns="http://www.w3.org/2000/svg">
<path d="M113.859 68.827C112.988 73.2352 111.609 77.4561 109.772 81.4273C107.861 82.0327 105.648 82.203 103.358 81.8265C97.2097 80.803 92.8393 76.1507 93.6339 71.4586C94.4096 66.7666 100.027 63.7944 106.196 64.8179C109.394 65.3477 112.099 66.8612 113.859 68.827Z" fill="#FF9A61"/>
<path d="M20.9835 71.4586C21.7781 76.1507 17.4059 80.803 11.2571 81.8265C9.13998 82.1841 7.09668 82.0516 5.27853 81.5597C3.36767 77.4542 1.94872 73.0838 1.08032 68.5053C2.82091 66.6909 5.41097 65.3268 8.41915 64.8179C14.5888 63.7944 20.2078 66.7666 20.9835 71.4586Z" fill="#FF9A61"/>
<path d="M114.992 57.4941C114.992 61.3745 114.616 65.1773 113.857 68.8269C112.097 66.8612 109.394 65.3457 106.195 64.8178C100.025 63.7943 94.4097 66.7647 93.6322 71.4586C92.8375 76.1506 97.2079 80.8029 103.357 81.8264C105.646 82.2029 107.86 82.0326 109.77 81.4272C100.71 101.238 80.7121 114.99 57.4961 114.99C34.3198 114.99 14.3598 101.293 5.27662 81.5596C7.09478 82.0515 9.13808 82.184 11.2552 81.8264C17.404 80.8029 21.7743 76.1506 20.9816 71.4586C20.2059 66.7665 14.5869 63.7943 8.41725 64.8178C5.40907 65.3287 2.819 66.6909 1.07842 68.5052C0.357591 64.9503 0 61.2591 0 57.4941C0 25.7303 25.7304 0 57.4961 0C89.2618 0 114.992 25.7303 114.992 57.4941Z" fill="#846258"/>
<path d="M57.7988 60.2753C67.6993 60.2753 72.8946 69.6328 68.2177 73.201C64.1462 76.3076 62.5551 71.7367 57.831 71.7367C53.1087 71.7367 50.9443 75.9689 47.3798 73.201C42.7313 69.5931 48.5737 60.2753 57.7988 60.2753Z" fill="black"/>
<path d="M27.5446 57.1063C23.721 57.1063 20.6088 53.8256 20.6088 49.7901C20.6088 49.0068 21.2445 48.3712 22.0277 48.3712C22.811 48.3712 23.4467 49.0068 23.4467 49.7901C23.4467 52.261 25.2857 54.2683 27.5446 54.2683C29.8036 54.2683 31.6426 52.261 31.6426 49.7901C31.6426 49.0068 32.2783 48.3712 33.0615 48.3712C33.8448 48.3712 34.4805 49.0068 34.4805 49.7901C34.4805 53.8256 31.3701 57.1063 27.5446 57.1063Z" fill="black"/>
<path d="M87.8067 57.1063C83.9812 57.1063 80.8709 53.8256 80.8709 49.7901C80.8709 49.0068 81.5066 48.3712 82.2899 48.3712C83.0731 48.3712 83.7088 49.0068 83.7088 49.7901C83.7088 52.261 85.5478 54.2683 87.8067 54.2683C90.0657 54.2683 91.9046 52.261 91.9046 49.7901C91.9046 49.0068 92.5403 48.3712 93.3236 48.3712C94.1069 48.3712 94.7426 49.0068 94.7426 49.7901C94.7426 53.8256 91.6303 57.1063 87.8067 57.1063Z" fill="black"/>
<path d="M93.8686 75.6757C93.8686 71.1237 92.1544 68.5583 91.0193 66.8631C90.2455 65.7052 90.0847 65.4649 90.0847 64.3582C90.0847 63.2476 90.2455 63.0073 91.0193 61.8494C92.1317 60.1864 93.7891 57.6777 93.8553 53.296C92.6747 55.553 90.4195 57.1063 87.8068 57.1063C85.5781 57.1063 83.6161 55.9731 82.3447 54.2457C82.2104 54.5976 81.9777 54.9495 81.5823 55.5417C80.4471 57.2388 78.733 59.8043 78.733 64.3582C78.733 68.9102 80.4471 71.4756 81.5823 73.1708C82.3561 74.3287 82.5169 74.569 82.5169 75.6757C82.5169 76.7863 82.3561 77.0266 81.5823 78.1844C80.4471 79.8815 78.733 82.4489 78.733 87.0028C78.733 91.5567 80.4452 94.1259 81.5804 95.823C82.3561 96.9827 82.5169 97.2249 82.5169 98.3374C82.5169 99.4499 82.3561 99.692 81.5804 100.852C80.5058 102.462 78.9279 104.876 78.7652 109.002C84.2688 106.758 89.3335 103.661 93.7966 99.8699C93.8401 99.3855 93.8686 98.8785 93.8686 98.3393C93.8686 93.7854 92.1563 91.218 91.0212 89.5209C90.2455 88.3612 90.0847 88.119 90.0847 87.0047C90.0847 85.8941 90.2455 85.6519 91.0212 84.4922C92.1544 82.7951 93.8686 80.2296 93.8686 75.6757Z" fill="#59B5C9"/>
<path d="M21.4942 75.6757C21.4942 71.1237 23.2083 68.5583 24.3434 66.8631C25.1172 65.7052 25.2781 65.4649 25.2781 64.3582C25.2781 63.2476 25.1172 63.0073 24.3434 61.8494C23.231 60.1864 21.5736 57.6777 21.5074 53.296C22.688 55.553 24.9413 57.1063 27.5559 57.1063C29.7846 57.1063 31.7466 55.9731 33.018 54.2457C33.1523 54.5976 33.385 54.9495 33.7804 55.5417C34.9156 57.2388 36.6297 59.8043 36.6297 64.3582C36.6297 68.9102 34.9156 71.4756 33.7804 73.1708C33.0066 74.3287 32.8458 74.569 32.8458 75.6757C32.8458 76.7863 33.0066 77.0266 33.7804 78.1844C34.9156 79.8815 36.6297 82.4489 36.6297 87.0028C36.6297 91.5567 34.9175 94.1259 33.7823 95.823C33.0066 96.9827 32.8458 97.2249 32.8458 98.3374C32.8458 99.4499 33.0066 99.692 33.7823 100.852C34.857 102.462 36.4349 104.876 36.5976 109.002C31.0939 106.758 26.0292 103.661 21.5661 99.8699C21.5226 99.3855 21.4942 98.8785 21.4942 98.3393C21.4942 93.7854 23.2064 91.218 24.3415 89.5209C25.1172 88.3612 25.2781 88.119 25.2781 87.0047C25.2781 85.8941 25.1172 85.6519 24.3415 84.4922C23.2083 82.7951 21.4942 80.2296 21.4942 75.6757Z" fill="#59B5C9"/>
</svg>
