<svg width="116" height="115" viewBox="0 0 116 115" fill="none" xmlns="http://www.w3.org/2000/svg">
<path d="M114.359 68.8311C113.487 73.2393 112.107 77.4583 110.272 81.4314C108.361 82.0368 106.148 82.2071 103.857 81.8287C97.7079 80.8071 93.3375 76.1529 94.1321 71.4609C94.9078 66.7689 100.527 63.7985 106.695 64.8202C109.894 65.3499 112.599 66.8616 114.359 68.8311Z" fill="#FF9A61"/>
<path d="M21.4855 71.4605C22.2801 76.1525 17.9079 80.8067 11.7591 81.8283C9.64009 82.1878 7.59679 82.0554 5.78052 81.5635C3.86966 77.458 2.45071 73.0876 1.58041 68.5091C3.321 66.6928 5.91297 65.3306 8.92115 64.8198C15.0889 63.7963 20.7098 66.7685 21.4855 71.4605Z" fill="#FF9A61"/>
<path d="M115.494 57.4961C115.494 61.3745 115.116 65.1773 114.359 68.8288C112.597 66.8612 109.894 65.3476 106.695 64.8179C100.527 63.7962 94.9078 66.7666 94.1321 71.4586C93.3375 76.1506 97.7079 80.8048 103.857 81.8264C106.148 82.2048 108.361 82.0345 110.272 81.4291C101.21 101.238 81.2121 114.992 57.9961 114.992C34.8198 114.992 14.8617 101.294 5.77853 81.5615C7.59479 82.0534 9.63807 82.1859 11.757 81.8264C17.9058 80.8048 22.2781 76.1506 21.4835 71.4586C20.7078 66.7666 15.0869 63.7962 8.91913 64.8179C5.91094 65.3287 3.319 66.6909 1.57842 68.5071C0.859482 64.9503 0.5 61.261 0.5 57.4961C0.5 25.7304 26.2323 0 57.9961 0C89.7655 0.00189194 115.494 25.7304 115.494 57.4961Z" fill="#CB806A"/>
<path d="M27.3372 48.1309C27.3372 50.5866 25.345 52.5769 22.8892 52.5769C20.4335 52.5769 18.4432 50.5866 18.4432 48.1309C18.4432 45.677 20.4335 43.6848 22.8892 43.6848C25.3469 43.6848 27.3372 45.677 27.3372 48.1309Z" fill="black"/>
<path d="M97.9067 48.1309C97.9067 50.5866 95.9164 52.5769 93.4588 52.5769C91.0049 52.5769 89.0127 50.5866 89.0127 48.1309C89.0127 45.677 91.0049 43.6848 93.4588 43.6848C95.9183 43.6848 97.9067 45.677 97.9067 48.1309Z" fill="black"/>
<path d="M67.051 68.284C66.2677 68.284 65.632 67.6483 65.632 66.8651C65.632 63.0339 62.2871 59.916 58.1778 59.916C54.0666 59.916 50.7235 63.0339 50.7235 66.8651C50.7235 67.6483 50.0878 68.284 49.3046 68.284C48.5213 68.284 47.8856 67.6483 47.8856 66.8651C47.8856 61.4674 52.502 57.0781 58.1778 57.0781C63.8536 57.0781 68.4699 61.4692 68.4699 66.8651C68.4699 67.6483 67.8342 68.284 67.051 68.284Z" fill="black"/>
</svg>
