<svg width="30" height="30" viewBox="0 0 30 30" fill="none" xmlns="http://www.w3.org/2000/svg">
<path d="M9.69364 16.725V25.2625C9.69364 25.773 9.49083 26.2627 9.12983 26.6237C8.76882 26.9847 8.27919 27.1875 7.76864 27.1875H5.50614C5.2523 27.1891 5.00064 27.1406 4.76564 27.0446C4.53064 26.9486 4.31695 26.807 4.13688 26.6281C3.9568 26.4492 3.81388 26.2364 3.71636 26.0021C3.61884 25.7677 3.56864 25.5163 3.56864 25.2625V16.725C3.56698 16.4701 3.61596 16.2174 3.71275 15.9816C3.80953 15.7458 3.95218 15.5315 4.13242 15.3513C4.31267 15.171 4.52692 15.0284 4.76273 14.9316C4.99855 14.8348 5.25124 14.7858 5.50614 14.7875H7.76864C8.02249 14.7875 8.27384 14.8377 8.50821 14.9352C8.74258 15.0327 8.95535 15.1757 9.13426 15.3557C9.31318 15.5358 9.45471 15.7495 9.55072 15.9845C9.64672 16.2195 9.69529 16.4712 9.69364 16.725ZM18.0686 4.75V25.2625C18.0687 25.5163 18.0184 25.7677 17.9209 26.0021C17.8234 26.2364 17.6805 26.4492 17.5004 26.6281C17.3203 26.807 17.1066 26.9486 16.8716 27.0446C16.6367 27.1406 16.385 27.1891 16.1311 27.1875H13.8686C13.3569 27.1875 12.866 26.9851 12.503 26.6244C12.14 26.2638 11.9344 25.7742 11.9311 25.2625V4.75C11.9344 4.23715 12.1396 3.74625 12.5022 3.3836C12.8649 3.02096 13.3558 2.81578 13.8686 2.8125H16.1311C16.645 2.8125 17.1378 3.01663 17.5012 3.37998C17.8645 3.74333 18.0686 4.23614 18.0686 4.75ZM26.4311 11.225V25.2625C26.4311 25.773 26.2283 26.2627 25.8673 26.6237C25.5063 26.9847 25.0167 27.1875 24.5061 27.1875H22.2436C21.9898 27.1891 21.7381 27.1406 21.5031 27.0446C21.2681 26.9486 21.0545 26.807 20.8744 26.6281C20.6943 26.4492 20.5514 26.2364 20.4539 26.0021C20.3563 25.7677 20.3061 25.5163 20.3061 25.2625V11.225C20.3061 10.9706 20.3563 10.7186 20.4536 10.4836C20.551 10.2485 20.6937 10.0349 20.8736 9.85498C21.0535 9.67507 21.2671 9.53235 21.5022 9.43498C21.7373 9.33761 21.9892 9.2875 22.2436 9.2875H24.5561C25.0591 9.30373 25.536 9.51501 25.8859 9.87661C26.2359 10.2382 26.4314 10.7218 26.4311 11.225Z" fill="#443E3B"/>
</svg>
