<svg width="31" height="23" viewBox="0 0 31 23" fill="none" xmlns="http://www.w3.org/2000/svg">
<path d="M29.7686 11.7286C29.645 11.5115 29.4794 11.3212 29.2815 11.1688C29.0835 11.0164 28.8572 10.905 28.6157 10.841C27.7397 10.6157 26.8344 10.525 25.9311 10.5722C26.4155 8.16848 26.0522 6.2673 25.6889 5.13992C25.5407 4.67688 25.2256 4.28553 24.8048 4.042C24.384 3.79848 23.8877 3.72021 23.4123 3.82242C22.1801 4.09678 21.0084 4.59418 19.9551 5.29008C19.1836 3.71426 18.0605 2.33672 16.6723 1.26371C16.3358 1.01139 15.9267 0.875 15.5061 0.875C15.0856 0.875 14.6764 1.01139 14.34 1.26371C12.9496 2.33604 11.8243 3.71363 11.0511 5.29008C9.9978 4.59418 8.82612 4.09678 7.59387 3.82242C7.11868 3.7197 6.62226 3.79776 6.20153 4.04137C5.78081 4.28499 5.46598 4.67666 5.31852 5.13992C4.95523 6.2673 4.59195 8.16727 5.06906 10.5722C4.16572 10.525 3.26047 10.6157 2.38441 10.841C2.14294 10.905 1.91662 11.0164 1.71869 11.1688C1.52076 11.3212 1.35517 11.5115 1.2316 11.7286C1.10244 11.9509 1.01879 12.1966 0.98553 12.4515C0.952267 12.7063 0.970052 12.9653 1.03785 13.2132C1.44836 14.7366 2.70895 17.632 6.52703 19.9134C10.3451 22.1948 13.6994 22.1875 15.5061 22.1875C17.3129 22.1875 20.6732 22.1875 24.4671 19.9134C28.2852 17.632 29.5457 14.7366 29.9563 13.2132C30.025 12.9657 30.0437 12.707 30.0115 12.4521C29.9793 12.1972 29.8967 11.9513 29.7686 11.7286ZM7.52 18.2507C4.29527 16.3229 3.24781 13.9592 2.90633 12.7059C3.79726 12.4858 4.72199 12.4378 5.63094 12.5642C5.93436 13.3771 6.30497 14.1633 6.73895 14.9146C7.80444 16.7515 9.20029 18.3756 10.8561 19.7051C9.68526 19.3683 8.56364 18.8794 7.52 18.2507ZM15.5001 20.0562C14.3703 19.2159 11.6251 16.6378 11.6251 11.4307C11.6251 6.28789 14.3352 3.68922 15.5001 2.8125C16.665 3.69164 19.3751 6.29031 19.3751 11.4332C19.3751 16.6378 16.6299 19.2159 15.5001 20.0562ZM28.0938 12.7083C27.7584 13.9483 26.7134 16.3181 23.4814 18.2507C22.4377 18.8789 21.316 19.3675 20.1452 19.7039C21.8011 18.3744 23.1969 16.7503 24.2624 14.9134C24.6964 14.1621 25.067 13.3759 25.3704 12.563C26.2791 12.4378 27.2034 12.4867 28.0938 12.7071V12.7083Z" fill="#443E3B"/>
</svg>
