<svg width="30" height="30" viewBox="0 0 30 30" fill="none" xmlns="http://www.w3.org/2000/svg">
<path d="M25.7751 8.825C25.463 8.08538 25.0086 7.41432 24.4376 6.85C23.8692 6.26921 23.1888 5.80992 22.4376 5.5C21.9801 5.3107 21.5018 5.17642 21.0126 5.1V3.4375C21.0126 3.18886 20.9138 2.9504 20.738 2.77459C20.5622 2.59877 20.3238 2.5 20.0751 2.5C19.8265 2.5 19.588 2.59877 19.4122 2.77459C19.2364 2.9504 19.1376 3.18886 19.1376 3.4375V5.025H10.8751V3.4375C10.8751 3.18886 10.7763 2.9504 10.6005 2.77459C10.4247 2.59877 10.1863 2.5 9.93762 2.5C9.68898 2.5 9.45052 2.59877 9.2747 2.77459C9.09889 2.9504 9.00012 3.18886 9.00012 3.4375V5.1C7.70604 5.29097 6.50872 5.89621 5.58762 6.825C5.01551 7.39552 4.56193 8.07359 4.253 8.82016C3.94407 9.56673 3.78591 10.367 3.78762 11.175V21.3C3.78561 22.1142 3.94272 22.921 4.25012 23.675C4.55264 24.4241 5.00331 25.1043 5.57512 25.675C6.14262 26.255 6.82262 26.715 7.57512 27.025C8.32262 27.3388 9.12512 27.5 9.93762 27.5H20.0751C21.703 27.4934 23.2622 26.8429 24.4121 25.6907C25.562 24.5384 26.2093 22.9779 26.2126 21.35V11.2125C26.2346 10.3949 26.0856 9.5817 25.7751 8.825ZM20.7751 20.8125H9.31262C9.06398 20.8125 8.82552 20.7137 8.6497 20.5379C8.47389 20.3621 8.37512 20.1236 8.37512 19.875C8.37512 19.6264 8.47389 19.3879 8.6497 19.2121C8.82552 19.0363 9.06398 18.9375 9.31262 18.9375H20.6876C20.9363 18.9375 21.1747 19.0363 21.3505 19.2121C21.5263 19.3879 21.6251 19.6264 21.6251 19.875C21.6251 20.1236 21.5263 20.3621 21.3505 20.5379C21.1747 20.7137 20.9363 20.8125 20.6876 20.8125H20.7751ZM20.7751 14.475H9.31262C9.06398 14.475 8.82552 14.3762 8.6497 14.2004C8.47389 14.0246 8.37512 13.7861 8.37512 13.5375C8.37512 13.2889 8.47389 13.0504 8.6497 12.8746C8.82552 12.6988 9.06398 12.6 9.31262 12.6H20.6876C20.9363 12.6 21.1747 12.6988 21.3505 12.8746C21.5263 13.0504 21.6251 13.2889 21.6251 13.5375C21.6251 13.7861 21.5263 14.0246 21.3505 14.2004C21.1747 14.3762 20.9363 14.475 20.6876 14.475H20.7751Z" fill="currentColor"/>
</svg>
