<svg width="19" height="18" viewBox="0 0 19 18" fill="none" xmlns="http://www.w3.org/2000/svg">
<line x1="1.25" y1="3.09485" x2="17.3708" y2="3.09485" stroke="#443E3B" stroke-width="2.5" stroke-linecap="round"/>
<path d="M15.8865 3.93616C15.1106 5.61513 13.2113 6.481 13.1306 6.51824C13.0687 6.54247 13 6.54247 12.9382 6.51824C12.8606 6.481 10.9582 5.61513 10.1823 3.93616C9.70128 2.8903 9.96817 1.76374 10.4927 1.2796C10.6764 1.12217 10.8948 1.01055 11.13 0.953904C11.3652 0.897258 11.6105 0.897201 11.8458 0.953737C12.3271 1.06315 12.7475 1.35452 13.0189 1.76684C13.2908 1.35363 13.7125 1.06212 14.1951 0.953737C14.4303 0.897201 14.6756 0.897258 14.9108 0.953904C15.1461 1.01055 15.3645 1.12217 15.5482 1.2796C16.1006 1.76374 16.3706 2.8903 15.8865 3.93616Z" fill="#443E3B"/>
<path d="M14.7458 3.85137C14.2803 4.85875 13.1407 5.37827 13.0923 5.40062C13.0552 5.41515 13.014 5.41515 12.9769 5.40062C12.9303 5.37827 11.7889 4.85875 11.3234 3.85137C11.0347 3.22385 11.1949 2.54792 11.5096 2.25743C11.6198 2.16297 11.7508 2.096 11.892 2.06202C12.0331 2.02803 12.1803 2.02799 12.3214 2.06191C12.6102 2.12757 12.8625 2.30238 13.0253 2.54978C13.1884 2.30185 13.4414 2.12694 13.731 2.06191C13.8722 2.02799 14.0193 2.02803 14.1605 2.06202C14.3016 2.096 14.4327 2.16297 14.5429 2.25743C14.8743 2.54792 15.0363 3.22385 14.7458 3.85137Z" fill="#CB806A"/>
<line x1="1.25" y1="14.2673" x2="17.3708" y2="14.2673" stroke="#443E3B" stroke-width="2.5" stroke-linecap="round"/>
<path d="M9.05884 14.4879C8.28297 16.1669 6.38365 17.0328 6.30296 17.07C6.24111 17.0942 6.1724 17.0942 6.11055 17.07C6.03296 17.0328 4.13054 16.1669 3.35468 14.4879C2.87364 13.4421 3.14054 12.3155 3.66502 11.8314C3.84873 11.6739 4.06716 11.5623 4.30238 11.5057C4.53759 11.449 4.78289 11.449 5.01813 11.5055C5.49948 11.6149 5.91984 11.9063 6.19124 12.3186C6.46313 11.9054 6.88483 11.6139 7.36745 11.5055C7.60269 11.449 7.84799 11.449 8.0832 11.5057C8.31842 11.5623 8.53685 11.6739 8.72056 11.8314C9.27297 12.3155 9.54297 13.4421 9.05884 14.4879Z" fill="#443E3B"/>
<path d="M7.91821 14.4029C7.45269 15.4103 6.3131 15.9298 6.26469 15.9521C6.22758 15.9667 6.18635 15.9667 6.14924 15.9521C6.10269 15.9298 4.96123 15.4103 4.49572 14.4029C4.20709 13.7754 4.36723 13.0994 4.68192 12.8089C4.79215 12.7145 4.92321 12.6475 5.06434 12.6135C5.20547 12.5795 5.35264 12.5795 5.49379 12.6134C5.7826 12.6791 6.03482 12.8539 6.19765 13.1013C6.36079 12.8534 6.61381 12.6785 6.90338 12.6134C7.04452 12.5795 7.1917 12.5795 7.33283 12.6135C7.47396 12.6475 7.60502 12.7145 7.71524 12.8089C8.04669 13.0994 8.20869 13.7754 7.91821 14.4029Z" fill="#CB806A"/>
</svg>
