<svg width="46" height="46" viewBox="0 0 46 46" fill="none" xmlns="http://www.w3.org/2000/svg">
<path d="M33.0984 1.64414L28.0941 6.65742L39.3426 17.9059L44.3469 12.9016C46.3144 10.934 46.3144 7.75352 44.3469 5.78594L40.2141 1.64414C38.2465 -0.323438 35.066 -0.323438 33.0984 1.64414ZM25.875 8.49922L25.0484 8.75078L12.1019 12.632C10.3141 13.1711 8.89453 14.5367 8.30156 16.3156L0.341401 40.0523C-5.52833e-06 41.0676 0.251557 42.1996 0.99726 42.9633L14.7973 29.1723C14.5277 28.6063 14.375 27.9773 14.375 27.3125C14.375 24.9316 16.3066 23 18.6875 23C21.0684 23 23 24.9316 23 27.3125C23 29.6934 21.0684 31.625 18.6875 31.625C18.0227 31.625 17.3937 31.4723 16.8277 31.2027L3.02773 45.0027C3.80039 45.7484 4.92343 46.009 5.93867 45.6586L29.6844 37.6984C31.4543 37.1055 32.8289 35.6859 33.368 33.898L37.2492 20.9516L37.4918 20.125L25.875 8.49922Z" fill="#CB806A"/>
</svg>
