<svg width="46" height="46" viewBox="0 0 46 46" fill="none" xmlns="http://www.w3.org/2000/svg">
<path d="M33.0986 1.64414L28.0943 6.65742L39.3427 17.9059L44.347 12.9016C46.3146 10.934 46.3146 7.75352 44.347 5.78594L40.2142 1.64414C38.2466 -0.323438 35.0661 -0.323438 33.0986 1.64414ZM25.8751 8.49922L25.0486 8.75078L12.1021 12.632C10.3142 13.1711 8.89465 14.5367 8.30168 16.3156L0.341523 40.0523C0.000116542 41.0676 0.251679 42.1996 0.997382 42.9633L14.7974 29.1723C14.5279 28.6063 14.3751 27.9773 14.3751 27.3125C14.3751 24.9316 16.3068 23 18.6876 23C21.0685 23 23.0001 24.9316 23.0001 27.3125C23.0001 29.6934 21.0685 31.625 18.6876 31.625C18.0228 31.625 17.3939 31.4723 16.8279 31.2027L3.02785 45.0027C3.80051 45.7484 4.92355 46.009 5.93879 45.6586L29.6845 37.6984C31.4544 37.1055 32.829 35.6859 33.3681 33.898L37.2493 20.9516L37.4919 20.125L25.8751 8.49922Z" fill="currentColor"/>
</svg>
