<svg width="166" height="157" viewBox="0 0 166 157" fill="none" xmlns="http://www.w3.org/2000/svg">
<path d="M5.45494 156.163C2.44242 156.163 0 153.919 0 151.152V73.3544C0 71.9941 0.043164 70.5947 0.128164 69.196L0.158711 68.7711C0.23873 67.5776 0.33668 66.486 0.457871 65.4398L0.544531 64.7414C0.66041 63.8254 0.800195 62.926 0.951602 62.029L0.982149 61.8423C1.05121 61.4244 1.12061 61.0063 1.1983 60.596C1.41146 59.488 1.6658 58.3436 1.97957 57.0833C1.97957 57.0833 2.1074 56.5511 2.1499 56.3867C2.19074 56.2278 2.34049 55.69 2.34049 55.69C2.47131 55.2035 2.60744 54.7067 2.75287 54.2138C2.75984 54.1885 2.79105 54.0878 2.79902 54.0628C3.36314 52.1654 4.00031 50.3097 4.69625 48.5367C10.8143 32.8826 22.7249 19.4609 38.2311 10.7502C38.4589 10.6188 38.7231 10.4684 38.9861 10.3278C44.2056 7.45189 49.8645 5.1125 55.7454 3.40661C55.7454 3.40661 56.791 3.10374 56.8298 3.09306C64.2796 1.04068 72.0229 0 79.8446 0H86.3361C86.3361 0 87.1728 0.00884516 87.2044 0.00945517C101.188 0.234549 114.883 3.82843 126.81 10.4025C131.465 12.9649 135.85 15.9771 139.863 19.3685C149.199 21.3156 157.296 25.4658 163.951 31.7181C165.215 32.9052 165.756 34.5898 165.397 36.2167L162.035 51.4611C164.443 58.5385 165.663 65.897 165.663 73.3544V151.152C165.663 153.919 163.221 156.163 160.208 156.163H5.45494Z" fill="#846258"/>
<path d="M160.52 73.6731V151.471H71.9977L44.2963 146.069L13.8095 151.471H5.76672V73.6731C5.76672 73.147 5.77569 72.6209 5.79395 72.103C5.79395 71.869 5.80291 71.6354 5.81221 71.4015C5.84874 70.2989 5.91215 69.2048 6.01209 68.1193C6.05758 67.5096 6.12133 66.8999 6.19405 66.2902C6.22127 66.073 6.2485 65.8476 6.27606 65.6304C6.35774 64.979 6.44872 64.3275 6.55795 63.676C6.6579 63.0413 6.76713 62.3983 6.88534 61.7718C7.40364 59.0741 8.0946 56.4434 8.94924 53.871C9.04918 53.537 9.16739 53.2112 9.28559 52.8855C9.29456 52.8269 9.31282 52.7769 9.34004 52.7269C9.41276 52.518 9.47651 52.3093 9.55819 52.1089C9.74014 51.5828 9.94002 51.0649 10.1399 50.5556C15.9043 35.8061 27.0416 23.4037 41.3887 15.3442C41.6068 15.2188 41.825 15.0935 42.0435 14.9767C46.9257 12.2874 52.1717 10.1076 57.6997 8.50415C58.0361 8.4038 58.3724 8.312 58.7088 8.21195C65.5005 6.34105 72.7012 5.33057 80.1567 5.33057H86.6482C86.9029 5.33057 87.1572 5.3388 87.4212 5.3388C100.895 5.55597 113.497 9.05529 124.316 15.0185C146 26.953 160.52 48.7597 160.52 73.6731Z" fill="#CB806A"/>
<path opacity="0.25" d="M160.52 73.673V151.47H5.76672V73.673C5.76672 71.176 5.91215 68.7204 6.19405 66.2901C6.22127 66.0729 6.2485 65.8475 6.27606 65.6304C6.93979 60.4023 8.25795 55.3492 10.1402 50.5552C12.2951 49.8201 14.4497 49.0853 16.6135 48.3503C16.8227 48.2749 17.0408 48.2085 17.259 48.1331C19.7864 47.273 22.3231 46.4211 24.8598 45.5857C25.069 45.5021 25.2872 45.4353 25.5053 45.3685C26.5144 45.026 27.5327 44.6838 28.551 44.3495C34.6242 42.3283 40.716 40.3405 46.8164 38.3781C47.0528 38.2946 47.2892 38.2195 47.5346 38.1442C60.1631 34.0769 72.8374 30.1347 85.5568 26.3014C98.4403 22.4178 111.36 18.6595 124.316 15.0181C146 26.9529 160.52 48.7596 160.52 73.673Z" fill="#302945"/>
<path d="M52.6532 87.784C52.6532 87.784 57.0639 39.8055 68.9025 19.5476C68.9025 19.5476 94.6694 14.6431 110.919 25.7316C110.919 25.7316 139.935 16.349 160.363 35.5406L146.203 99.7253L52.6532 87.784Z" fill="#F7EDE5"/>
<path opacity="0.05" d="M52.6532 87.784C52.6532 87.784 57.0639 39.8055 68.9025 19.5476C68.9025 19.5476 94.6694 14.6431 110.919 25.7316C110.919 25.7316 139.935 16.349 160.363 35.5406L146.203 99.7253L52.6532 87.784Z" fill="#302945"/>
<path d="M110.919 25.7314C110.919 25.7314 98.2288 79.7873 96.2944 93.1148C96.2944 93.1148 117.651 86.7176 146.203 99.7252" stroke="#302945" stroke-width="1.3691" stroke-miterlimit="10" stroke-linecap="round" stroke-linejoin="round"/>
<path d="M52.6532 87.4993C52.6532 87.4993 56.522 81.5996 73.7774 85.0828C91.0327 88.5656 96.2944 93.1148 96.2944 93.1148C96.2944 93.1148 109.216 91.7642 120.901 93.328C132.585 94.8917 145.971 99.7252 145.971 99.7252" stroke="#302945" stroke-width="1.3691" stroke-miterlimit="10" stroke-linecap="round" stroke-linejoin="round"/>
<path d="M145.661 99.7254C145.661 99.7254 127.787 95.5316 119.43 94.3234C111.073 93.115 96.3718 93.1861 96.3718 93.1861C96.3718 93.1861 84.9974 87.9973 72.3848 86.7178C59.7723 85.4383 52.6535 87.7841 52.6535 87.7841C52.6535 87.7841 63.3317 87.251 75.4027 88.7794C84.9808 89.9921 96.3721 93.3996 96.3721 93.3996C96.3721 93.3996 112.853 94.608 120.901 95.8161C128.948 97.0243 145.661 99.7254 145.661 99.7254Z" stroke="#302945" stroke-width="1.3691" stroke-miterlimit="10" stroke-linecap="round" stroke-linejoin="round"/>
<path d="M107.496 23.5788C106.441 23.0526 105.305 22.5683 104.377 22.2175C104.277 21.4992 104.132 20.7977 103.914 20.1295C103.205 17.8492 101.495 15.7782 99.4042 15.06C97.3768 14.3167 94.8036 15.0014 93.1945 16.5048C91.5307 18.0164 90.6034 20.3131 90.5489 22.585C90.4579 24.8735 91.3398 27.0198 92.7217 29.2415C94.0764 31.4714 95.895 33.7181 97.3131 36.4994C98.7405 39.289 99.5407 42.4793 99.2405 45.7615C99.0403 47.9496 98.3404 50.1377 97.0856 52.0922L95.9856 48.3339L91.8306 49.2358C92.6852 48.0832 93.258 46.6719 93.4671 45.2104C93.7945 43.039 93.3855 40.6752 92.3943 38.4789C91.4215 36.2404 89.8032 33.9691 88.3668 31.3713C87.6486 30.0684 86.9939 28.6486 86.5576 27.1202C86.112 25.5918 85.9304 23.9466 86.0665 22.3597C86.3391 19.1943 87.7393 16.0207 90.4397 13.7823C91.7944 12.6632 93.4947 11.8531 95.2857 11.5106C97.077 11.1681 99.0678 11.2852 100.786 12.0035C102.514 12.705 103.878 13.8576 104.887 15.1438C105.896 16.4383 106.587 17.8916 106.969 19.3865C107.341 20.7977 107.478 22.2007 107.496 23.5788Z" fill="#FAB9B9"/>
<path d="M142.954 120.761L142.599 120.936L142.572 120.945L141.836 121.295L141.272 121.563C140.999 121.646 140.699 121.746 140.363 121.846C136.062 123.208 127.325 126.114 121.515 129.012C114.924 132.303 104.714 138.525 101.404 140.571C101.377 140.588 101.359 140.596 101.341 140.613L100.868 140.83L100.213 141.139V141.148L100.186 141.156L100.104 141.198L100.013 141.239C100.013 141.239 100.004 141.239 99.9856 141.248C99.9766 141.239 99.9766 141.248 99.9673 141.248C99.9308 141.256 99.8763 141.273 99.7947 141.289C99.631 141.339 99.3763 141.406 99.04 141.498C98.8763 141.54 98.6943 141.59 98.4944 141.649C98.4855 141.649 98.4855 141.649 98.4762 141.657C94.9394 142.634 85.9931 145.223 79.1921 148.063C76.7464 149.082 74.2551 150.285 71.9369 151.47H67.3545L46.927 147.206L26.7415 122.557L24.8957 119.859L14.122 104.133C14.122 104.133 14.2036 104.024 14.3856 103.824C14.3856 103.807 14.3946 103.799 14.4128 103.782C14.4218 103.765 14.44 103.749 14.4583 103.74C14.6582 103.515 14.9401 103.18 15.3312 102.771C15.4222 102.68 15.5221 102.571 15.6314 102.462C15.7768 102.32 15.9315 102.162 16.0952 101.995C16.1407 101.945 16.1952 101.886 16.2496 101.836C16.2951 101.786 16.3496 101.736 16.4043 101.686C16.7045 101.385 17.0409 101.059 17.4044 100.725C17.5044 100.625 17.6043 100.533 17.7135 100.442C17.9772 100.191 18.2501 99.9486 18.541 99.6982C18.6226 99.6146 18.7136 99.5396 18.8046 99.456C20.2958 98.1531 22.1505 96.6665 24.3688 95.1213C29.742 91.388 37.2609 87.2955 47.0166 84.5812C47.1166 84.5477 47.2258 84.5227 47.3258 84.4977C47.4078 84.4727 47.4894 84.4476 47.5711 84.4309C48.1256 84.2723 48.6804 84.1301 49.2532 83.9965H49.2622C49.3714 83.9633 49.4803 83.9297 49.5895 83.913C49.6716 83.888 49.7443 83.8712 49.8259 83.8544C52.5808 83.1861 55.4904 82.635 58.5723 82.2342C58.6723 82.2174 58.7725 82.2092 58.8725 82.2007C58.9269 82.1839 58.9907 82.1839 59.0544 82.1757C60.3726 82.0085 61.7273 81.8667 63.1092 81.7581C63.1819 81.7499 63.2546 81.7499 63.3273 81.7413C63.3273 81.7413 63.3635 81.6828 63.4545 81.5742C63.7547 81.1484 64.6727 79.9205 66.2276 78.267C66.7277 77.7409 67.2915 77.173 67.928 76.5633C68.1278 76.3629 68.346 76.1625 68.5645 75.9535C70.119 74.517 72.0192 72.9218 74.3013 71.3184C76.5289 69.7482 79.1108 68.1613 82.0565 66.7082C82.3202 66.5746 82.5931 66.441 82.8657 66.3157C83.9113 65.8146 85.0113 65.3302 86.1478 64.8709C87.0115 64.5201 87.9026 64.1861 88.8207 63.8604C91.2027 63.0253 93.7577 62.2902 96.5032 61.7055C97.3124 61.5301 98.1398 61.3715 98.9852 61.2294C102.722 60.5779 106.777 60.2021 111.15 60.2021L142.844 120.553L142.954 120.761Z" fill="#F7EDE5"/>
<path d="M35.452 122.498L56.2634 151.471H55.7178L34.9064 122.506L25.1507 108.926L18.5682 99.7728C18.5592 99.7478 18.541 99.7228 18.541 99.6978C18.5227 99.6142 18.5592 99.5307 18.6409 99.4806C18.6864 99.4474 18.7501 99.4388 18.8046 99.4556C18.8683 99.4639 18.9228 99.4889 18.95 99.5392L25.1417 108.158L35.452 122.498Z" fill="#302945"/>
<path d="M33.7334 122.515L54.7174 151.471H54.1719L33.1968 122.515L25.1414 111.399L17.4134 100.733C17.4134 100.733 17.4134 100.725 17.4044 100.725C17.3407 100.625 17.3679 100.5 17.4771 100.441C17.5498 100.391 17.6408 100.391 17.7135 100.441C17.7408 100.449 17.768 100.474 17.7862 100.5L25.1417 110.655L33.7334 122.515Z" fill="#302945"/>
<path d="M31.5333 122.523L52.5357 151.471H51.9991L30.9878 122.531L25.0963 114.405L16.0952 101.994L16.0225 101.903C15.9498 101.811 15.977 101.677 16.0863 101.61C16.1862 101.552 16.3316 101.577 16.3954 101.669L16.4043 101.685L25.1145 113.679L31.5333 122.523Z" fill="#302945"/>
<path d="M29.824 122.532L50.2353 151.471H49.6988L29.2785 122.54L25.0325 116.51L15.3315 102.772L15.3226 102.755C15.2499 102.655 15.2864 102.53 15.3863 102.463C15.468 102.421 15.559 102.421 15.6317 102.463C15.6589 102.48 15.6861 102.496 15.7044 102.53L25.0601 115.784L29.824 122.532Z" fill="#302945"/>
<path d="M27.9783 122.548L48.3531 151.471H47.8075L27.4417 122.548L24.9322 118.999L14.3949 104.032C14.3494 103.965 14.3494 103.89 14.3859 103.823C14.3859 103.806 14.3949 103.798 14.4131 103.781C14.4221 103.764 14.4404 103.748 14.4586 103.739C14.5679 103.681 14.704 103.706 14.7767 103.806L24.9688 118.272L27.9783 122.548Z" fill="#302945"/>
<path d="M100.241 141.24C100.241 141.273 100.232 141.298 100.213 141.332C100.213 141.348 100.204 141.357 100.195 141.365C100.186 141.365 100.186 141.373 100.186 141.382C100.177 141.382 100.177 141.39 100.168 141.382V141.398C100.159 141.398 100.159 141.407 100.15 141.407C100.131 141.415 100.122 141.423 100.104 141.423L100.095 141.432C100.086 141.432 100.086 141.432 100.086 141.432C100.077 141.44 100.077 141.44 100.068 141.44C100.05 141.448 100.041 141.448 100.022 141.448H100.013C99.9497 141.448 99.6134 141.465 99.0406 141.498C98.7497 141.515 98.3951 141.54 97.9861 141.573C96.977 141.648 95.6403 141.757 94.0764 141.941C89.7304 142.434 83.6752 143.402 78.3474 145.265C74.3288 146.676 70.6738 149.107 67.7735 151.47H67.1009C67.2373 151.353 67.3827 151.236 67.5282 151.119C70.4557 148.739 74.129 146.3 78.1837 144.88C86.9029 141.832 97.5312 141.155 99.6316 141.047L63.1274 81.8415C63.1092 81.8165 63.1002 81.7829 63.1092 81.7579C63.0909 81.6826 63.1364 81.5993 63.2184 81.5576C63.2911 81.5158 63.3821 81.524 63.4548 81.5743C63.482 81.5826 63.5093 81.6079 63.5275 81.6411L100.05 140.872L100.177 141.081C100.168 141.081 100.168 141.081 100.168 141.081C100.168 141.089 100.177 141.089 100.177 141.089C100.186 141.106 100.204 141.123 100.213 141.139V141.148C100.232 141.173 100.241 141.206 100.241 141.24Z" fill="#302945"/>
<path d="M100.159 141.382C100.15 141.39 100.15 141.39 100.141 141.398C100.132 141.407 100.122 141.415 100.104 141.423L100.095 141.432C100.086 141.432 100.086 141.432 100.086 141.432C100.077 141.44 100.077 141.44 100.068 141.44C100.05 141.448 100.041 141.448 100.022 141.448H100.013C100.013 141.448 100.013 141.456 100.004 141.456C98.6043 141.832 87.3757 144.872 79.2841 148.255C76.9838 149.215 74.629 150.343 72.4197 151.47H71.4923C73.9198 150.209 76.5382 148.939 79.1021 147.87C85.0027 145.406 92.5673 143.118 96.7951 141.907C97.2314 141.782 97.6315 141.673 97.9861 141.573C98.95 141.306 99.6227 141.122 99.8863 141.055C99.8863 141.055 99.8863 141.055 99.8953 141.047H99.9135C99.9225 141.039 99.9408 141.039 99.959 141.039C99.968 141.039 99.968 141.031 99.9773 141.039C100.041 141.039 100.104 141.064 100.15 141.106C100.168 141.122 100.177 141.139 100.186 141.156C100.232 141.231 100.222 141.323 100.159 141.382Z" fill="#302945"/>
<path d="M100.241 141.24C100.241 141.273 100.232 141.298 100.213 141.332C100.213 141.348 100.204 141.357 100.195 141.365C100.186 141.365 100.186 141.373 100.186 141.382C100.177 141.39 100.177 141.39 100.177 141.39L100.168 141.398C100.159 141.398 100.159 141.406 100.15 141.406C100.132 141.415 100.123 141.423 100.104 141.423L100.095 141.431C100.087 141.431 100.086 141.431 100.086 141.431C100.078 141.44 100.078 141.44 100.068 141.44C100.05 141.448 100.041 141.448 100.023 141.448H100.014C100.014 141.448 100.014 141.456 100.005 141.456H99.9683C99.8866 141.464 99.3594 141.531 98.4954 141.648C98.4864 141.648 98.4864 141.648 98.4771 141.656C98.0133 141.715 97.4405 141.799 96.7951 141.907C92.9674 142.517 86.3029 143.803 80.2025 146.117C76.6112 147.486 72.9835 149.507 69.9012 151.47H69.1286C72.3469 149.382 76.2022 147.194 80.0298 145.732C84.9758 143.853 90.2036 142.659 94.0767 141.94C97.1135 141.372 99.3135 141.114 99.8956 141.047V141.039H99.9593C99.9683 141.039 99.9683 141.03 99.9776 141.039C99.9866 141.03 100.005 141.03 100.014 141.03C100.078 141.03 100.123 141.055 100.169 141.08C100.169 141.089 100.177 141.089 100.177 141.089C100.186 141.105 100.205 141.122 100.214 141.139V141.147C100.232 141.173 100.241 141.206 100.241 141.24Z" fill="#302945"/>
<path d="M143.182 120.753C143.182 120.644 143.082 120.552 142.945 120.552H142.845C118.434 121.103 102.068 138.601 100.05 140.872C99.9769 140.947 99.9314 140.998 99.8949 141.039V141.048C99.8859 141.056 99.886 141.056 99.886 141.056C99.8498 141.089 99.8315 141.106 99.8315 141.114C99.786 141.165 99.7677 141.231 99.7953 141.29C99.8043 141.323 99.8225 141.365 99.8591 141.39C99.9045 141.432 99.959 141.449 100.013 141.449H100.022C100.041 141.449 100.05 141.449 100.068 141.441C100.077 141.441 100.077 141.441 100.086 141.432C100.086 141.432 100.086 141.432 100.095 141.432L100.104 141.424C100.122 141.424 100.131 141.416 100.15 141.407C100.159 141.407 100.159 141.399 100.168 141.399L100.177 141.391C100.177 141.391 100.177 141.391 100.186 141.383C100.25 141.333 100.477 141.14 100.868 140.831C101.168 140.598 101.568 140.289 102.059 139.913C102.068 139.913 102.077 139.905 102.086 139.896C105.832 137.023 114.369 130.759 121.379 127.786C126.68 125.531 132.971 123.727 137.344 122.608C137.399 122.591 137.444 122.574 137.499 122.558C138.599 122.274 139.572 122.04 140.363 121.848C140.99 121.706 141.5 121.589 141.891 121.497L142.073 121.455C142.427 121.38 142.682 121.322 142.836 121.305C142.954 121.288 143.045 121.18 143.027 121.063C143.018 121.03 143 120.996 142.982 120.971C143.036 120.963 143.082 120.937 143.118 120.904C143.154 120.861 143.182 120.811 143.182 120.753ZM121.188 127.401C114.342 130.307 106.059 136.312 102.141 139.311C107.205 134.266 121.852 121.68 142.254 120.987C142.163 121.012 142.073 121.028 141.964 121.053L141.782 121.095C138.918 121.738 128.98 124.085 121.188 127.401Z" fill="#302945"/>
<path d="M100.322 141.448C100.249 141.448 100.177 141.415 100.134 141.356C100.063 141.26 100.09 141.131 100.194 141.066C100.194 141.066 100.558 140.84 101.214 140.439C101.215 140.438 101.259 140.408 101.261 140.407C103.408 139.08 114.394 132.329 121.407 128.829C127.617 125.727 137.316 122.576 141.198 121.365C141.774 121.186 142.217 121.051 142.504 120.964L142.811 120.874C142.886 120.85 142.922 120.844 142.954 120.844C143.079 120.844 143.181 120.937 143.181 121.053C143.181 121.156 143.1 121.242 142.993 121.259C142.937 121.278 142.894 121.292 142.838 121.301L142.648 121.361C142.361 121.448 141.919 121.583 141.345 121.761C137.474 122.968 127.804 126.11 121.624 129.196C114.63 132.687 103.659 139.429 101.531 140.745C101.52 140.754 101.479 140.779 101.466 140.787C100.812 141.187 100.449 141.412 100.449 141.412C100.41 141.436 100.366 141.448 100.322 141.448Z" fill="#302945"/>
<path d="M77.8877 72.021C91.045 69.3433 99.348 57.3747 96.433 45.2884C93.518 33.202 80.4888 25.5749 67.3316 28.2526C54.1743 30.9303 45.8713 42.899 48.7863 54.9853C51.7013 67.0716 64.7305 74.6988 77.8877 72.021Z" fill="#846258"/>
<path d="M79.5952 43.1308C89.9064 49.1022 89.2344 47.461 82.7342 56.9326C79.7118 61.3363 83.7031 68.3151 78.6655 69.6327C72.8453 71.1645 66.3694 70.4913 60.8444 67.2915C50.5252 61.3156 47.4433 48.7978 53.9438 39.3259C57.4271 34.2503 62.9538 31.0779 68.9244 30.1547C74.0981 29.3333 74.8093 40.3592 79.5952 43.1308Z" fill="#C8988A"/>
<path d="M84.3874 32.9871C88.3525 35.2835 91.2469 38.5449 92.9376 42.2361C95.6546 48.1383 95.2807 55.1189 91.2801 60.9482C88.2579 65.3519 83.7031 68.3153 78.6659 69.6329C73.4941 70.4348 67.9937 69.5649 63.2078 66.7933C54.6275 61.8242 51.0512 52.3266 53.8342 43.8209C54.3914 42.0992 55.2162 40.4177 56.3072 38.8277C59.3194 34.4389 63.8709 31.463 68.9244 30.1548C74.0981 29.3335 79.6015 30.2155 84.3874 32.9871Z" fill="#302945"/>
<g opacity="0.13">
<path d="M92.9419 42.2363C92.8004 42.268 92.657 42.326 92.5288 42.3721C90.6967 43.0842 89.426 44.6761 88.6467 46.3557C87.7824 48.2434 87.4481 50.3303 87.6898 52.3653C87.7273 52.7178 87.7804 53.093 87.7628 53.4492C87.7469 53.9171 87.6297 54.356 87.2528 54.6641C86.7654 55.0487 86.0931 55.0188 85.427 55.0136C85.1537 55.0063 84.8825 55.0069 84.6285 55.038C84.3834 55.0673 84.1474 55.1289 83.9349 55.211C82.9115 55.6212 82.2179 56.6021 81.9271 57.6906C81.7876 58.1863 81.7358 58.6966 81.764 59.1888L81.7664 59.1971C81.7687 59.2053 81.7617 59.2154 81.766 59.2315C81.8082 59.9184 81.9739 60.612 81.8862 61.3025C81.8308 61.7277 81.6741 62.1239 81.4516 62.4835L81.4426 62.4856C80.5704 63.8505 78.6363 64.6371 76.9028 64.3126C76.4402 64.2272 75.9977 64.0772 75.5846 63.8606C74.0566 63.1118 72.9516 61.6316 72.5595 60.0517C72.0618 58.0399 72.5658 55.9234 73.4503 54.04C74.2834 52.2454 75.5046 50.4324 75.2622 48.5008C74.9889 46.2066 72.3466 44.4006 69.8747 44.8179C66.226 45.4218 64.2799 49.7877 60.5868 50.0835C58.3608 50.265 56.3205 48.8229 55.162 47.071C54.4863 46.0791 54.0497 44.9649 53.8382 43.8172C53.7662 44.0395 53.7011 44.2521 53.6294 44.4745C53.5032 44.9155 53.397 45.3605 53.2997 45.8037C53.2339 46.1194 53.1768 46.4329 53.1287 46.7446C53.1217 46.7891 53.1127 46.8254 53.1124 46.8599C53.0666 47.1799 53.0204 47.4995 52.9922 47.8155C52.952 48.2629 52.9208 48.7085 52.9072 49.1499C52.8823 50.0411 52.9231 50.9345 53.037 51.8202C53.0599 52.0471 53.0895 52.264 53.1303 52.487C53.1835 52.8276 53.2455 53.1662 53.3183 53.5109C53.3827 53.8232 53.458 54.1416 53.5401 54.45L53.5573 54.5149C53.6197 54.7501 53.6911 54.9834 53.7625 55.2168C53.8037 55.3363 53.8449 55.4562 53.8884 55.584L53.8947 55.6084C53.9315 55.7462 53.977 55.8823 54.0401 56.0143L54.0467 56.0387C54.0534 56.0631 54.0686 56.0854 54.075 56.1098L54.0836 56.1421C54.1032 56.215 54.1334 56.2943 54.1616 56.3654C54.2333 56.5643 54.3157 56.7692 54.405 56.9641C54.4551 57.0819 54.5049 57.1996 54.5551 57.3173C54.6424 57.5043 54.7204 57.6931 54.8187 57.8858C54.9057 58.0725 55.0017 58.2573 55.0976 58.4422C55.2895 58.8118 55.499 59.1776 55.7152 59.5329C55.7677 59.6244 55.8178 59.7076 55.8792 59.797C56.0124 60.0163 56.1525 60.2259 56.3032 60.4412C56.4105 60.5977 56.5174 60.7541 56.6336 60.9088C56.7428 61.0735 56.861 61.236 56.9879 61.3968C57.1738 61.6386 57.3667 61.8707 57.5616 62.1105C57.5746 62.1248 57.5878 62.1388 57.6011 62.1532C57.8179 62.4054 58.0437 62.6558 58.2781 62.9041C58.5106 63.1441 58.745 63.3924 58.995 63.6288C59.1726 63.8039 59.3569 63.9689 59.5521 64.14C59.5893 64.1745 59.6288 64.2175 59.675 64.2501C59.7364 64.305 59.7998 64.3681 59.8726 64.4294C60.092 64.621 60.3201 64.8104 60.5552 64.9897C60.7923 65.1773 61.0294 65.3649 61.282 65.5403C61.3501 65.5851 61.4115 65.6403 61.4796 65.6851C61.6751 65.8218 61.8704 65.9584 62.0749 66.0932C62.1759 66.1567 62.2662 66.2137 62.3671 66.2772C62.6397 66.4568 62.9186 66.6264 63.2065 66.7938C63.8041 67.1412 64.4131 67.4603 65.0313 67.7427C65.3414 67.8882 65.6582 68.0233 65.9726 68.1505C66.122 68.22 66.2784 68.2795 66.4411 68.3289C66.7141 68.4396 66.9933 68.5403 67.2705 68.6327C67.581 68.7437 67.8978 68.8444 68.2039 68.9393C68.5187 69.032 68.8314 69.1165 69.1528 69.1991C69.4434 69.2714 69.7428 69.3419 70.0403 69.4041C70.0802 69.4123 70.1107 69.4227 70.1506 69.4309L70.1595 69.4291C70.1682 69.4273 70.1795 69.4334 70.1991 69.4373C70.208 69.4352 70.219 69.4413 70.2276 69.4395C70.5537 69.5038 70.8774 69.5602 71.2101 69.6145C71.4744 69.6585 71.7367 69.6941 72.0076 69.728C72.1245 69.7448 72.241 69.7615 72.3559 69.7701C72.3646 69.768 72.3759 69.7744 72.3845 69.7722C72.5784 69.7975 72.7789 69.8128 72.9709 69.8299C72.9908 69.8341 72.9994 69.832 73.0193 69.8363C73.5944 69.8878 74.1721 69.9128 74.7432 69.9137C74.9418 69.9208 75.138 69.9198 75.3409 69.9086C75.5195 69.9116 75.7048 69.9043 75.8811 69.8991C76.0949 69.8939 76.3068 69.8808 76.5186 69.8677C76.6664 69.8604 76.8141 69.853 76.9685 69.8354C77.0236 69.8317 77.0877 69.8259 77.1428 69.8219C77.3347 69.8046 77.5356 69.7853 77.7252 69.76C78.043 69.7231 78.3498 69.6801 78.6652 69.635C83.7051 68.3146 88.2606 65.3493 91.283 60.9484C91.7011 60.3387 92.0709 59.7229 92.4096 59.0964C92.561 58.8216 92.7018 58.5407 92.8403 58.2519C92.8582 58.2134 92.8781 58.1832 92.8871 58.1466C93.0299 57.8395 93.1706 57.5241 93.2938 57.2127C93.2981 57.1944 93.3118 57.1743 93.3161 57.156C93.4256 56.8992 93.5219 56.6283 93.6116 56.3675C93.6876 56.1614 93.755 55.957 93.8138 55.7548C93.8968 55.5041 93.9712 55.2552 94.0342 55.0002C94.0409 54.9901 94.0455 54.9718 94.0432 54.9639C94.0904 54.8242 94.1266 54.6787 94.1538 54.5351C94.1989 54.353 94.2418 54.1626 94.2849 53.9726C94.2896 53.9543 94.2919 53.9281 94.2962 53.9098C94.2985 53.8836 94.3032 53.8653 94.3142 53.8369C94.3254 53.7741 94.3371 53.7115 94.3484 53.6487C94.4144 53.2986 94.4759 52.9323 94.52 52.5699C94.5502 52.3311 94.5801 52.0923 94.5994 51.847C94.6395 51.3651 94.6711 50.8854 94.6741 50.4032C94.6754 50.1622 94.6771 49.9209 94.6694 49.6818C94.6621 49.4082 94.6525 49.1612 94.6389 48.8976C94.6366 48.8894 94.6412 48.8714 94.6392 48.8632C94.6372 48.8208 94.6332 48.7702 94.6312 48.7275C94.6269 48.7113 94.6293 48.6851 94.6249 48.6686C94.6186 48.6097 94.6123 48.5512 94.606 48.4923C94.5941 48.3059 94.5771 48.1376 94.5496 47.9634C94.5542 47.9451 94.5519 47.9372 94.5476 47.921L94.5452 47.9128C94.5409 47.8966 94.5433 47.8704 94.5389 47.8542C94.518 47.6697 94.4991 47.4934 94.4606 47.3128C94.4138 46.9965 94.3606 46.6906 94.2986 46.3862C94.2816 46.2868 94.2577 46.1977 94.2408 46.0983C94.1807 45.8366 94.1226 45.5832 94.0535 45.3236C93.7723 44.2683 93.4034 43.2331 92.9419 42.2363ZM68.1674 48.9568C68.1391 48.1464 68.598 47.3385 69.3348 46.9066C70.1669 46.4103 71.1118 46.6196 71.8429 47.1518C72.596 47.6962 73.2222 48.5018 73.184 49.3783C73.1442 50.1439 72.5824 50.846 71.8217 51.1544C71.059 51.4545 70.1469 51.367 69.4414 50.9665C68.6986 50.5316 68.2026 49.7572 68.1674 48.9568ZM68.9563 53.5773C69.0107 53.29 69.2903 53.0381 69.6034 53.054L69.8415 53.0347C70.2137 53.0973 70.5723 53.2833 70.7887 53.57C71.0052 53.8567 71.0716 54.2459 70.9109 54.557C70.7526 54.8764 70.3697 55.0911 69.9909 55.0386C69.6207 54.984 69.3401 54.7031 69.1565 54.4006C69.0061 54.1508 68.8909 53.8586 68.9563 53.5773ZM62.7758 61.8338C62.4053 61.8137 62.0577 61.7027 61.7346 61.5432C60.3517 60.8478 59.5996 59.3227 59.7205 57.877C59.7464 57.5876 59.8012 57.3002 59.9702 57.0559C60.5194 56.2705 62.5547 56.6393 63.2958 56.9974C64.0565 57.3597 64.6505 58.0088 64.9061 58.7594C65.1426 59.4371 65.0961 60.2127 64.7089 60.8328C64.3105 61.4462 63.5538 61.8741 62.7758 61.8338ZM67.4711 65.1303C67.2463 65.5162 66.6702 65.6025 66.21 65.4909C65.358 65.278 64.1853 63.6495 65.4782 63.1963C66.3508 62.8886 67.9389 64.3202 67.4711 65.1303ZM64.4164 51.991C64.1494 51.621 64.0156 51.1526 64.1415 50.7115C64.4632 49.5989 65.9773 49.7321 66.6078 50.5191C66.9319 50.9278 67.0235 51.4832 66.8399 51.9544C66.7748 52.1322 66.6769 52.2917 66.5328 52.4189C66.2379 52.6828 65.7811 52.7596 65.3823 52.6684C64.9908 52.5672 64.6505 52.3082 64.4164 51.991ZM68.685 61.1781C68.3606 61.1906 68.0286 61.0674 67.7981 60.8697C67.4273 60.5659 67.2539 60.0547 67.4107 59.6241C67.929 58.089 69.9152 58.9759 69.6778 60.3363C69.6525 60.4882 69.5987 60.6376 69.5031 60.7709C69.3255 61.0173 69.0004 61.1677 68.685 61.1781Z" fill="#CB806A"/>
</g>
<path d="M74.5513 36.0076C75.2987 36.4983 76.2138 36.7179 77.0249 37.1145C78.1748 37.6766 79.0859 38.5776 80.1922 39.2086C81.2985 39.8397 82.7923 40.1639 83.8704 39.4929C84.9299 38.8332 85.165 37.4076 84.6786 36.3202C84.1922 35.2329 83.1489 34.4383 82.0549 33.828C80.573 33.0015 73.1657 30.0652 73.0183 33.3428C72.9722 34.3776 73.6532 35.418 74.5513 36.0076Z" fill="#846258"/>
<path d="M85.4605 41.828C85.4124 42.6853 85.925 43.5259 86.6834 44.0277C87.1658 44.3467 87.7675 44.5447 88.3558 44.4672C89.1162 44.3674 89.756 43.7965 89.9639 43.1172C90.1714 42.438 89.9738 41.6819 89.5179 41.1139C89.0425 40.5213 87.9664 39.7991 87.1124 39.9083C86.1887 40.0263 85.5044 41.0481 85.4605 41.828Z" fill="#846258"/>
<path d="M61.1744 68.282L56.518 76.2042C55.5478 77.8549 53.5792 78.668 52.0967 78.0308C50.5979 77.3867 50.159 75.5039 51.1162 73.8248L55.9884 65.2786L61.1744 68.282Z" fill="#846258"/>
<path d="M25.1417 110.655C25.1507 110.07 25.1507 109.494 25.1507 108.926C25.1507 108.667 25.1507 108.408 25.1417 108.158C25.0963 102.345 24.7689 97.9269 24.3688 95.1208C24.2144 93.9514 24.0414 93.0663 23.8687 92.4734C22.9414 89.2077 21.7049 80.2463 21.7049 80.2463L22.4868 71.1678L22.5323 70.6917L22.8687 66.7663C22.8687 66.7245 22.8776 66.6827 22.8869 66.6409C22.9234 66.4823 23.0141 66.3487 23.1323 66.2402C23.3594 66.0312 23.705 65.9312 24.0414 66.0312C25.4323 66.4238 27.6509 67.8771 27.7326 73.097C27.7416 73.2056 27.7416 73.3141 27.7416 73.4227L36.6516 66.4573V66.4491L37.0607 66.1401L40.6337 63.3423C41.0155 63.0416 41.5972 63.0833 41.9246 63.4426C42.8337 64.4617 44.1157 66.658 41.5245 69.2722C41.47 69.3308 41.4156 69.389 41.3518 69.4476L41.7065 69.4226L47.1162 69.055L47.5436 69.0218C47.5436 69.0218 47.6073 68.9883 47.7345 68.9215C48.4254 68.5707 50.8984 67.3763 52.9988 67.1009C53.6626 67.0173 54.2898 67.0173 54.817 67.1677L54.0623 68.9132L53.726 69.6983L49.9983 78.3007L47.3251 84.4978L44.9159 90.0602C44.9159 90.0602 44.9703 90.127 45.0796 90.177C45.3887 90.3188 46.1434 90.3023 47.3888 88.2143C47.4343 88.1392 47.4798 88.0557 47.5343 87.9636C47.5432 87.9468 47.5432 87.9385 47.5525 87.9218C48.0253 87.0617 48.7163 85.6001 49.5892 83.9128C50.4439 82.2508 51.4894 80.3881 52.6804 78.7012H52.6894C54.1168 76.6802 55.7716 74.9261 57.5898 74.1242C57.8628 73.9989 58.1443 73.8988 58.4262 73.8235C59.0989 73.6399 59.7899 73.5981 60.4991 73.7232C60.5174 73.7232 60.5263 73.7314 60.5446 73.7399H60.5535C60.7538 73.7817 60.9171 73.8903 61.0264 74.0321C61.199 74.2411 61.2628 74.5332 61.1535 74.8004C61.0718 75.0258 60.9626 75.3098 60.8534 75.6273C60.526 76.546 60.0987 77.8154 59.6258 79.4106V79.4188C59.6076 79.5024 59.5804 79.5942 59.5531 79.6778C59.335 80.4461 59.0986 81.2897 58.8711 82.2002C58.3167 84.4051 57.7529 87.0107 57.289 89.9174C57.28 89.9424 57.28 89.976 57.2707 90.001C57.0526 91.3455 56.8617 92.757 56.707 94.2271V94.2354C56.4161 96.8496 56.2341 99.6389 56.2069 102.571C56.1614 107.014 56.6432 114.221 57.3617 122.373V122.473C58.1891 131.811 59.3257 142.384 60.3713 151.471H21.4957C22.696 143.478 23.9049 134.283 24.487 126.449C24.5869 125.121 24.6779 123.826 24.7506 122.565C24.8051 121.646 24.8506 120.744 24.896 119.859C24.9143 119.567 24.9233 119.283 24.9326 118.999C24.9508 118.748 24.9598 118.514 24.9691 118.272C24.9963 117.671 25.0146 117.086 25.0328 116.51C25.0418 116.268 25.0511 116.026 25.0601 115.783C25.069 115.316 25.0873 114.856 25.0963 114.405C25.0963 114.163 25.1052 113.921 25.1145 113.679C25.1235 112.902 25.1328 112.134 25.1417 111.399C25.1417 111.148 25.1507 110.898 25.1417 110.655Z" fill="#F7C8BB"/>
<path d="M26.19 85.0075C26.189 85.0075 26.1876 85.0075 26.1863 85.0075C26.0611 85.006 25.9609 84.9108 25.9625 84.7955C25.9688 84.4012 26.1349 75.1134 27.5526 73.3041C28.9488 71.5229 40.5686 63.303 41.0626 62.9541C41.13 62.9065 41.2197 62.8983 41.2974 62.9303C41.322 62.941 43.77 64.0189 43.3596 66.2811C42.9635 68.4649 41.5607 69.5602 41.5013 69.6056C41.403 69.6792 41.2612 69.6673 41.1815 69.5791C41.1008 69.491 41.1138 69.3592 41.2101 69.2851C41.2233 69.275 42.5445 68.2359 42.9114 66.2128C43.2169 64.5307 41.6733 63.5992 41.2243 63.3668C39.9839 64.2464 29.2075 71.9078 27.9215 73.5481C26.5867 75.2522 26.4184 84.7068 26.4171 84.8022C26.4158 84.916 26.3141 85.0075 26.19 85.0075Z" fill="#302945"/>
<path d="M29.0335 85.3624C29.0049 85.3624 28.9761 85.3575 28.9482 85.3474C28.832 85.3041 28.7755 85.1821 28.8227 85.0754C29.0132 84.6426 33.5106 74.4541 35.7302 72.6299C37.909 70.8392 40.71 69.277 41.8462 69.219C42.8759 69.1663 47.4808 68.814 47.527 68.8109C47.6478 68.8021 47.7617 68.8863 47.7723 69.0019C47.783 69.1166 47.6897 69.2175 47.5645 69.227C47.5183 69.2306 42.9071 69.5829 41.8708 69.636C40.9551 69.683 38.3317 71.0518 36.0327 72.9416C33.8914 74.7012 29.2902 85.1269 29.244 85.2321C29.2085 85.313 29.1231 85.3624 29.0335 85.3624Z" fill="#302945"/>
<path d="M44.0064 92.2928C43.9785 92.2928 43.95 92.2879 43.9221 92.2782C43.8059 92.2355 43.7491 92.1138 43.7953 92.0064L54.5016 67.3406C52.7482 67.1314 50.5255 67.2342 46.7537 69.8081C42.7716 72.5254 33.3831 86.2455 33.2891 86.3836C33.2231 86.4825 33.0826 86.5108 32.9757 86.4498C32.8691 86.3885 32.8372 86.2598 32.9036 86.1619C33.2908 85.5946 42.4323 72.2366 46.4827 69.4729C50.6006 66.6623 52.964 66.7053 54.8536 66.9642C54.922 66.9737 54.9824 67.0112 55.0169 67.0667C55.0515 67.1222 55.0568 67.1887 55.0312 67.2482L44.2176 92.1613C44.1821 92.2431 44.0964 92.2928 44.0064 92.2928Z" fill="#302945"/>
<path d="M57.1273 122.487C57.1273 122.487 56.6628 117.155 56.4885 114.916C56.3062 112.567 55.851 100.054 56.2567 94.2028C56.6612 88.3671 59.6415 78.032 60.3899 76.127C60.9271 74.7609 60.9457 74.1569 60.9271 73.9553C59.9117 73.6387 58.8526 73.711 57.7755 74.1728C53.5865 75.9675 49.8011 83.3712 48.2249 87.4628C46.8828 90.9463 45.1466 92.1983 45.0733 92.2496C44.9727 92.32 44.8312 92.3017 44.7548 92.2111C44.6785 92.1199 44.6967 91.9888 44.796 91.9183C44.8129 91.9064 46.504 90.6766 47.7956 87.3231C48.2365 86.1787 52.2571 76.0763 57.5832 73.7943C58.816 73.2654 60.0353 73.2011 61.205 73.6031C61.2621 73.6229 61.3083 73.6625 61.3332 73.7141C61.378 73.8071 61.5646 74.3671 60.8172 76.2688C60.0728 78.1623 57.1117 88.4312 56.71 94.2297C56.3055 100.063 56.7598 112.543 56.9417 114.886C57.116 117.124 57.5796 122.454 57.5796 122.454L57.1273 122.487Z" fill="#302945"/>
<path d="M59.428 79.721C59.3479 79.721 59.2699 79.682 59.2287 79.6124C58.7519 78.8148 58.5989 77.8205 58.7971 76.8137C58.9644 75.9679 59.3755 75.102 60.0196 74.241C60.2212 73.9711 60.5436 73.6121 61.0078 73.6121C61.0081 73.6121 61.0088 73.6121 61.0091 73.6121C61.1343 73.6121 61.2359 73.706 61.2359 73.8213C61.2359 73.9363 61.1339 74.0296 61.0084 74.0296C61.0084 74.0296 61.0084 74.0296 61.0081 74.0296C60.8175 74.0296 60.6223 74.1721 60.3942 74.4774C59.7869 75.2896 59.3997 76.1009 59.2443 76.8878C59.0641 77.8013 59.2005 78.6971 59.6272 79.4117C59.6876 79.513 59.6471 79.6396 59.5372 79.6951C59.5023 79.7128 59.4652 79.721 59.428 79.721Z" fill="#302945"/>
<path d="M38.0983 67.6176C37.9887 67.6176 37.8818 67.6087 37.7769 67.5907C37.399 67.5258 37.0484 67.3092 36.8385 67.0109C36.6672 66.7672 36.6098 66.4915 36.6775 66.2341C36.7074 66.1218 36.8312 66.0547 36.9518 66.08C37.074 66.1075 37.149 66.2204 37.1194 66.332C37.0706 66.518 37.1473 66.6806 37.22 66.7843C37.3615 66.9853 37.6065 67.1369 37.8602 67.1808C38.2683 67.2507 38.7411 67.1369 39.3105 66.8331C40.5443 66.1749 41.4797 65.1382 41.8765 63.9889C41.9143 63.8791 42.0401 63.8194 42.162 63.8532C42.2815 63.888 42.3479 64.0054 42.3098 64.1155C41.8791 65.3621 40.8691 66.4845 39.5386 67.1945C39.0064 67.4779 38.5316 67.6176 38.0983 67.6176Z" fill="#302945"/>
<path d="M22.5024 71.1708C22.4247 71.1708 22.3487 71.1336 22.3062 71.0677C22.2428 70.9683 22.279 70.8402 22.3876 70.7819C23.1552 70.369 23.6918 69.6071 23.7887 68.7939C23.8721 68.0887 23.6224 67.3552 23.1273 66.8105C23.0324 66.8239 22.9387 66.7641 22.9022 66.6766L22.8275 66.4978C22.7896 66.4073 22.8248 66.3045 22.9122 66.2502C22.9992 66.1956 23.1164 66.2044 23.1941 66.2697C23.9511 66.9136 24.3518 67.8981 24.2403 68.8388C24.1284 69.7809 23.5065 70.6633 22.6173 71.1422C22.5808 71.1614 22.5413 71.1708 22.5024 71.1708Z" fill="#302945"/>
<path d="M13.7677 151.47C14.4859 141.031 16.6773 130.466 22.5957 130.357L23.1685 122.573L24.7506 122.565L26.7418 122.556L27.4417 122.548H27.9783L29.2785 122.54L29.8241 122.532H30.9878L31.5333 122.523L33.1972 122.515H33.7334L34.9065 122.507L35.452 122.499L57.118 122.373H57.5726L59.1547 122.365L59.6182 129.614C59.6182 129.614 64.4914 129.932 66.0008 133.982C66.6646 135.761 67.1736 143.261 67.5282 151.12C67.5372 151.237 67.5372 151.354 67.5465 151.471H13.7677V151.47Z" fill="#FAB9B9"/>
<path d="M160.52 107.548V106.888C155.919 108.141 152.155 110.071 149.319 112.626C145.964 115.65 144.009 119.583 143.954 123.425C143.946 124.645 144.127 125.797 144.5 126.825C142.291 128.862 140.99 130.984 140.627 133.138C140.454 134.166 140.5 135.21 140.545 136.22C140.572 136.913 140.609 137.632 140.563 138.325C140.273 143.186 135.754 147.453 130.899 147.462C128.644 147.437 126.426 146.66 124.298 145.875C123.971 145.758 123.643 145.641 123.316 145.524C118.616 143.845 114.706 143.119 111.006 143.236C106.405 143.394 102.223 145.006 99.5407 147.67C98.4224 148.781 97.586 150.092 97.0587 151.47H97.7769C98.2769 150.243 99.0406 149.09 100.041 148.096C102.605 145.557 106.614 144.012 111.033 143.862C114.633 143.745 118.461 144.455 123.07 146.108C123.388 146.225 123.716 146.342 124.043 146.459C126.225 147.261 128.48 148.088 130.871 148.088H130.898C136.099 148.08 140.927 143.528 141.245 138.358C141.29 137.631 141.254 136.905 141.227 136.195C141.181 135.209 141.145 134.199 141.299 133.23C141.627 131.284 142.79 129.346 144.763 127.475C145.109 128.21 145.555 128.87 146.091 129.438C147.8 131.209 150.473 131.893 152.61 131.1C153.792 130.658 154.755 129.689 155.182 128.494C155.564 127.434 155.464 126.373 154.892 125.513C153.964 124.11 151.882 123.391 149.836 123.767C147.827 124.135 146.181 125.379 145.118 126.281C145.09 126.306 145.072 126.323 145.045 126.34C144.763 125.454 144.627 124.469 144.636 123.433C144.69 119.75 146.563 115.975 149.791 113.077C152.501 110.63 156.119 108.768 160.52 107.548ZM145.582 126.741C146.582 125.889 148.127 124.719 149.973 124.377C151.419 124.11 153.401 124.461 154.31 125.839C154.774 126.54 154.855 127.409 154.537 128.303C154.164 129.313 153.355 130.148 152.355 130.516C150.519 131.209 148.1 130.575 146.6 129.021C146.055 128.453 145.618 127.768 145.291 126.991C145.382 126.908 145.482 126.824 145.582 126.741Z" fill="#302945"/>
<path d="M46.0531 26.0509C45.6168 24.9569 45.0985 23.8796 44.6074 22.827C43.771 21.0815 42.9071 19.2691 42.4163 17.3982C42.1982 16.5714 42.071 15.7527 42.0435 14.9762C41.8253 15.093 41.6072 15.2184 41.3887 15.3437C41.4342 16.0538 41.5614 16.7885 41.7523 17.5404C42.2613 19.4695 43.1342 21.3072 43.9799 23.0777C44.4709 24.1218 44.9799 25.1908 45.4073 26.2599C46.9984 30.2521 47.4622 34.4782 46.8164 38.3783C46.4073 40.8254 45.5799 43.1389 44.3252 45.2016C40.7429 51.098 33.5514 54.7477 26.8052 54.0712C25.9051 53.9794 25.0322 53.8122 24.2051 53.5786C25.4598 51.3819 26.678 48.2084 25.5053 45.3688C25.4688 45.2852 25.4326 45.2016 25.3961 45.1183C24.6779 43.5982 22.9231 42.3706 21.0319 42.0784C19.5224 41.8444 18.186 42.2202 17.268 43.1392C15.7861 44.6175 15.9588 46.7721 16.6135 48.3508C16.6773 48.5094 16.75 48.6683 16.8227 48.8101C17.9954 51.1068 20.314 52.9277 23.2143 53.93C19.6048 59.7427 13.2859 63.9354 6.27606 65.6309C6.24883 65.848 6.2216 66.0734 6.19405 66.2906C13.522 64.5868 20.15 60.2189 23.8687 54.1386C24.7778 54.4058 25.7417 54.5897 26.7328 54.6897C33.7427 55.3998 41.216 51.6162 44.9255 45.5112C46.2712 43.2895 47.1531 40.7842 47.5349 38.145C48.1259 34.2358 47.6349 30.0346 46.0531 26.0509ZM23.5961 53.2946C23.5779 53.3196 23.5596 53.3447 23.5506 53.37C20.7686 52.4345 18.5503 50.7225 17.4409 48.5426C17.3772 48.4091 17.3138 48.2755 17.259 48.1333C16.6407 46.6467 16.568 44.759 17.7683 43.565C18.3776 42.9552 19.214 42.6377 20.1868 42.6377C20.4232 42.6377 20.6686 42.6627 20.9233 42.6963C22.5961 42.9552 24.1417 44.0325 24.7692 45.3688C24.8057 45.4441 24.833 45.5106 24.8602 45.5859C25.9599 48.2084 24.7871 51.2066 23.5961 53.2946ZM86.6482 5.33008C84.839 8.34506 81.3566 10.675 77.1837 11.5269C72.8832 12.4123 68.0189 11.8444 62.7366 9.84812C61.8275 9.5056 60.9364 9.13838 60.0455 8.7623C59.5999 8.57869 59.1547 8.39477 58.7091 8.21116C58.3728 8.31151 58.0364 8.40331 57.7001 8.50335C58.4 8.77054 59.082 9.0545 59.764 9.33846C60.6641 9.70599 61.5642 10.0818 62.4733 10.4243C67.8921 12.4706 72.8925 13.0467 77.3384 12.1366C81.8298 11.2179 85.5664 8.65372 87.4212 5.33801C87.1572 5.33831 86.9029 5.33008 86.6482 5.33008Z" fill="#302945"/>
</svg>
