<svg width="22" height="24" viewBox="0 0 22 24" fill="none" xmlns="http://www.w3.org/2000/svg">
<path d="M15.6667 14.3334C17.1699 14.3335 18.615 14.9138 19.7007 15.9535C20.7865 16.9931 21.4289 18.4118 21.4942 19.9135L21.5 20.1667V21.3334C21.5002 21.922 21.2779 22.489 20.8776 22.9207C20.4773 23.3523 19.9287 23.6167 19.3417 23.6609L19.1667 23.6667H2.83333C2.24466 23.6669 1.67767 23.4446 1.24603 23.0443C0.814382 22.644 0.549984 22.0954 0.505833 21.5084L0.5 21.3334V20.1667C0.500087 18.6635 1.08047 17.2184 2.1201 16.1326C3.15974 15.0469 4.57838 14.4044 6.08017 14.3392L6.33333 14.3334H15.6667ZM11 0.333374C12.5471 0.333374 14.0308 0.947956 15.1248 2.04192C16.2188 3.13588 16.8333 4.61961 16.8333 6.16671C16.8333 7.7138 16.2188 9.19754 15.1248 10.2915C14.0308 11.3855 12.5471 12 11 12C9.4529 12 7.96917 11.3855 6.87521 10.2915C5.78125 9.19754 5.16667 7.7138 5.16667 6.16671C5.16667 4.61961 5.78125 3.13588 6.87521 2.04192C7.96917 0.947956 9.4529 0.333374 11 0.333374Z" fill="#443E3B"/>
</svg>
